M48
METRIC,LZ,000.000
;FILE_FORMAT=3:3
;TYPE=PLATED
;Layer: PTH_Through
;EasyEDA v6.5.39, 2025-04-13 13:19:23
;8408eef12ba34164816cd70bfa3dd211,953214928e7c43af8b9c7e5a0e4489c6,10
;Gerber Generator version 0.2
;Holesize 1 = 0.712 mm
T01C0.712
;Holesize 2 = 0.889 mm
T02C0.889
;Holesize 3 = 0.914 mm
T03C0.914
;Holesize 4 = 0.915 mm
T04C0.915
;Holesize 5 = 1.067 mm
T05C1.067
;Holesize 6 = 1.101 mm
T06C1.101
;Holesize 7 = 1.118 mm
T07C1.118
;Holesize 8 = 1.200 mm
T08C1.200
;Holesize 9 = 1.901 mm
T09C1.901
;Holesize 10 = 2.540 mm
T10C2.540
%
G05
G90
T01
X036449Y089535
X033909Y089535
X036322Y105029
X033782Y105029
T02
X106045Y052705
X106045Y055245
X106045Y057785
X106045Y060325
X111125Y057658
X111125Y055118
X056896Y104013
X059436Y104013
X069596Y104013
X072136Y104013
X082296Y104013
X084836Y104013
X094996Y104013
X097536Y104013
X068199Y059563
X068199Y055372
T03
X131492Y032812G85X131487Y032812
X131492Y035353G85X131487Y035353
X131492Y037893G85X131487Y037893
X131492Y040433G85X131487Y040433
X131492Y042973G85X131487Y042973
X131492Y045513G85X131487Y045513
X131492Y048053G85X131487Y048053
X131492Y050593G85X131487Y050593
X116252Y050593G85X116247Y050593
X116252Y048053G85X116247Y048053
X116252Y045513G85X116247Y045513
X116252Y042973G85X116247Y042973
X116252Y040433G85X116247Y040433
X116252Y037893G85X116247Y037893
X116252Y032813G85X116247Y032813
X035640Y050373G85X035645Y050373
X035640Y047832G85X035645Y047832
X035640Y045292G85X035645Y045292
X035640Y042752G85X035645Y042752
X035640Y040212G85X035645Y040212
X035640Y037672G85X035645Y037672
X035640Y035132G85X035645Y035132
X035640Y032592G85X035645Y032592
X050880Y032592G85X050885Y032592
X050880Y035132G85X050885Y035132
X050880Y037672G85X050885Y037672
X050880Y040212G85X050885Y040212
X050880Y042752G85X050885Y042752
X050880Y045292G85X050885Y045292
X050880Y050372G85X050885Y050372
T04
X061976Y104013
X074676Y104013
X087376Y104013
X100076Y104013
X074803Y065532
X074803Y062992
X074803Y060452
X074803Y057912
X074803Y055372
X074803Y052832
X074803Y050292
X074803Y047752
X074803Y045212
X074803Y042672
X074803Y040132
X074803Y037592
X074803Y035052
X074803Y032512
X074803Y029972
X074803Y027432
X074803Y024892
X074803Y022352
X074803Y019812
X098303Y065752
X098303Y063212
X098303Y060672
X098303Y058132
X098303Y055592
X098303Y053052
X098303Y050512
X098303Y047972
X098303Y045432
X098303Y042892
X098303Y040352
X098303Y037812
X098303Y035272
X098303Y032732
X098303Y030192
X098303Y027652
X098303Y025112
X098303Y022572
X098303Y020032
X053291Y077446
X104291Y077446
X104291Y098446
X053291Y098446
X124460Y057277
X131445Y057277
T05
X116252Y035353G85X116247Y035353
X050880Y047832G85X050885Y047832
T06
X138049Y042799
X138049Y040259
X138049Y048006
X138049Y045466
X024257Y040259
X024257Y042799
X024257Y035052
X024257Y037592
T07
X033782Y095758
X036830Y098298
X033782Y100838
T08
X131826Y077089
X126746Y077089
X023368Y077216
X028448Y077216
T09
X126497Y099367
X126497Y094668
X126497Y089969
X139212Y097165
X139212Y092382
T10
X114821Y100203
X119621Y100203
M30
