G04 Layer: TopLayer*
G04 EasyEDA v6.5.39, 2025-04-13 13:19:23*
G04 8408eef12ba34164816cd70bfa3dd211,953214928e7c43af8b9c7e5a0e4489c6,10*
G04 Gerber Generator version 0.2*
G04 Scale: 100 percent, Rotated: No, Reflected: No *
G04 Dimensions in millimeters *
G04 leading zeros omitted , absolute positions ,4 integer and 5 decimal *
%FSLAX45Y45*%
%MOMM*%

%ADD10C,1.0000*%
%ADD11C,2.0000*%
%ADD12R,1.5748X1.5748*%
%ADD13C,1.5748*%
%ADD14C,3.8000*%
%ADD15C,1.1938*%
%ADD16C,1.5240*%
%ADD17R,1.5748X1.7000*%
%ADD18C,1.7000*%
%ADD19C,1.7780*%
%ADD20C,3.0000*%
%ADD21C,2.5000*%
%ADD22R,2.7305X1.5164*%
%ADD23R,2.5000X2.5000*%
%ADD24C,2.2000*%
%ADD25C,0.0114*%

%LPD*%
G36*
X3918153Y251409D02*
G01*
X3914292Y252171D01*
X3910990Y254355D01*
X255168Y3910177D01*
X252984Y3913479D01*
X252171Y3917391D01*
X252171Y11524234D01*
X252984Y11528094D01*
X255168Y11531396D01*
X258724Y11534952D01*
X262026Y11537188D01*
X265887Y11537950D01*
X15177312Y11537950D01*
X15181173Y11537188D01*
X15184475Y11534952D01*
X15188031Y11531396D01*
X15190216Y11528094D01*
X15191028Y11524234D01*
X15191028Y3917391D01*
X15190216Y3913479D01*
X15188031Y3910177D01*
X11532209Y254355D01*
X11528907Y252171D01*
X11525046Y251409D01*
G37*

%LPC*%
G36*
X7726121Y827481D02*
G01*
X7744206Y828852D01*
X7761986Y832103D01*
X7779410Y837184D01*
X7796174Y843991D01*
X7812125Y852525D01*
X7827162Y862634D01*
X7841081Y874217D01*
X7853730Y887171D01*
X7864957Y901395D01*
X7874660Y916686D01*
X7882788Y932840D01*
X7889138Y949807D01*
X7893761Y967333D01*
X7896555Y985215D01*
X7897469Y1003300D01*
X7896555Y1021384D01*
X7893761Y1039266D01*
X7889138Y1056792D01*
X7882788Y1073759D01*
X7874660Y1089914D01*
X7864957Y1105204D01*
X7853730Y1119428D01*
X7841081Y1132382D01*
X7827162Y1143965D01*
X7812125Y1154074D01*
X7796174Y1162608D01*
X7779410Y1169416D01*
X7761986Y1174496D01*
X7744206Y1177747D01*
X7726121Y1179118D01*
X7708036Y1178661D01*
X7690053Y1176324D01*
X7672425Y1172210D01*
X7655356Y1166215D01*
X7638948Y1158544D01*
X7623403Y1149248D01*
X7608925Y1138377D01*
X7595616Y1126083D01*
X7583678Y1112469D01*
X7573162Y1097686D01*
X7564272Y1081938D01*
X7557008Y1065326D01*
X7551521Y1048105D01*
X7547813Y1030376D01*
X7545933Y1012342D01*
X7545933Y994257D01*
X7547813Y976223D01*
X7551521Y958494D01*
X7557008Y941273D01*
X7564272Y924661D01*
X7573162Y908913D01*
X7583678Y894130D01*
X7595616Y880516D01*
X7608925Y868222D01*
X7623403Y857351D01*
X7638948Y848055D01*
X7655356Y840384D01*
X7672425Y834390D01*
X7690053Y830275D01*
X7708036Y827938D01*
G37*
G36*
X3873652Y1245666D02*
G01*
X11239093Y1245666D01*
X11246866Y1245920D01*
X11254435Y1246632D01*
X11261953Y1247749D01*
X11269370Y1249375D01*
X11276685Y1251407D01*
X11283899Y1253896D01*
X11290909Y1256792D01*
X11297767Y1260094D01*
X11304371Y1263853D01*
X11310772Y1267968D01*
X11316868Y1272489D01*
X11322710Y1277366D01*
X11328400Y1282700D01*
X13237718Y3192018D01*
X13243051Y3197707D01*
X13247928Y3203549D01*
X13252450Y3209645D01*
X13256564Y3216046D01*
X13260324Y3222650D01*
X13263626Y3229508D01*
X13266521Y3236518D01*
X13269010Y3243732D01*
X13271042Y3251047D01*
X13272668Y3258464D01*
X13273786Y3265982D01*
X13274497Y3273552D01*
X13274700Y3281172D01*
X13274497Y3288792D01*
X13273786Y3296361D01*
X13272668Y3303879D01*
X13271042Y3311296D01*
X13269010Y3318611D01*
X13266521Y3325825D01*
X13263626Y3332835D01*
X13260324Y3339693D01*
X13256564Y3346297D01*
X13252450Y3352698D01*
X13247928Y3358794D01*
X13243051Y3364636D01*
X13237870Y3370173D01*
X13232282Y3375406D01*
X13226440Y3380282D01*
X13220344Y3384804D01*
X13213943Y3388918D01*
X13207339Y3392678D01*
X13200481Y3395979D01*
X13193471Y3398875D01*
X13186257Y3401364D01*
X13175945Y3404057D01*
X13171881Y3405936D01*
X13168985Y3409442D01*
X13167918Y3413810D01*
X13168833Y3418179D01*
X13171525Y3421786D01*
X13175538Y3423818D01*
X13184479Y3426104D01*
X13197890Y3431438D01*
X13210489Y3438398D01*
X13222173Y3446830D01*
X13232587Y3456635D01*
X13235787Y3458667D01*
X13239546Y3459378D01*
X14028166Y3459429D01*
X14037005Y3460292D01*
X14039443Y3460699D01*
X14048028Y3462832D01*
X14050365Y3463594D01*
X14058595Y3466998D01*
X14060779Y3468115D01*
X14068399Y3472687D01*
X14070431Y3474110D01*
X14077289Y3479800D01*
X14266824Y3669334D01*
X14273885Y3678174D01*
X14278508Y3685794D01*
X14279626Y3687978D01*
X14283029Y3696208D01*
X14283791Y3698544D01*
X14285925Y3707180D01*
X14286331Y3709619D01*
X14287144Y3718458D01*
X14287144Y5425541D01*
X14286331Y5434380D01*
X14285925Y5436819D01*
X14283791Y5445455D01*
X14283029Y5447792D01*
X14279626Y5456021D01*
X14278508Y5458206D01*
X14273885Y5465826D01*
X14266824Y5474665D01*
X13958265Y5783224D01*
X13949426Y5790285D01*
X13941806Y5794908D01*
X13939621Y5796026D01*
X13931392Y5799429D01*
X13929055Y5800191D01*
X13920419Y5802325D01*
X13917980Y5802731D01*
X13909141Y5803544D01*
X13216178Y5803595D01*
X13212724Y5804204D01*
X13209625Y5806033D01*
X13205053Y5809894D01*
X13193572Y5817209D01*
X13181177Y5822950D01*
X13168172Y5827014D01*
X13154710Y5829300D01*
X13141096Y5829706D01*
X13127532Y5828385D01*
X13114223Y5825185D01*
X13101523Y5820308D01*
X13089585Y5813755D01*
X13078561Y5805678D01*
X13068757Y5796178D01*
X13060324Y5785459D01*
X13053364Y5773724D01*
X13048030Y5761177D01*
X13044474Y5748020D01*
X13042646Y5734507D01*
X13042646Y5720892D01*
X13044474Y5707380D01*
X13048030Y5694222D01*
X13053364Y5681675D01*
X13060324Y5669940D01*
X13068757Y5659221D01*
X13078561Y5649722D01*
X13089585Y5641644D01*
X13101523Y5635091D01*
X13114223Y5630214D01*
X13127532Y5627014D01*
X13141096Y5625693D01*
X13154710Y5626150D01*
X13168172Y5628386D01*
X13181177Y5632450D01*
X13193572Y5638190D01*
X13205053Y5645505D01*
X13209625Y5649366D01*
X13212673Y5651195D01*
X13216178Y5651804D01*
X13870838Y5651804D01*
X13874750Y5651042D01*
X13878051Y5648807D01*
X14132407Y5394452D01*
X14134642Y5391150D01*
X14135404Y5387238D01*
X14135404Y3756761D01*
X14134642Y3752850D01*
X14132407Y3749548D01*
X13997025Y3614165D01*
X13993723Y3611981D01*
X13989862Y3611219D01*
X13239546Y3611219D01*
X13235787Y3611930D01*
X13232587Y3613962D01*
X13222173Y3623767D01*
X13210489Y3632200D01*
X13197890Y3639159D01*
X13184479Y3644493D01*
X13170509Y3648049D01*
X13156184Y3649878D01*
X13141807Y3649878D01*
X13127482Y3648049D01*
X13113512Y3644493D01*
X13100100Y3639159D01*
X13087502Y3632200D01*
X13075818Y3623767D01*
X13065302Y3613861D01*
X13056108Y3602786D01*
X13048386Y3590594D01*
X13042290Y3577539D01*
X13037819Y3563823D01*
X13035127Y3549700D01*
X13034213Y3535273D01*
X13035127Y3520897D01*
X13037819Y3506774D01*
X13041223Y3496157D01*
X13041680Y3491737D01*
X13040106Y3487521D01*
X13036905Y3484372D01*
X13032638Y3482949D01*
X13028218Y3483457D01*
X13024408Y3485845D01*
X12943179Y3567074D01*
X12940995Y3570376D01*
X12940233Y3574237D01*
X12940233Y6128562D01*
X12940995Y6132423D01*
X12943179Y6135725D01*
X13271500Y6464046D01*
X13276834Y6469735D01*
X13281710Y6475577D01*
X13286232Y6481673D01*
X13290346Y6488074D01*
X13294106Y6494678D01*
X13297407Y6501536D01*
X13300303Y6508546D01*
X13302792Y6515760D01*
X13304824Y6523075D01*
X13306450Y6530492D01*
X13307568Y6538010D01*
X13308279Y6545580D01*
X13308533Y6553352D01*
X13308533Y7656372D01*
X13309142Y7659878D01*
X13312800Y7669936D01*
X13316407Y7685278D01*
X13318236Y7700975D01*
X13318236Y7716824D01*
X13316407Y7732522D01*
X13312800Y7747863D01*
X13309142Y7757922D01*
X13308533Y7761427D01*
X13308533Y9804247D01*
X13308279Y9812020D01*
X13307568Y9819589D01*
X13306450Y9827107D01*
X13304824Y9834524D01*
X13302792Y9841839D01*
X13300303Y9849053D01*
X13297407Y9856063D01*
X13294106Y9862921D01*
X13290346Y9869525D01*
X13286232Y9875926D01*
X13281710Y9882022D01*
X13276834Y9887864D01*
X13271500Y9893554D01*
X13139419Y10025634D01*
X13133730Y10030968D01*
X13127888Y10035844D01*
X13121792Y10040366D01*
X13115391Y10044480D01*
X13108787Y10048240D01*
X13101929Y10051542D01*
X13094919Y10054437D01*
X13087705Y10056926D01*
X13080390Y10058958D01*
X13072973Y10060584D01*
X13065455Y10061702D01*
X13057886Y10062413D01*
X13050113Y10062616D01*
X12776352Y10062616D01*
X12772796Y10063276D01*
X12769646Y10065156D01*
X12758877Y10074656D01*
X12744094Y10085171D01*
X12728346Y10094061D01*
X12711734Y10101326D01*
X12694513Y10106812D01*
X12676784Y10110520D01*
X12658750Y10112400D01*
X12640665Y10112400D01*
X12622631Y10110520D01*
X12604902Y10106812D01*
X12587681Y10101326D01*
X12571069Y10094061D01*
X12555321Y10085171D01*
X12540538Y10074656D01*
X12526924Y10062718D01*
X12514630Y10049408D01*
X12503759Y10034930D01*
X12494463Y10019385D01*
X12486792Y10002977D01*
X12480798Y9985908D01*
X12476683Y9968280D01*
X12474346Y9950297D01*
X12473889Y9932212D01*
X12475260Y9914128D01*
X12478512Y9896348D01*
X12483592Y9878923D01*
X12490399Y9862159D01*
X12498933Y9846208D01*
X12509042Y9831171D01*
X12520625Y9817252D01*
X12533579Y9804603D01*
X12547803Y9793376D01*
X12563094Y9783673D01*
X12579248Y9775545D01*
X12596215Y9769195D01*
X12613741Y9764572D01*
X12631623Y9761778D01*
X12649708Y9760864D01*
X12667792Y9761778D01*
X12685674Y9764572D01*
X12703200Y9769195D01*
X12720167Y9775545D01*
X12736322Y9783673D01*
X12751612Y9793376D01*
X12765836Y9804603D01*
X12769240Y9807956D01*
X12772491Y9810089D01*
X12776352Y9810800D01*
X12993928Y9810800D01*
X12997789Y9810038D01*
X13001091Y9807854D01*
X13053720Y9755225D01*
X13055904Y9751923D01*
X13056717Y9748062D01*
X13056717Y7761427D01*
X13056057Y7757922D01*
X13052399Y7747863D01*
X13048792Y7732522D01*
X13046963Y7716824D01*
X13046963Y7700975D01*
X13048792Y7685278D01*
X13052399Y7669936D01*
X13056057Y7659878D01*
X13056717Y7656372D01*
X13056717Y6609537D01*
X13055904Y6605676D01*
X13053720Y6602374D01*
X12821462Y6370167D01*
X12818211Y6367932D01*
X12814300Y6367170D01*
X12810388Y6367932D01*
X12807137Y6370167D01*
X11343741Y7833512D01*
X11338052Y7838846D01*
X11332210Y7843723D01*
X11326114Y7848244D01*
X11319713Y7852359D01*
X11313109Y7856118D01*
X11306251Y7859420D01*
X11299240Y7862316D01*
X11292027Y7864805D01*
X11284712Y7866837D01*
X11277295Y7868462D01*
X11269776Y7869580D01*
X11262207Y7870291D01*
X11254435Y7870494D01*
X10588193Y7870494D01*
X10584129Y7871358D01*
X10580725Y7873746D01*
X10578592Y7877302D01*
X10577372Y7880807D01*
X10574324Y7885734D01*
X10570210Y7889798D01*
X10565333Y7892897D01*
X10559846Y7894777D01*
X10553547Y7895488D01*
X10304678Y7895488D01*
X10298328Y7894777D01*
X10292892Y7892897D01*
X10287965Y7889798D01*
X10283901Y7885734D01*
X10280802Y7880807D01*
X10278922Y7875371D01*
X10278211Y7869021D01*
X10278211Y7620152D01*
X10278922Y7613853D01*
X10280802Y7608366D01*
X10283901Y7603490D01*
X10287965Y7599375D01*
X10292892Y7596327D01*
X10298328Y7594396D01*
X10304678Y7593685D01*
X10553547Y7593685D01*
X10559846Y7594396D01*
X10565333Y7596327D01*
X10570210Y7599375D01*
X10574324Y7603490D01*
X10577372Y7608366D01*
X10578592Y7611922D01*
X10580776Y7615478D01*
X10584129Y7617866D01*
X10588193Y7618679D01*
X11198250Y7618679D01*
X11202111Y7617917D01*
X11205413Y7615732D01*
X12685420Y6135725D01*
X12687604Y6132423D01*
X12688417Y6128562D01*
X12688417Y3518052D01*
X12688620Y3510279D01*
X12689332Y3502710D01*
X12690449Y3495192D01*
X12692075Y3487775D01*
X12694107Y3480460D01*
X12696596Y3473246D01*
X12699492Y3466236D01*
X12702794Y3459378D01*
X12706553Y3452774D01*
X12710668Y3446373D01*
X12715189Y3440277D01*
X12720066Y3434435D01*
X12725400Y3428746D01*
X12914680Y3239465D01*
X12916865Y3236163D01*
X12917678Y3232251D01*
X12916865Y3228390D01*
X12914680Y3225088D01*
X11190071Y1500479D01*
X11186769Y1498295D01*
X11182908Y1497482D01*
X3929837Y1497482D01*
X3925976Y1498295D01*
X3922674Y1500479D01*
X1805279Y3617874D01*
X1803095Y3621176D01*
X1802333Y3625037D01*
X1802333Y4553762D01*
X1803095Y4557623D01*
X1805279Y4560925D01*
X2157374Y4913020D01*
X2160676Y4915204D01*
X2164537Y4915966D01*
X3529837Y4915966D01*
X3532225Y4915712D01*
X3537610Y4914392D01*
X3541623Y4912410D01*
X3544366Y4908956D01*
X3545382Y4904587D01*
X3544468Y4900269D01*
X3541725Y4896713D01*
X3537762Y4894681D01*
X3528720Y4892395D01*
X3515309Y4887061D01*
X3502710Y4880102D01*
X3491026Y4871669D01*
X3480511Y4861763D01*
X3471316Y4850688D01*
X3463594Y4838496D01*
X3457498Y4825441D01*
X3453028Y4811725D01*
X3450336Y4797602D01*
X3449421Y4783175D01*
X3450336Y4768799D01*
X3453028Y4754676D01*
X3457498Y4740960D01*
X3463594Y4727905D01*
X3471316Y4715713D01*
X3480511Y4704638D01*
X3491026Y4694732D01*
X3502710Y4686300D01*
X3515309Y4679340D01*
X3528720Y4674006D01*
X3542690Y4670450D01*
X3557015Y4668621D01*
X3571392Y4668621D01*
X3585718Y4670450D01*
X3599687Y4674006D01*
X3613099Y4679340D01*
X3625697Y4686300D01*
X3637381Y4694732D01*
X3647643Y4704435D01*
X3650894Y4706467D01*
X3654602Y4707178D01*
X3944264Y4707178D01*
X3948176Y4706416D01*
X3951478Y4704181D01*
X4201007Y4454652D01*
X4203242Y4451350D01*
X4204004Y4447438D01*
X4204055Y2588158D01*
X4204868Y2579319D01*
X4205274Y2576880D01*
X4207408Y2568244D01*
X4208170Y2565908D01*
X4211574Y2557678D01*
X4212691Y2555494D01*
X4217314Y2547874D01*
X4224375Y2539034D01*
X5117134Y1646275D01*
X5125974Y1639214D01*
X5133594Y1634591D01*
X5135778Y1633474D01*
X5144008Y1630070D01*
X5146344Y1629308D01*
X5154980Y1627174D01*
X5157419Y1626768D01*
X5166258Y1625955D01*
X11026241Y1625955D01*
X11035080Y1626768D01*
X11037519Y1627174D01*
X11046155Y1629308D01*
X11048492Y1630070D01*
X11056721Y1633474D01*
X11058906Y1634591D01*
X11066526Y1639214D01*
X11075365Y1646275D01*
X12501524Y3072434D01*
X12508585Y3081274D01*
X12513208Y3088894D01*
X12514326Y3091078D01*
X12517729Y3099308D01*
X12518491Y3101644D01*
X12520625Y3110280D01*
X12521031Y3112719D01*
X12521844Y3121558D01*
X12521895Y5655868D01*
X12522606Y5659526D01*
X12524536Y5662676D01*
X12526111Y5664454D01*
X12533833Y5675680D01*
X12539980Y5687872D01*
X12544450Y5700725D01*
X12547142Y5714085D01*
X12548057Y5727700D01*
X12547142Y5741314D01*
X12544450Y5754674D01*
X12539980Y5767578D01*
X12533833Y5779719D01*
X12526111Y5790946D01*
X12516967Y5801106D01*
X12506553Y5809894D01*
X12495072Y5817209D01*
X12482677Y5822950D01*
X12469672Y5827014D01*
X12456210Y5829300D01*
X12442596Y5829706D01*
X12429032Y5828385D01*
X12415723Y5825185D01*
X12403023Y5820308D01*
X12391085Y5813755D01*
X12380061Y5805678D01*
X12370257Y5796178D01*
X12361824Y5785459D01*
X12354864Y5773724D01*
X12349530Y5761177D01*
X12345974Y5748020D01*
X12344146Y5734507D01*
X12344146Y5720892D01*
X12345974Y5707380D01*
X12349530Y5694222D01*
X12354864Y5681675D01*
X12361824Y5669940D01*
X12367920Y5662218D01*
X12369546Y5659272D01*
X12370104Y5655919D01*
X12370104Y3159861D01*
X12369342Y3155950D01*
X12367107Y3152648D01*
X10995152Y1780692D01*
X10991850Y1778457D01*
X10987938Y1777695D01*
X8531555Y1777695D01*
X8527694Y1778457D01*
X8524392Y1780692D01*
X8522157Y1783994D01*
X8521395Y1787855D01*
X8521344Y6098641D01*
X8520531Y6107480D01*
X8520125Y6109919D01*
X8517991Y6118555D01*
X8517229Y6120892D01*
X8513826Y6129121D01*
X8512708Y6131306D01*
X8508085Y6138926D01*
X8501024Y6147765D01*
X8040065Y6608724D01*
X8031225Y6615785D01*
X8023606Y6620408D01*
X8021421Y6621525D01*
X8013192Y6624929D01*
X8010855Y6625691D01*
X8002219Y6627825D01*
X7999780Y6628231D01*
X7990941Y6629044D01*
X7551978Y6629095D01*
X7548524Y6629704D01*
X7545425Y6631533D01*
X7540853Y6635394D01*
X7529372Y6642709D01*
X7516977Y6648450D01*
X7503972Y6652514D01*
X7490510Y6654749D01*
X7476896Y6655206D01*
X7463332Y6653885D01*
X7450074Y6650685D01*
X7437323Y6645808D01*
X7425385Y6639255D01*
X7414412Y6631178D01*
X7404608Y6621678D01*
X7396124Y6610959D01*
X7389164Y6599224D01*
X7383881Y6586677D01*
X7380274Y6573520D01*
X7378446Y6560007D01*
X7378446Y6546392D01*
X7380274Y6532880D01*
X7383881Y6519722D01*
X7389164Y6507175D01*
X7396124Y6495440D01*
X7404608Y6484721D01*
X7414412Y6475222D01*
X7425385Y6467144D01*
X7437323Y6460591D01*
X7450074Y6455714D01*
X7463332Y6452514D01*
X7476896Y6451193D01*
X7490510Y6451650D01*
X7503972Y6453886D01*
X7516977Y6457950D01*
X7529372Y6463690D01*
X7540853Y6471005D01*
X7545425Y6474866D01*
X7548524Y6476695D01*
X7551978Y6477304D01*
X7952638Y6477304D01*
X7956550Y6476542D01*
X7959852Y6474307D01*
X8366607Y6067552D01*
X8368842Y6064250D01*
X8369604Y6060338D01*
X8369604Y1787855D01*
X8368842Y1783994D01*
X8366607Y1780692D01*
X8363305Y1778457D01*
X8359444Y1777695D01*
X5204561Y1777695D01*
X5200650Y1778457D01*
X5197348Y1780692D01*
X4358792Y2619248D01*
X4356557Y2622550D01*
X4355795Y2626461D01*
X4355744Y4485741D01*
X4354931Y4494580D01*
X4354525Y4497019D01*
X4352391Y4505655D01*
X4351629Y4507992D01*
X4348226Y4516221D01*
X4347108Y4518406D01*
X4342485Y4526026D01*
X4335424Y4534865D01*
X4031691Y4838598D01*
X4022851Y4845659D01*
X4015232Y4850282D01*
X4013047Y4851400D01*
X4004818Y4854803D01*
X4002481Y4855565D01*
X3993845Y4857699D01*
X3991406Y4858105D01*
X3982567Y4858918D01*
X3654856Y4858969D01*
X3651148Y4859680D01*
X3647948Y4861712D01*
X3637381Y4871669D01*
X3625697Y4880102D01*
X3613099Y4887061D01*
X3599687Y4892395D01*
X3591001Y4894580D01*
X3587038Y4896612D01*
X3584295Y4900168D01*
X3583381Y4904587D01*
X3584448Y4908905D01*
X3587242Y4912410D01*
X3591255Y4914341D01*
X3594404Y4915052D01*
X3605225Y4918202D01*
X3608882Y4919573D01*
X3619246Y4923993D01*
X3622751Y4925771D01*
X3632504Y4931460D01*
X3635806Y4933645D01*
X3644798Y4940452D01*
X3647744Y4942992D01*
X3655872Y4950815D01*
X3658514Y4953711D01*
X3665626Y4962499D01*
X3667912Y4965700D01*
X3673906Y4975250D01*
X3675786Y4978704D01*
X3680612Y4988915D01*
X3682034Y4992573D01*
X3685590Y5003241D01*
X3686606Y5007051D01*
X3688791Y5018125D01*
X3689350Y5022037D01*
X3690213Y5033264D01*
X3690315Y5909665D01*
X3690061Y5917438D01*
X3689350Y5925007D01*
X3688232Y5932525D01*
X3686606Y5939942D01*
X3684574Y5947257D01*
X3682085Y5954471D01*
X3679190Y5961481D01*
X3675887Y5968339D01*
X3672128Y5974943D01*
X3668014Y5981344D01*
X3663492Y5987440D01*
X3658615Y5993282D01*
X3653282Y5998972D01*
X2465679Y7186574D01*
X2463495Y7189876D01*
X2462733Y7193737D01*
X2462733Y7669072D01*
X2463342Y7672578D01*
X2467000Y7682636D01*
X2470607Y7697978D01*
X2472436Y7713675D01*
X2472436Y7729524D01*
X2470607Y7745222D01*
X2467000Y7760563D01*
X2461564Y7775448D01*
X2454503Y7789570D01*
X2445816Y7802727D01*
X2435656Y7814868D01*
X2424125Y7825689D01*
X2411476Y7835138D01*
X2397810Y7843012D01*
X2383282Y7849311D01*
X2368143Y7853832D01*
X2352598Y7856575D01*
X2336800Y7857490D01*
X2321001Y7856575D01*
X2305456Y7853832D01*
X2290318Y7849311D01*
X2275789Y7843012D01*
X2262124Y7835138D01*
X2249474Y7825689D01*
X2237943Y7814868D01*
X2227783Y7802727D01*
X2219096Y7789570D01*
X2212035Y7775448D01*
X2206599Y7760563D01*
X2202992Y7745222D01*
X2201164Y7729524D01*
X2201164Y7713675D01*
X2202992Y7697978D01*
X2206599Y7682636D01*
X2210257Y7672578D01*
X2210917Y7669072D01*
X2210917Y7137552D01*
X2211120Y7129780D01*
X2211832Y7122210D01*
X2212949Y7114692D01*
X2214575Y7107275D01*
X2216607Y7099960D01*
X2219096Y7092746D01*
X2221992Y7085736D01*
X2225294Y7078878D01*
X2229053Y7072274D01*
X2233168Y7065873D01*
X2237689Y7059777D01*
X2242566Y7053935D01*
X2247900Y7048246D01*
X3435502Y5860643D01*
X3437686Y5857341D01*
X3438499Y5853480D01*
X3438499Y5177942D01*
X3437686Y5174081D01*
X3435502Y5170779D01*
X3432200Y5168595D01*
X3428339Y5167782D01*
X2108352Y5167782D01*
X2100580Y5167579D01*
X2093010Y5166868D01*
X2085492Y5165750D01*
X2078075Y5164124D01*
X2070760Y5162092D01*
X2063546Y5159603D01*
X2056536Y5156708D01*
X2049678Y5153406D01*
X2043074Y5149646D01*
X2036673Y5145532D01*
X2030577Y5141010D01*
X2024735Y5136134D01*
X2019046Y5130800D01*
X1587500Y4699254D01*
X1582166Y4693564D01*
X1577289Y4687722D01*
X1572768Y4681626D01*
X1568653Y4675225D01*
X1564894Y4668621D01*
X1561592Y4661763D01*
X1558696Y4654753D01*
X1556207Y4647539D01*
X1554175Y4640224D01*
X1552549Y4632807D01*
X1551432Y4625289D01*
X1550720Y4617720D01*
X1550517Y4609947D01*
X1550517Y3568852D01*
X1550720Y3561079D01*
X1551432Y3553510D01*
X1552549Y3545992D01*
X1554175Y3538575D01*
X1556207Y3531260D01*
X1558696Y3524046D01*
X1561592Y3517036D01*
X1564894Y3510178D01*
X1568653Y3503574D01*
X1572768Y3497173D01*
X1577289Y3491077D01*
X1582166Y3485235D01*
X1587500Y3479546D01*
X3784346Y1282700D01*
X3790035Y1277366D01*
X3795877Y1272489D01*
X3801973Y1267968D01*
X3808374Y1263853D01*
X3814978Y1260094D01*
X3821836Y1256792D01*
X3828846Y1253896D01*
X3836060Y1251407D01*
X3843375Y1249375D01*
X3850792Y1247749D01*
X3858310Y1246632D01*
X3865879Y1245920D01*
G37*
G36*
X7476896Y1879193D02*
G01*
X7490510Y1879650D01*
X7503972Y1881886D01*
X7516977Y1885950D01*
X7529372Y1891690D01*
X7540853Y1899005D01*
X7551267Y1907793D01*
X7560411Y1917954D01*
X7568133Y1929180D01*
X7574280Y1941322D01*
X7578750Y1954225D01*
X7581493Y1967585D01*
X7582408Y1981200D01*
X7581493Y1994814D01*
X7578750Y2008174D01*
X7574280Y2021078D01*
X7568133Y2033219D01*
X7560411Y2044446D01*
X7551267Y2054606D01*
X7540853Y2063394D01*
X7529372Y2070709D01*
X7516977Y2076450D01*
X7503972Y2080514D01*
X7490510Y2082749D01*
X7476896Y2083206D01*
X7463332Y2081885D01*
X7450074Y2078685D01*
X7437323Y2073808D01*
X7425385Y2067255D01*
X7414412Y2059178D01*
X7404608Y2049678D01*
X7396124Y2038959D01*
X7389164Y2027224D01*
X7383881Y2014677D01*
X7380274Y2001520D01*
X7378446Y1988007D01*
X7378446Y1974392D01*
X7380274Y1960880D01*
X7383881Y1947722D01*
X7389164Y1935175D01*
X7396124Y1923440D01*
X7404608Y1912721D01*
X7414412Y1903222D01*
X7425385Y1895144D01*
X7437323Y1888591D01*
X7450074Y1883714D01*
X7463332Y1880514D01*
G37*
G36*
X9826904Y1901189D02*
G01*
X9840518Y1901647D01*
X9853980Y1903882D01*
X9866985Y1907946D01*
X9879380Y1913686D01*
X9890861Y1921002D01*
X9901275Y1929841D01*
X9910419Y1939950D01*
X9918141Y1951177D01*
X9924288Y1963369D01*
X9928758Y1976221D01*
X9931450Y1989582D01*
X9932365Y2003196D01*
X9931450Y2016810D01*
X9928758Y2030171D01*
X9924288Y2043074D01*
X9918141Y2055215D01*
X9910419Y2066442D01*
X9901275Y2076602D01*
X9890861Y2085390D01*
X9879380Y2092706D01*
X9866985Y2098446D01*
X9853980Y2102510D01*
X9840518Y2104796D01*
X9826904Y2105202D01*
X9813340Y2103882D01*
X9800031Y2100681D01*
X9787331Y2095804D01*
X9775393Y2089251D01*
X9764369Y2081174D01*
X9754565Y2071674D01*
X9746132Y2060956D01*
X9739172Y2049221D01*
X9733838Y2036673D01*
X9730282Y2023516D01*
X9728454Y2010003D01*
X9728454Y1996389D01*
X9730282Y1982876D01*
X9733838Y1969719D01*
X9739172Y1957171D01*
X9746132Y1945436D01*
X9754565Y1934718D01*
X9764369Y1925218D01*
X9775393Y1917141D01*
X9787331Y1910588D01*
X9800031Y1905711D01*
X9813340Y1902510D01*
G37*
G36*
X7476896Y2133193D02*
G01*
X7490510Y2133650D01*
X7503972Y2135886D01*
X7516977Y2139950D01*
X7529372Y2145690D01*
X7540853Y2153005D01*
X7551267Y2161794D01*
X7560411Y2171954D01*
X7568133Y2183180D01*
X7574280Y2195322D01*
X7578750Y2208225D01*
X7581493Y2221585D01*
X7582408Y2235200D01*
X7581493Y2248814D01*
X7578750Y2262174D01*
X7574280Y2275078D01*
X7568133Y2287219D01*
X7560411Y2298446D01*
X7551267Y2308606D01*
X7540853Y2317394D01*
X7529372Y2324709D01*
X7516977Y2330450D01*
X7503972Y2334514D01*
X7490510Y2336749D01*
X7476896Y2337206D01*
X7463332Y2335885D01*
X7450074Y2332685D01*
X7437323Y2327808D01*
X7425385Y2321255D01*
X7414412Y2313178D01*
X7404608Y2303678D01*
X7396124Y2292959D01*
X7389164Y2281224D01*
X7383881Y2268677D01*
X7380274Y2255520D01*
X7378446Y2242007D01*
X7378446Y2228392D01*
X7380274Y2214880D01*
X7383881Y2201722D01*
X7389164Y2189175D01*
X7396124Y2177440D01*
X7404608Y2166721D01*
X7414412Y2157222D01*
X7425385Y2149144D01*
X7437323Y2142591D01*
X7450074Y2137714D01*
X7463332Y2134514D01*
G37*
G36*
X9826904Y2155190D02*
G01*
X9840518Y2155647D01*
X9853980Y2157882D01*
X9866985Y2161946D01*
X9879380Y2167686D01*
X9890861Y2175002D01*
X9901275Y2183841D01*
X9910419Y2193950D01*
X9918141Y2205177D01*
X9924288Y2217369D01*
X9928758Y2230221D01*
X9931450Y2243582D01*
X9932365Y2257196D01*
X9931450Y2270810D01*
X9928758Y2284171D01*
X9924288Y2297074D01*
X9918141Y2309215D01*
X9910419Y2320442D01*
X9901275Y2330602D01*
X9890861Y2339390D01*
X9879380Y2346706D01*
X9866985Y2352446D01*
X9853980Y2356510D01*
X9840518Y2358796D01*
X9826904Y2359202D01*
X9813340Y2357882D01*
X9800031Y2354681D01*
X9787331Y2349804D01*
X9775393Y2343251D01*
X9764369Y2335174D01*
X9754565Y2325674D01*
X9746132Y2314956D01*
X9739172Y2303221D01*
X9733838Y2290673D01*
X9730282Y2277516D01*
X9728454Y2264003D01*
X9728454Y2250389D01*
X9730282Y2236876D01*
X9733838Y2223719D01*
X9739172Y2211171D01*
X9746132Y2199436D01*
X9754565Y2188718D01*
X9764369Y2179218D01*
X9775393Y2171141D01*
X9787331Y2164588D01*
X9800031Y2159711D01*
X9813340Y2156510D01*
G37*
G36*
X7476896Y2387193D02*
G01*
X7490510Y2387650D01*
X7503972Y2389886D01*
X7516977Y2393950D01*
X7529372Y2399690D01*
X7540853Y2407005D01*
X7551267Y2415794D01*
X7560411Y2425954D01*
X7568133Y2437180D01*
X7574280Y2449322D01*
X7578750Y2462225D01*
X7581493Y2475585D01*
X7582408Y2489200D01*
X7581493Y2502814D01*
X7578750Y2516174D01*
X7574280Y2529078D01*
X7568133Y2541219D01*
X7560411Y2552446D01*
X7551267Y2562606D01*
X7540853Y2571394D01*
X7529372Y2578709D01*
X7516977Y2584450D01*
X7503972Y2588514D01*
X7490510Y2590749D01*
X7476896Y2591206D01*
X7463332Y2589885D01*
X7450074Y2586685D01*
X7437323Y2581808D01*
X7425385Y2575255D01*
X7414412Y2567178D01*
X7404608Y2557678D01*
X7396124Y2546959D01*
X7389164Y2535224D01*
X7383881Y2522677D01*
X7380274Y2509520D01*
X7378446Y2496007D01*
X7378446Y2482392D01*
X7380274Y2468880D01*
X7383881Y2455722D01*
X7389164Y2443175D01*
X7396124Y2431440D01*
X7404608Y2420721D01*
X7414412Y2411222D01*
X7425385Y2403144D01*
X7437323Y2396591D01*
X7450074Y2391714D01*
X7463332Y2388514D01*
G37*
G36*
X9826904Y2409190D02*
G01*
X9840518Y2409647D01*
X9853980Y2411882D01*
X9866985Y2415946D01*
X9879380Y2421686D01*
X9890861Y2429002D01*
X9901275Y2437841D01*
X9910419Y2447950D01*
X9918141Y2459177D01*
X9924288Y2471369D01*
X9928758Y2484221D01*
X9931450Y2497582D01*
X9932365Y2511196D01*
X9931450Y2524810D01*
X9928758Y2538171D01*
X9924288Y2551074D01*
X9918141Y2563215D01*
X9910419Y2574442D01*
X9901275Y2584602D01*
X9890861Y2593390D01*
X9879380Y2600706D01*
X9866985Y2606446D01*
X9853980Y2610510D01*
X9840518Y2612796D01*
X9826904Y2613202D01*
X9813340Y2611882D01*
X9800031Y2608681D01*
X9787331Y2603804D01*
X9775393Y2597251D01*
X9764369Y2589174D01*
X9754565Y2579674D01*
X9746132Y2568956D01*
X9739172Y2557221D01*
X9733838Y2544673D01*
X9730282Y2531516D01*
X9728454Y2518003D01*
X9728454Y2504389D01*
X9730282Y2490876D01*
X9733838Y2477719D01*
X9739172Y2465171D01*
X9746132Y2453436D01*
X9754565Y2442718D01*
X9764369Y2433218D01*
X9775393Y2425141D01*
X9787331Y2418588D01*
X9800031Y2413711D01*
X9813340Y2410510D01*
G37*
G36*
X7476896Y2641193D02*
G01*
X7490510Y2641650D01*
X7503972Y2643886D01*
X7516977Y2647950D01*
X7529372Y2653690D01*
X7540853Y2661005D01*
X7551267Y2669794D01*
X7560411Y2679954D01*
X7568133Y2691180D01*
X7574280Y2703322D01*
X7578750Y2716225D01*
X7581493Y2729585D01*
X7582408Y2743200D01*
X7581493Y2756814D01*
X7578750Y2770174D01*
X7574280Y2783078D01*
X7568133Y2795219D01*
X7560411Y2806446D01*
X7551267Y2816606D01*
X7540853Y2825394D01*
X7529372Y2832709D01*
X7516977Y2838450D01*
X7503972Y2842514D01*
X7490510Y2844749D01*
X7476896Y2845206D01*
X7463332Y2843885D01*
X7450074Y2840685D01*
X7437323Y2835808D01*
X7425385Y2829255D01*
X7414412Y2821178D01*
X7404608Y2811678D01*
X7396124Y2800959D01*
X7389164Y2789224D01*
X7383881Y2776677D01*
X7380274Y2763520D01*
X7378446Y2750007D01*
X7378446Y2736392D01*
X7380274Y2722880D01*
X7383881Y2709722D01*
X7389164Y2697175D01*
X7396124Y2685440D01*
X7404608Y2674721D01*
X7414412Y2665222D01*
X7425385Y2657144D01*
X7437323Y2650591D01*
X7450074Y2645714D01*
X7463332Y2642514D01*
G37*
G36*
X9826904Y2663190D02*
G01*
X9840518Y2663647D01*
X9853980Y2665882D01*
X9866985Y2669946D01*
X9879380Y2675686D01*
X9890861Y2683002D01*
X9901275Y2691841D01*
X9910419Y2701950D01*
X9918141Y2713177D01*
X9924288Y2725369D01*
X9928758Y2738221D01*
X9931450Y2751582D01*
X9932365Y2765196D01*
X9931450Y2778810D01*
X9928758Y2792171D01*
X9924288Y2805074D01*
X9918141Y2817215D01*
X9910419Y2828442D01*
X9901275Y2838602D01*
X9890861Y2847390D01*
X9879380Y2854706D01*
X9866985Y2860446D01*
X9853980Y2864510D01*
X9840518Y2866796D01*
X9826904Y2867202D01*
X9813340Y2865882D01*
X9800031Y2862681D01*
X9787331Y2857804D01*
X9775393Y2851251D01*
X9768890Y2846476D01*
X9766046Y2845003D01*
X9762896Y2844495D01*
X8951061Y2844495D01*
X8947150Y2845257D01*
X8943848Y2847492D01*
X8765692Y3025648D01*
X8763457Y3028950D01*
X8762695Y3032861D01*
X8762644Y9946741D01*
X8761831Y9955580D01*
X8761425Y9958019D01*
X8759291Y9966655D01*
X8758529Y9968992D01*
X8755126Y9977221D01*
X8754008Y9979406D01*
X8749385Y9987026D01*
X8742324Y9995865D01*
X8457082Y10281158D01*
X8454796Y10284764D01*
X8454136Y10288981D01*
X8455304Y10293146D01*
X8458098Y10296398D01*
X8461959Y10298226D01*
X8466277Y10298277D01*
X8469934Y10297566D01*
X8483600Y10296652D01*
X8497265Y10297566D01*
X8510676Y10300258D01*
X8523630Y10304627D01*
X8535924Y10310672D01*
X8547303Y10318292D01*
X8557564Y10327335D01*
X8566607Y10337596D01*
X8574227Y10348976D01*
X8580272Y10361269D01*
X8584641Y10374223D01*
X8587333Y10387634D01*
X8588248Y10401300D01*
X8587333Y10414965D01*
X8584641Y10428376D01*
X8580272Y10441330D01*
X8574227Y10453624D01*
X8566607Y10465003D01*
X8562035Y10470235D01*
X8560155Y10473334D01*
X8559495Y10476890D01*
X8559495Y10505338D01*
X8560257Y10509250D01*
X8562492Y10512552D01*
X8639048Y10589107D01*
X8642350Y10591342D01*
X8646261Y10592104D01*
X9590938Y10592104D01*
X9594850Y10591342D01*
X9598152Y10589107D01*
X9674707Y10512552D01*
X9676942Y10509250D01*
X9677704Y10505338D01*
X9677704Y10476890D01*
X9677044Y10473334D01*
X9675164Y10470235D01*
X9670592Y10465003D01*
X9662972Y10453624D01*
X9656927Y10441330D01*
X9652558Y10428376D01*
X9649866Y10414965D01*
X9648952Y10401300D01*
X9649866Y10387634D01*
X9652558Y10374223D01*
X9656927Y10361269D01*
X9662972Y10348976D01*
X9670592Y10337596D01*
X9675164Y10332364D01*
X9677044Y10329265D01*
X9677704Y10325709D01*
X9677755Y10093858D01*
X9678568Y10085019D01*
X9678974Y10082580D01*
X9681108Y10073944D01*
X9681870Y10071608D01*
X9685274Y10063378D01*
X9686391Y10061194D01*
X9691014Y10053574D01*
X9698075Y10044734D01*
X9966807Y9775952D01*
X9969042Y9772650D01*
X9969804Y9768738D01*
X9969855Y7401458D01*
X9970668Y7392619D01*
X9971074Y7390180D01*
X9973208Y7381544D01*
X9973970Y7379208D01*
X9977374Y7370978D01*
X9978491Y7368794D01*
X9983114Y7361174D01*
X9990175Y7352334D01*
X10525607Y6816852D01*
X10527842Y6813550D01*
X10528604Y6809638D01*
X10528604Y6108090D01*
X10527944Y6104534D01*
X10526064Y6101435D01*
X10521492Y6096203D01*
X10513872Y6084824D01*
X10507827Y6072530D01*
X10503458Y6059576D01*
X10500766Y6046165D01*
X10499852Y6032500D01*
X10500766Y6018834D01*
X10503458Y6005423D01*
X10507827Y5992469D01*
X10513872Y5980176D01*
X10521492Y5968796D01*
X10530535Y5958535D01*
X10540796Y5949492D01*
X10552176Y5941872D01*
X10564469Y5935827D01*
X10577423Y5931458D01*
X10590834Y5928766D01*
X10604500Y5927852D01*
X10618165Y5928766D01*
X10631576Y5931458D01*
X10644530Y5935827D01*
X10656824Y5941872D01*
X10668203Y5949492D01*
X10673435Y5954064D01*
X10676534Y5955944D01*
X10680090Y5956604D01*
X10949838Y5956604D01*
X10953750Y5955842D01*
X10957052Y5953607D01*
X11026140Y5884519D01*
X11028375Y5881166D01*
X11029086Y5877204D01*
X11028273Y5873292D01*
X11025987Y5869990D01*
X11017656Y5864758D01*
X11013541Y5860643D01*
X11010493Y5855766D01*
X11008563Y5850280D01*
X11007852Y5843981D01*
X11007852Y5687618D01*
X11008563Y5681319D01*
X11010493Y5675833D01*
X11013541Y5670956D01*
X11017656Y5666841D01*
X11022533Y5663793D01*
X11028019Y5661863D01*
X11034318Y5661152D01*
X11190681Y5661152D01*
X11196980Y5661863D01*
X11202466Y5663793D01*
X11207343Y5666841D01*
X11211458Y5670956D01*
X11214506Y5675833D01*
X11216436Y5681319D01*
X11217148Y5687618D01*
X11217148Y5843981D01*
X11216436Y5850280D01*
X11214506Y5855766D01*
X11211458Y5860643D01*
X11207343Y5864758D01*
X11202517Y5867755D01*
X11195405Y5870143D01*
X11191748Y5872276D01*
X11189258Y5875680D01*
X11188395Y5879795D01*
X11188344Y5908141D01*
X11187531Y5916980D01*
X11187125Y5919419D01*
X11184991Y5928055D01*
X11184229Y5930392D01*
X11180826Y5938621D01*
X11179708Y5940806D01*
X11175085Y5948426D01*
X11168024Y5957265D01*
X11037265Y6088024D01*
X11028426Y6095085D01*
X11020806Y6099708D01*
X11018621Y6100826D01*
X11010392Y6104229D01*
X11008055Y6104991D01*
X10999419Y6107125D01*
X10996980Y6107531D01*
X10988141Y6108344D01*
X10690555Y6108395D01*
X10686694Y6109157D01*
X10683392Y6111392D01*
X10681157Y6114694D01*
X10680395Y6118555D01*
X10680344Y6847941D01*
X10679531Y6856780D01*
X10679125Y6859219D01*
X10676991Y6867855D01*
X10676229Y6870192D01*
X10672826Y6878421D01*
X10671708Y6880606D01*
X10667085Y6888225D01*
X10660024Y6897065D01*
X10124592Y7432548D01*
X10122357Y7435850D01*
X10121595Y7439761D01*
X10121544Y9807041D01*
X10120731Y9815880D01*
X10120325Y9818319D01*
X10118191Y9826955D01*
X10117429Y9829292D01*
X10114026Y9837521D01*
X10112908Y9839706D01*
X10108285Y9847326D01*
X10101224Y9856165D01*
X9832492Y10124948D01*
X9830257Y10128250D01*
X9829495Y10132161D01*
X9829495Y10325709D01*
X9830155Y10329265D01*
X9832035Y10332364D01*
X9836607Y10337596D01*
X9844227Y10348976D01*
X9850272Y10361269D01*
X9854641Y10374223D01*
X9857333Y10387634D01*
X9858248Y10401300D01*
X9857333Y10414965D01*
X9854641Y10428376D01*
X9850272Y10441330D01*
X9844227Y10453624D01*
X9836607Y10465003D01*
X9832035Y10470235D01*
X9830155Y10473334D01*
X9829495Y10476890D01*
X9829444Y10543641D01*
X9828631Y10552480D01*
X9828225Y10554919D01*
X9826091Y10563555D01*
X9825329Y10565892D01*
X9821926Y10574121D01*
X9820808Y10576306D01*
X9816185Y10583926D01*
X9809124Y10592765D01*
X9678365Y10723524D01*
X9669526Y10730585D01*
X9661906Y10735208D01*
X9659721Y10736326D01*
X9651492Y10739729D01*
X9649155Y10740491D01*
X9640519Y10742625D01*
X9638080Y10743031D01*
X9629241Y10743844D01*
X8049158Y10743844D01*
X8040319Y10743031D01*
X8037880Y10742625D01*
X8029244Y10740491D01*
X8026908Y10739729D01*
X8018678Y10736326D01*
X8016494Y10735208D01*
X8008874Y10730585D01*
X8000034Y10723524D01*
X7793075Y10516565D01*
X7786014Y10507726D01*
X7781391Y10500106D01*
X7780274Y10497921D01*
X7776870Y10489692D01*
X7776108Y10487355D01*
X7773974Y10478719D01*
X7773568Y10476280D01*
X7772755Y10467441D01*
X7772704Y10144861D01*
X7771942Y10140950D01*
X7769707Y10137648D01*
X7158075Y9525965D01*
X7151014Y9517126D01*
X7146391Y9509506D01*
X7145274Y9507321D01*
X7141870Y9499092D01*
X7141108Y9496755D01*
X7138974Y9488119D01*
X7138568Y9485680D01*
X7137755Y9476841D01*
X7137704Y5877255D01*
X7136942Y5873394D01*
X7134707Y5870092D01*
X7131405Y5867857D01*
X7127544Y5867095D01*
X6902958Y5867095D01*
X6899198Y5867857D01*
X6895947Y5869940D01*
X6893712Y5873089D01*
X6892798Y5876848D01*
X6893356Y5880658D01*
X6895338Y5883960D01*
X6902907Y5892596D01*
X6910527Y5903976D01*
X6916572Y5916269D01*
X6920941Y5929223D01*
X6923633Y5942634D01*
X6924090Y5949594D01*
X6924954Y5953099D01*
X6927037Y5956096D01*
X7015124Y6044234D01*
X7022185Y6053074D01*
X7026808Y6060694D01*
X7027925Y6062878D01*
X7031329Y6071108D01*
X7032091Y6073444D01*
X7034225Y6082080D01*
X7034631Y6084519D01*
X7035444Y6093358D01*
X7035495Y10287304D01*
X7036358Y10291419D01*
X7038848Y10294823D01*
X7042505Y10296956D01*
X7049617Y10299344D01*
X7054443Y10302341D01*
X7058558Y10306456D01*
X7061606Y10311333D01*
X7063536Y10316819D01*
X7064248Y10323118D01*
X7064248Y10479481D01*
X7063536Y10485780D01*
X7061606Y10491266D01*
X7058558Y10496143D01*
X7054443Y10500258D01*
X7049566Y10503306D01*
X7044080Y10505236D01*
X7037781Y10505948D01*
X6881418Y10505948D01*
X6875119Y10505236D01*
X6869633Y10503306D01*
X6864756Y10500258D01*
X6860641Y10496143D01*
X6857593Y10491266D01*
X6855663Y10485780D01*
X6854952Y10479481D01*
X6854952Y10323118D01*
X6855663Y10316819D01*
X6857593Y10311333D01*
X6860641Y10306456D01*
X6864756Y10302341D01*
X6869582Y10299344D01*
X6876694Y10296956D01*
X6880352Y10294823D01*
X6882841Y10291419D01*
X6883704Y10287304D01*
X6883704Y6131661D01*
X6882942Y6127750D01*
X6880707Y6124448D01*
X6819696Y6063437D01*
X6816699Y6061354D01*
X6813194Y6060490D01*
X6806234Y6060033D01*
X6792823Y6057341D01*
X6779869Y6052972D01*
X6767575Y6046927D01*
X6756196Y6039307D01*
X6745935Y6030264D01*
X6736892Y6020003D01*
X6729272Y6008624D01*
X6723227Y5996330D01*
X6718858Y5983376D01*
X6716166Y5969965D01*
X6715252Y5956300D01*
X6716166Y5942634D01*
X6718858Y5929223D01*
X6723227Y5916269D01*
X6729272Y5903976D01*
X6736892Y5892596D01*
X6744462Y5883960D01*
X6746443Y5880658D01*
X6747002Y5876848D01*
X6746087Y5873089D01*
X6743852Y5869940D01*
X6740601Y5867857D01*
X6736842Y5867095D01*
X5928461Y5867095D01*
X5924550Y5867857D01*
X5921248Y5870092D01*
X3177692Y8613648D01*
X3175457Y8616950D01*
X3174695Y8620861D01*
X3174695Y9784994D01*
X3175660Y9789261D01*
X3178251Y9792766D01*
X3182112Y9794798D01*
X3187395Y9796272D01*
X3195421Y9799574D01*
X3197606Y9800691D01*
X3205226Y9805314D01*
X3214065Y9812375D01*
X3380841Y9979101D01*
X3384143Y9981285D01*
X3388055Y9982047D01*
X3514140Y9982047D01*
X3520490Y9982809D01*
X3525926Y9984689D01*
X3530854Y9987788D01*
X3534918Y9991852D01*
X3538016Y9996779D01*
X3539896Y10002215D01*
X3540658Y10008565D01*
X3540658Y10159034D01*
X3539896Y10165384D01*
X3538016Y10170820D01*
X3534918Y10175748D01*
X3530854Y10179812D01*
X3525926Y10182910D01*
X3520490Y10184790D01*
X3514140Y10185501D01*
X3464255Y10185501D01*
X3460394Y10186314D01*
X3457092Y10188498D01*
X3454857Y10191800D01*
X3454095Y10195661D01*
X3454095Y10461244D01*
X3454400Y10463733D01*
X3456025Y10467340D01*
X3460292Y10478770D01*
X3462883Y10490708D01*
X3463747Y10502900D01*
X3462883Y10515092D01*
X3460292Y10527030D01*
X3456025Y10538460D01*
X3450183Y10549178D01*
X3442868Y10558932D01*
X3434232Y10567568D01*
X3424478Y10574883D01*
X3413760Y10580725D01*
X3402329Y10584992D01*
X3390392Y10587583D01*
X3378200Y10588447D01*
X3366008Y10587583D01*
X3354070Y10584992D01*
X3342640Y10580725D01*
X3331921Y10574883D01*
X3322167Y10567568D01*
X3313531Y10558932D01*
X3306216Y10549178D01*
X3300374Y10538460D01*
X3296107Y10527030D01*
X3293516Y10515092D01*
X3292652Y10502900D01*
X3293516Y10490708D01*
X3296107Y10478770D01*
X3300374Y10467340D01*
X3302000Y10463733D01*
X3302304Y10461244D01*
X3302304Y10195661D01*
X3301542Y10191800D01*
X3299307Y10188498D01*
X3296005Y10186314D01*
X3292144Y10185501D01*
X3242259Y10185501D01*
X3235909Y10184790D01*
X3230473Y10182910D01*
X3225546Y10179812D01*
X3221482Y10175748D01*
X3218383Y10170820D01*
X3216503Y10165384D01*
X3215792Y10159034D01*
X3215792Y10032949D01*
X3214979Y10029037D01*
X3212795Y10025735D01*
X3133852Y9946792D01*
X3130550Y9944557D01*
X3126638Y9943795D01*
X3099003Y9943795D01*
X3093110Y9943592D01*
X3087471Y9942931D01*
X3081934Y9941915D01*
X3076448Y9940442D01*
X3071063Y9938562D01*
X3065881Y9936276D01*
X3060852Y9933635D01*
X3056026Y9930587D01*
X3051454Y9927234D01*
X3047187Y9923526D01*
X3043174Y9919512D01*
X3039465Y9915245D01*
X3036112Y9910673D01*
X3033064Y9905847D01*
X3030423Y9900818D01*
X3028137Y9895636D01*
X3026257Y9890252D01*
X3024784Y9884765D01*
X3023768Y9879228D01*
X3023108Y9873589D01*
X3022904Y9867696D01*
X3022955Y8582558D01*
X3023768Y8573719D01*
X3024174Y8571280D01*
X3026308Y8562644D01*
X3027070Y8560308D01*
X3030474Y8552078D01*
X3031591Y8549894D01*
X3036214Y8542274D01*
X3043275Y8533434D01*
X5841034Y5735675D01*
X5849874Y5728614D01*
X5857494Y5723991D01*
X5859678Y5722874D01*
X5867908Y5719470D01*
X5870244Y5718708D01*
X5878880Y5716574D01*
X5881319Y5716168D01*
X5890158Y5715355D01*
X7408265Y5715304D01*
X7411466Y5714796D01*
X7414310Y5713323D01*
X7425385Y5705144D01*
X7437323Y5698591D01*
X7450074Y5693714D01*
X7463332Y5690514D01*
X7476896Y5689193D01*
X7490510Y5689650D01*
X7503972Y5691886D01*
X7516977Y5695950D01*
X7529372Y5701690D01*
X7540853Y5709005D01*
X7551267Y5717794D01*
X7560411Y5727954D01*
X7568133Y5739180D01*
X7574280Y5751322D01*
X7578750Y5764225D01*
X7581493Y5777585D01*
X7582408Y5791200D01*
X7581493Y5804814D01*
X7578750Y5818174D01*
X7574280Y5831078D01*
X7568133Y5843219D01*
X7560411Y5854446D01*
X7551267Y5864606D01*
X7540853Y5873394D01*
X7529372Y5880709D01*
X7516977Y5886450D01*
X7503972Y5890514D01*
X7490510Y5892749D01*
X7476896Y5893206D01*
X7463332Y5891885D01*
X7450074Y5888685D01*
X7437323Y5883808D01*
X7425385Y5877255D01*
X7414310Y5869076D01*
X7411466Y5867603D01*
X7408265Y5867095D01*
X7299655Y5867095D01*
X7295794Y5867857D01*
X7292492Y5870092D01*
X7290257Y5873394D01*
X7289495Y5877255D01*
X7289495Y9438538D01*
X7290257Y9442450D01*
X7292492Y9445752D01*
X7904124Y10057434D01*
X7911185Y10066274D01*
X7915808Y10073894D01*
X7916925Y10076078D01*
X7920329Y10084308D01*
X7921091Y10086644D01*
X7923225Y10095280D01*
X7923631Y10097719D01*
X7924444Y10106558D01*
X7924495Y10429138D01*
X7925257Y10433050D01*
X7927492Y10436352D01*
X8080248Y10589107D01*
X8083550Y10591342D01*
X8087461Y10592104D01*
X8407958Y10592104D01*
X8412022Y10591241D01*
X8415426Y10588853D01*
X8417560Y10585297D01*
X8418068Y10581182D01*
X8416950Y10577169D01*
X8415274Y10574020D01*
X8411870Y10565892D01*
X8411108Y10563555D01*
X8408974Y10554919D01*
X8408568Y10552480D01*
X8407755Y10543641D01*
X8407704Y10476890D01*
X8407044Y10473334D01*
X8405164Y10470235D01*
X8400592Y10465003D01*
X8392972Y10453624D01*
X8386927Y10441330D01*
X8382558Y10428376D01*
X8379866Y10414965D01*
X8378952Y10401300D01*
X8379866Y10387634D01*
X8380577Y10383977D01*
X8380526Y10379659D01*
X8378698Y10375798D01*
X8375446Y10373004D01*
X8371281Y10371836D01*
X8367064Y10372496D01*
X8363458Y10374782D01*
X8337245Y10401046D01*
X8335009Y10404297D01*
X8334248Y10408208D01*
X8334248Y10479481D01*
X8333536Y10485780D01*
X8331606Y10491266D01*
X8328558Y10496143D01*
X8324443Y10500258D01*
X8319566Y10503306D01*
X8314080Y10505236D01*
X8307781Y10505948D01*
X8151418Y10505948D01*
X8145119Y10505236D01*
X8139633Y10503306D01*
X8134756Y10500258D01*
X8130641Y10496143D01*
X8127593Y10491266D01*
X8125663Y10485780D01*
X8124952Y10479481D01*
X8124952Y10323118D01*
X8125663Y10316819D01*
X8127593Y10311333D01*
X8130641Y10306456D01*
X8134756Y10302341D01*
X8139633Y10299293D01*
X8145119Y10297363D01*
X8151418Y10296652D01*
X8222691Y10296652D01*
X8226602Y10295890D01*
X8229853Y10293654D01*
X8607907Y9915652D01*
X8610142Y9912350D01*
X8610904Y9908438D01*
X8610955Y2994558D01*
X8611768Y2985719D01*
X8612174Y2983280D01*
X8614308Y2974644D01*
X8615070Y2972308D01*
X8618474Y2964078D01*
X8619591Y2961894D01*
X8624214Y2954274D01*
X8631275Y2945434D01*
X8863634Y2713075D01*
X8872474Y2706014D01*
X8880094Y2701391D01*
X8882278Y2700274D01*
X8890508Y2696870D01*
X8892844Y2696108D01*
X8901480Y2693974D01*
X8903919Y2693568D01*
X8912758Y2692755D01*
X9754666Y2692704D01*
X9758476Y2691942D01*
X9761728Y2689860D01*
X9764369Y2687218D01*
X9775393Y2679141D01*
X9787331Y2672588D01*
X9800031Y2667711D01*
X9813340Y2664510D01*
G37*
G36*
X7476896Y2895193D02*
G01*
X7490510Y2895650D01*
X7503972Y2897886D01*
X7516977Y2901950D01*
X7529372Y2907690D01*
X7540853Y2915005D01*
X7551267Y2923794D01*
X7560411Y2933954D01*
X7568133Y2945180D01*
X7574280Y2957322D01*
X7578750Y2970225D01*
X7581493Y2983585D01*
X7582408Y2997200D01*
X7581493Y3010814D01*
X7578750Y3024174D01*
X7574280Y3037078D01*
X7568133Y3049219D01*
X7560411Y3060446D01*
X7551267Y3070606D01*
X7540853Y3079394D01*
X7529372Y3086709D01*
X7516977Y3092450D01*
X7503972Y3096514D01*
X7490510Y3098749D01*
X7476896Y3099206D01*
X7463332Y3097885D01*
X7450074Y3094685D01*
X7437323Y3089808D01*
X7425385Y3083255D01*
X7414412Y3075178D01*
X7404608Y3065678D01*
X7396124Y3054959D01*
X7389164Y3043224D01*
X7383881Y3030677D01*
X7380274Y3017520D01*
X7378446Y3004007D01*
X7378446Y2990392D01*
X7380274Y2976880D01*
X7383881Y2963722D01*
X7389164Y2951175D01*
X7396124Y2939440D01*
X7404608Y2928721D01*
X7414412Y2919222D01*
X7425385Y2911144D01*
X7437323Y2904591D01*
X7450074Y2899714D01*
X7463332Y2896514D01*
G37*
G36*
X9826904Y2917190D02*
G01*
X9840518Y2917647D01*
X9853980Y2919882D01*
X9866985Y2923946D01*
X9879380Y2929686D01*
X9890861Y2937002D01*
X9901275Y2945841D01*
X9910419Y2955950D01*
X9918141Y2967177D01*
X9924288Y2979369D01*
X9928758Y2992221D01*
X9931450Y3005582D01*
X9932365Y3019196D01*
X9931450Y3032810D01*
X9928758Y3046171D01*
X9924288Y3059074D01*
X9918141Y3071215D01*
X9910419Y3082442D01*
X9901275Y3092602D01*
X9890861Y3101390D01*
X9879380Y3108706D01*
X9866985Y3114446D01*
X9853980Y3118510D01*
X9840518Y3120796D01*
X9826904Y3121202D01*
X9813340Y3119882D01*
X9800031Y3116681D01*
X9787331Y3111804D01*
X9775393Y3105251D01*
X9768890Y3100476D01*
X9766046Y3099003D01*
X9762896Y3098495D01*
X9217761Y3098495D01*
X9213850Y3099257D01*
X9210548Y3101492D01*
X9045092Y3266948D01*
X9042857Y3270250D01*
X9042095Y3274161D01*
X9042095Y9667138D01*
X9042857Y9671050D01*
X9045092Y9674352D01*
X9555124Y10184434D01*
X9562185Y10193274D01*
X9566808Y10200894D01*
X9567926Y10203078D01*
X9571329Y10211308D01*
X9572091Y10213644D01*
X9574225Y10222280D01*
X9574631Y10224719D01*
X9575444Y10233558D01*
X9575495Y10287304D01*
X9576358Y10291419D01*
X9578848Y10294823D01*
X9582505Y10296956D01*
X9589617Y10299344D01*
X9594443Y10302341D01*
X9598558Y10306456D01*
X9601606Y10311333D01*
X9603536Y10316819D01*
X9604248Y10323118D01*
X9604248Y10479481D01*
X9603536Y10485780D01*
X9601606Y10491266D01*
X9598558Y10496143D01*
X9594443Y10500258D01*
X9589566Y10503306D01*
X9584080Y10505236D01*
X9577781Y10505948D01*
X9421418Y10505948D01*
X9415119Y10505236D01*
X9409633Y10503306D01*
X9404756Y10500258D01*
X9400641Y10496143D01*
X9397593Y10491266D01*
X9395663Y10485780D01*
X9394952Y10479481D01*
X9394952Y10323118D01*
X9395663Y10316819D01*
X9397593Y10311333D01*
X9400641Y10306456D01*
X9404756Y10302341D01*
X9409582Y10299344D01*
X9416694Y10296956D01*
X9420352Y10294823D01*
X9422841Y10291419D01*
X9423704Y10287304D01*
X9423704Y10271861D01*
X9422942Y10267950D01*
X9420707Y10264648D01*
X8910675Y9754565D01*
X8903614Y9745726D01*
X8898991Y9738106D01*
X8897874Y9735921D01*
X8894470Y9727692D01*
X8893708Y9725355D01*
X8891574Y9716719D01*
X8891168Y9714280D01*
X8890355Y9705441D01*
X8890355Y3235858D01*
X8891168Y3227019D01*
X8891574Y3224580D01*
X8893708Y3215944D01*
X8894470Y3213608D01*
X8897874Y3205378D01*
X8898991Y3203194D01*
X8903614Y3195574D01*
X8910675Y3186734D01*
X9130334Y2967075D01*
X9139174Y2960014D01*
X9146794Y2955391D01*
X9148978Y2954274D01*
X9157208Y2950870D01*
X9159544Y2950108D01*
X9168180Y2947974D01*
X9170619Y2947568D01*
X9179458Y2946755D01*
X9754666Y2946704D01*
X9758476Y2945942D01*
X9761728Y2943860D01*
X9764369Y2941218D01*
X9775393Y2933141D01*
X9787331Y2926588D01*
X9800031Y2921711D01*
X9813340Y2918510D01*
G37*
G36*
X11617807Y3166719D02*
G01*
X11632184Y3166719D01*
X11646509Y3168548D01*
X11660479Y3172104D01*
X11673890Y3177438D01*
X11686489Y3184398D01*
X11698173Y3192830D01*
X11708688Y3202736D01*
X11717883Y3213811D01*
X11725605Y3226003D01*
X11731701Y3239058D01*
X11736171Y3252774D01*
X11738864Y3266897D01*
X11739778Y3281273D01*
X11738864Y3295700D01*
X11736171Y3309823D01*
X11731701Y3323539D01*
X11725605Y3336594D01*
X11717883Y3348786D01*
X11708688Y3359861D01*
X11698173Y3369767D01*
X11686489Y3378200D01*
X11673890Y3385159D01*
X11660479Y3390493D01*
X11646509Y3394049D01*
X11632184Y3395878D01*
X11617807Y3395878D01*
X11603482Y3394049D01*
X11589512Y3390493D01*
X11576100Y3385159D01*
X11563502Y3378200D01*
X11551818Y3369767D01*
X11541302Y3359861D01*
X11535460Y3352800D01*
X11531955Y3350056D01*
X11527637Y3349091D01*
X9901986Y3349091D01*
X9898532Y3349701D01*
X9895433Y3351529D01*
X9890861Y3355390D01*
X9879380Y3362706D01*
X9866985Y3368446D01*
X9853980Y3372510D01*
X9840518Y3374796D01*
X9826904Y3375202D01*
X9813340Y3373882D01*
X9800031Y3370681D01*
X9787331Y3365804D01*
X9775393Y3359251D01*
X9764369Y3351174D01*
X9754565Y3341674D01*
X9746132Y3330956D01*
X9739172Y3319221D01*
X9733838Y3306673D01*
X9730282Y3293516D01*
X9728454Y3280003D01*
X9728454Y3266389D01*
X9730282Y3252876D01*
X9733838Y3239719D01*
X9739172Y3227171D01*
X9746132Y3215436D01*
X9754565Y3204718D01*
X9764369Y3195218D01*
X9775393Y3187141D01*
X9787331Y3180588D01*
X9800031Y3175711D01*
X9813340Y3172510D01*
X9826904Y3171190D01*
X9840518Y3171647D01*
X9853980Y3173882D01*
X9866985Y3177946D01*
X9879380Y3183686D01*
X9890861Y3191002D01*
X9895433Y3194862D01*
X9898481Y3196691D01*
X9901986Y3197301D01*
X11543080Y3197301D01*
X11546840Y3196590D01*
X11550040Y3194558D01*
X11551818Y3192830D01*
X11563502Y3184398D01*
X11576100Y3177438D01*
X11589512Y3172104D01*
X11603482Y3168548D01*
G37*
G36*
X2347518Y3394303D02*
G01*
X2503881Y3394303D01*
X2510180Y3395014D01*
X2515666Y3396894D01*
X2520543Y3399993D01*
X2524658Y3404108D01*
X2527706Y3408984D01*
X2529636Y3414471D01*
X2530297Y3420262D01*
X2531364Y3423818D01*
X2533599Y3426714D01*
X2536748Y3428644D01*
X2540406Y3429304D01*
X3482187Y3429304D01*
X3485946Y3428593D01*
X3489147Y3426561D01*
X3491026Y3424732D01*
X3502710Y3416300D01*
X3515309Y3409340D01*
X3528720Y3404006D01*
X3542690Y3400450D01*
X3557015Y3398621D01*
X3571392Y3398621D01*
X3585718Y3400450D01*
X3599687Y3404006D01*
X3613099Y3409340D01*
X3625697Y3416300D01*
X3637381Y3424732D01*
X3647897Y3434638D01*
X3657092Y3445713D01*
X3664813Y3457905D01*
X3670909Y3470960D01*
X3675379Y3484676D01*
X3678072Y3498799D01*
X3678986Y3513175D01*
X3678072Y3527602D01*
X3675379Y3541725D01*
X3670909Y3555441D01*
X3664813Y3568496D01*
X3657092Y3580688D01*
X3647897Y3591763D01*
X3637381Y3601669D01*
X3625697Y3610101D01*
X3613099Y3617061D01*
X3599687Y3622395D01*
X3585718Y3625951D01*
X3571392Y3627780D01*
X3557015Y3627780D01*
X3542690Y3625951D01*
X3528720Y3622395D01*
X3515309Y3617061D01*
X3502710Y3610101D01*
X3491026Y3601669D01*
X3480511Y3591763D01*
X3474770Y3584803D01*
X3471265Y3582060D01*
X3466896Y3581095D01*
X2540406Y3581095D01*
X2536748Y3581755D01*
X2533599Y3583686D01*
X2531364Y3586581D01*
X2530297Y3590137D01*
X2529636Y3595928D01*
X2527706Y3601415D01*
X2524658Y3606292D01*
X2520543Y3610406D01*
X2515666Y3613505D01*
X2510180Y3615385D01*
X2503881Y3616096D01*
X2347518Y3616096D01*
X2341219Y3615385D01*
X2335733Y3613505D01*
X2330856Y3610406D01*
X2326741Y3606292D01*
X2323693Y3601415D01*
X2321763Y3595928D01*
X2321052Y3589629D01*
X2321052Y3420770D01*
X2321763Y3414471D01*
X2323693Y3408984D01*
X2326741Y3404108D01*
X2330856Y3399993D01*
X2335733Y3396894D01*
X2341219Y3395014D01*
G37*
G36*
X5081016Y3398621D02*
G01*
X5095392Y3398621D01*
X5109718Y3400450D01*
X5123688Y3404006D01*
X5137099Y3409340D01*
X5149697Y3416300D01*
X5161381Y3424732D01*
X5171795Y3434537D01*
X5174996Y3436569D01*
X5178755Y3437280D01*
X7399883Y3437280D01*
X7403693Y3436569D01*
X7406944Y3434435D01*
X7414412Y3427222D01*
X7425385Y3419144D01*
X7437323Y3412591D01*
X7450074Y3407714D01*
X7463332Y3404514D01*
X7476896Y3403193D01*
X7490510Y3403650D01*
X7503972Y3405886D01*
X7516977Y3409950D01*
X7529372Y3415690D01*
X7540853Y3423005D01*
X7551267Y3431794D01*
X7560411Y3441954D01*
X7568133Y3453180D01*
X7574280Y3465322D01*
X7578750Y3478225D01*
X7581493Y3491585D01*
X7582408Y3505200D01*
X7581493Y3518814D01*
X7578750Y3532174D01*
X7574280Y3545078D01*
X7568133Y3557219D01*
X7560411Y3568446D01*
X7551267Y3578606D01*
X7540853Y3587394D01*
X7529372Y3594709D01*
X7516977Y3600450D01*
X7503972Y3604514D01*
X7490510Y3606749D01*
X7476896Y3607206D01*
X7463332Y3605885D01*
X7450074Y3602685D01*
X7437323Y3597808D01*
X7422286Y3589629D01*
X7419136Y3589121D01*
X5178755Y3589121D01*
X5174996Y3589832D01*
X5171795Y3591864D01*
X5161381Y3601669D01*
X5149697Y3610101D01*
X5137099Y3617061D01*
X5123688Y3622395D01*
X5109718Y3625951D01*
X5095392Y3627780D01*
X5081016Y3627780D01*
X5066690Y3625951D01*
X5052720Y3622395D01*
X5039309Y3617061D01*
X5026710Y3610101D01*
X5015026Y3601669D01*
X5004511Y3591763D01*
X4995316Y3580688D01*
X4987594Y3568496D01*
X4981498Y3555441D01*
X4977028Y3541725D01*
X4974336Y3527602D01*
X4973421Y3513175D01*
X4974336Y3498799D01*
X4977028Y3484676D01*
X4981498Y3470960D01*
X4987594Y3457905D01*
X4995316Y3445713D01*
X5004511Y3434638D01*
X5015026Y3424732D01*
X5026710Y3416300D01*
X5039309Y3409340D01*
X5052720Y3404006D01*
X5066690Y3400450D01*
G37*
G36*
X11617807Y3420719D02*
G01*
X11632184Y3420719D01*
X11646509Y3422548D01*
X11660479Y3426104D01*
X11673890Y3431438D01*
X11686489Y3438398D01*
X11698173Y3446830D01*
X11708688Y3456736D01*
X11717883Y3467811D01*
X11725605Y3480003D01*
X11731701Y3493058D01*
X11736171Y3506774D01*
X11738864Y3520897D01*
X11739778Y3535273D01*
X11738864Y3549700D01*
X11736171Y3563823D01*
X11731701Y3577539D01*
X11725605Y3590594D01*
X11717883Y3602786D01*
X11708688Y3613861D01*
X11698173Y3623767D01*
X11686489Y3632200D01*
X11673890Y3639159D01*
X11660479Y3644493D01*
X11646509Y3648049D01*
X11632184Y3649878D01*
X11617807Y3649878D01*
X11603482Y3648049D01*
X11589512Y3644493D01*
X11576100Y3639159D01*
X11563502Y3632200D01*
X11551818Y3623767D01*
X11541302Y3613861D01*
X11535460Y3606800D01*
X11531955Y3604056D01*
X11527637Y3603091D01*
X9901986Y3603091D01*
X9898532Y3603701D01*
X9895433Y3605529D01*
X9890861Y3609390D01*
X9879380Y3616706D01*
X9866985Y3622446D01*
X9853980Y3626510D01*
X9840518Y3628796D01*
X9826904Y3629202D01*
X9813340Y3627882D01*
X9800031Y3624681D01*
X9787331Y3619804D01*
X9775393Y3613251D01*
X9764369Y3605174D01*
X9754565Y3595674D01*
X9746132Y3584956D01*
X9739172Y3573221D01*
X9733838Y3560673D01*
X9730282Y3547516D01*
X9728454Y3534003D01*
X9728454Y3520389D01*
X9730282Y3506876D01*
X9733838Y3493719D01*
X9739172Y3481171D01*
X9746132Y3469436D01*
X9754565Y3458718D01*
X9764369Y3449218D01*
X9775393Y3441141D01*
X9787331Y3434587D01*
X9800031Y3429711D01*
X9813340Y3426510D01*
X9826904Y3425190D01*
X9840518Y3425647D01*
X9853980Y3427882D01*
X9866985Y3431946D01*
X9879380Y3437686D01*
X9890861Y3445001D01*
X9895433Y3448862D01*
X9898481Y3450691D01*
X9901986Y3451301D01*
X11543080Y3451301D01*
X11546840Y3450590D01*
X11550040Y3448558D01*
X11551818Y3446830D01*
X11563502Y3438398D01*
X11576100Y3431438D01*
X11589512Y3426104D01*
X11603482Y3422548D01*
G37*
G36*
X2418588Y3648557D02*
G01*
X2432812Y3648557D01*
X2446883Y3650335D01*
X2460650Y3653942D01*
X2473807Y3659276D01*
X2486202Y3666286D01*
X2497582Y3674770D01*
X2503424Y3680409D01*
X2506675Y3682542D01*
X2510485Y3683304D01*
X3482187Y3683304D01*
X3485946Y3682593D01*
X3489147Y3680561D01*
X3491026Y3678732D01*
X3502710Y3670300D01*
X3515309Y3663340D01*
X3528720Y3658006D01*
X3542690Y3654450D01*
X3557015Y3652621D01*
X3571392Y3652621D01*
X3585718Y3654450D01*
X3599687Y3658006D01*
X3613099Y3663340D01*
X3625697Y3670300D01*
X3637381Y3678732D01*
X3647897Y3688638D01*
X3657092Y3699713D01*
X3664813Y3711905D01*
X3670909Y3724960D01*
X3675379Y3738676D01*
X3678072Y3752799D01*
X3678986Y3767175D01*
X3678072Y3781602D01*
X3675379Y3795725D01*
X3670909Y3809441D01*
X3664813Y3822496D01*
X3657092Y3834688D01*
X3647897Y3845763D01*
X3637381Y3855669D01*
X3625697Y3864101D01*
X3613099Y3871061D01*
X3599687Y3876395D01*
X3585718Y3879951D01*
X3571392Y3881780D01*
X3557015Y3881780D01*
X3542690Y3879951D01*
X3528720Y3876395D01*
X3515309Y3871061D01*
X3502710Y3864101D01*
X3491026Y3855669D01*
X3480511Y3845763D01*
X3474770Y3838803D01*
X3471265Y3836060D01*
X3466896Y3835095D01*
X2510739Y3835095D01*
X2506624Y3835958D01*
X2502865Y3838854D01*
X2492044Y3848049D01*
X2480106Y3855821D01*
X2467305Y3861968D01*
X2453843Y3866438D01*
X2439873Y3869182D01*
X2425700Y3870096D01*
X2411526Y3869182D01*
X2397556Y3866438D01*
X2384094Y3861968D01*
X2371293Y3855821D01*
X2359355Y3848049D01*
X2348534Y3838854D01*
X2338984Y3828338D01*
X2330856Y3816705D01*
X2324303Y3804107D01*
X2319375Y3790746D01*
X2316226Y3776878D01*
X2314854Y3762756D01*
X2315311Y3748532D01*
X2317597Y3734511D01*
X2321661Y3720896D01*
X2327402Y3707892D01*
X2334768Y3695750D01*
X2343607Y3684625D01*
X2353818Y3674770D01*
X2365197Y3666286D01*
X2377592Y3659276D01*
X2390749Y3653942D01*
X2404516Y3650335D01*
G37*
G36*
X5081016Y3652621D02*
G01*
X5095392Y3652621D01*
X5109718Y3654450D01*
X5123688Y3658006D01*
X5137099Y3663340D01*
X5149697Y3670300D01*
X5161381Y3678732D01*
X5171795Y3688537D01*
X5174996Y3690569D01*
X5178755Y3691280D01*
X7399883Y3691280D01*
X7403693Y3690569D01*
X7406944Y3688435D01*
X7414412Y3681222D01*
X7425385Y3673144D01*
X7437323Y3666591D01*
X7450074Y3661714D01*
X7463332Y3658514D01*
X7476896Y3657193D01*
X7490510Y3657650D01*
X7503972Y3659886D01*
X7516977Y3663950D01*
X7529372Y3669690D01*
X7540853Y3677005D01*
X7551267Y3685794D01*
X7560411Y3695954D01*
X7568133Y3707180D01*
X7574280Y3719322D01*
X7578750Y3732225D01*
X7581493Y3745585D01*
X7582408Y3759200D01*
X7581493Y3772814D01*
X7578750Y3786174D01*
X7574280Y3799078D01*
X7568133Y3811219D01*
X7560411Y3822446D01*
X7551267Y3832606D01*
X7540853Y3841394D01*
X7529372Y3848709D01*
X7516977Y3854450D01*
X7503972Y3858514D01*
X7490510Y3860749D01*
X7476896Y3861206D01*
X7463332Y3859885D01*
X7450074Y3856685D01*
X7437323Y3851808D01*
X7422286Y3843629D01*
X7419136Y3843121D01*
X5178755Y3843121D01*
X5174996Y3843832D01*
X5171795Y3845864D01*
X5161381Y3855669D01*
X5149697Y3864101D01*
X5137099Y3871061D01*
X5123688Y3876395D01*
X5109718Y3879951D01*
X5095392Y3881780D01*
X5081016Y3881780D01*
X5066690Y3879951D01*
X5052720Y3876395D01*
X5039309Y3871061D01*
X5026710Y3864101D01*
X5015026Y3855669D01*
X5004511Y3845763D01*
X4995316Y3834688D01*
X4987594Y3822496D01*
X4981498Y3809441D01*
X4977028Y3795725D01*
X4974336Y3781602D01*
X4973421Y3767175D01*
X4974336Y3752799D01*
X4977028Y3738676D01*
X4981498Y3724960D01*
X4987594Y3711905D01*
X4995316Y3699713D01*
X5004511Y3688638D01*
X5015026Y3678732D01*
X5026710Y3670300D01*
X5039309Y3663340D01*
X5052720Y3658006D01*
X5066690Y3654450D01*
G37*
G36*
X11617807Y3674719D02*
G01*
X11632184Y3674719D01*
X11646509Y3676548D01*
X11660479Y3680104D01*
X11673890Y3685438D01*
X11686489Y3692398D01*
X11698173Y3700830D01*
X11708688Y3710736D01*
X11717883Y3721811D01*
X11725605Y3734003D01*
X11731701Y3747058D01*
X11736171Y3760774D01*
X11738864Y3774897D01*
X11739778Y3789273D01*
X11738864Y3803700D01*
X11736171Y3817823D01*
X11731701Y3831539D01*
X11725605Y3844594D01*
X11717883Y3856786D01*
X11708688Y3867861D01*
X11698173Y3877767D01*
X11686489Y3886200D01*
X11673890Y3893159D01*
X11660479Y3898493D01*
X11646509Y3902049D01*
X11632184Y3903878D01*
X11617807Y3903878D01*
X11603482Y3902049D01*
X11589512Y3898493D01*
X11576100Y3893159D01*
X11563502Y3886200D01*
X11551818Y3877767D01*
X11541302Y3867861D01*
X11535460Y3860800D01*
X11531955Y3858056D01*
X11527637Y3857091D01*
X9901986Y3857091D01*
X9898532Y3857701D01*
X9895433Y3859529D01*
X9890861Y3863390D01*
X9879380Y3870706D01*
X9866985Y3876446D01*
X9853980Y3880510D01*
X9840518Y3882796D01*
X9826904Y3883202D01*
X9813340Y3881882D01*
X9800031Y3878681D01*
X9787331Y3873804D01*
X9775393Y3867251D01*
X9764369Y3859174D01*
X9754565Y3849674D01*
X9746132Y3838956D01*
X9739172Y3827221D01*
X9733838Y3814673D01*
X9730282Y3801516D01*
X9728454Y3788003D01*
X9728454Y3774389D01*
X9730282Y3760876D01*
X9733838Y3747719D01*
X9739172Y3735171D01*
X9746132Y3723436D01*
X9754565Y3712718D01*
X9764369Y3703218D01*
X9775393Y3695141D01*
X9787331Y3688587D01*
X9800031Y3683711D01*
X9813340Y3680510D01*
X9826904Y3679190D01*
X9840518Y3679647D01*
X9853980Y3681882D01*
X9866985Y3685946D01*
X9879380Y3691686D01*
X9890861Y3699001D01*
X9895433Y3702862D01*
X9898481Y3704691D01*
X9901986Y3705301D01*
X11543080Y3705301D01*
X11546840Y3704590D01*
X11550040Y3702558D01*
X11551818Y3700830D01*
X11563502Y3692398D01*
X11576100Y3685438D01*
X11589512Y3680104D01*
X11603482Y3676548D01*
G37*
G36*
X3557015Y3906621D02*
G01*
X3571392Y3906621D01*
X3585718Y3908450D01*
X3599687Y3912006D01*
X3613099Y3917340D01*
X3625697Y3924300D01*
X3637381Y3932732D01*
X3647897Y3942638D01*
X3657092Y3953713D01*
X3664813Y3965905D01*
X3670909Y3978960D01*
X3675379Y3992676D01*
X3678072Y4006799D01*
X3678986Y4021175D01*
X3678072Y4035602D01*
X3675379Y4049725D01*
X3670909Y4063441D01*
X3664813Y4076496D01*
X3657092Y4088688D01*
X3647897Y4099763D01*
X3637381Y4109669D01*
X3625697Y4118101D01*
X3613099Y4125061D01*
X3599687Y4130395D01*
X3585718Y4133951D01*
X3571392Y4135780D01*
X3557015Y4135780D01*
X3542690Y4133951D01*
X3528720Y4130395D01*
X3515309Y4125061D01*
X3502710Y4118101D01*
X3491026Y4109669D01*
X3485642Y4104538D01*
X3482390Y4102506D01*
X3478682Y4101795D01*
X2540406Y4101795D01*
X2536748Y4102455D01*
X2533599Y4104386D01*
X2531364Y4107281D01*
X2530297Y4110837D01*
X2529636Y4116628D01*
X2527706Y4122115D01*
X2524658Y4126992D01*
X2520543Y4131106D01*
X2515666Y4134205D01*
X2510180Y4136085D01*
X2503881Y4136796D01*
X2347518Y4136796D01*
X2341219Y4136085D01*
X2335733Y4134205D01*
X2330856Y4131106D01*
X2326741Y4126992D01*
X2323693Y4122115D01*
X2321763Y4116628D01*
X2321052Y4110329D01*
X2321052Y3941470D01*
X2321763Y3935171D01*
X2323693Y3929684D01*
X2326741Y3924808D01*
X2330856Y3920693D01*
X2335733Y3917594D01*
X2341219Y3915714D01*
X2347518Y3915003D01*
X2503881Y3915003D01*
X2510180Y3915714D01*
X2515666Y3917594D01*
X2520543Y3920693D01*
X2524658Y3924808D01*
X2527706Y3929684D01*
X2529636Y3935171D01*
X2530297Y3940962D01*
X2531364Y3944518D01*
X2533599Y3947414D01*
X2536748Y3949344D01*
X2540406Y3950004D01*
X3469640Y3950004D01*
X3473958Y3949039D01*
X3477463Y3946296D01*
X3480511Y3942638D01*
X3491026Y3932732D01*
X3502710Y3924300D01*
X3515309Y3917340D01*
X3528720Y3912006D01*
X3542690Y3908450D01*
G37*
G36*
X5081016Y3906621D02*
G01*
X5095392Y3906621D01*
X5109718Y3908450D01*
X5123688Y3912006D01*
X5137099Y3917340D01*
X5149697Y3924300D01*
X5161381Y3932732D01*
X5171795Y3942537D01*
X5174996Y3944569D01*
X5178755Y3945280D01*
X7399883Y3945280D01*
X7403693Y3944569D01*
X7406944Y3942435D01*
X7414412Y3935222D01*
X7425385Y3927144D01*
X7437323Y3920591D01*
X7450074Y3915714D01*
X7463332Y3912514D01*
X7476896Y3911193D01*
X7490510Y3911650D01*
X7503972Y3913886D01*
X7516977Y3917950D01*
X7529372Y3923690D01*
X7540853Y3931005D01*
X7551267Y3939794D01*
X7560411Y3949954D01*
X7568133Y3961180D01*
X7574280Y3973322D01*
X7578750Y3986225D01*
X7581493Y3999585D01*
X7582408Y4013200D01*
X7581493Y4026814D01*
X7578750Y4040174D01*
X7574280Y4053078D01*
X7568133Y4065219D01*
X7560411Y4076446D01*
X7551267Y4086606D01*
X7540853Y4095394D01*
X7529372Y4102709D01*
X7516977Y4108450D01*
X7503972Y4112514D01*
X7490510Y4114749D01*
X7476896Y4115206D01*
X7463332Y4113885D01*
X7450074Y4110685D01*
X7437323Y4105808D01*
X7422286Y4097629D01*
X7419136Y4097121D01*
X5178755Y4097121D01*
X5174996Y4097832D01*
X5171795Y4099864D01*
X5161381Y4109669D01*
X5149697Y4118101D01*
X5137099Y4125061D01*
X5123688Y4130395D01*
X5109718Y4133951D01*
X5095392Y4135780D01*
X5081016Y4135780D01*
X5066690Y4133951D01*
X5052720Y4130395D01*
X5039309Y4125061D01*
X5026710Y4118101D01*
X5015026Y4109669D01*
X5004511Y4099763D01*
X4995316Y4088688D01*
X4987594Y4076496D01*
X4981498Y4063441D01*
X4977028Y4049725D01*
X4974336Y4035602D01*
X4973421Y4021175D01*
X4974336Y4006799D01*
X4977028Y3992676D01*
X4981498Y3978960D01*
X4987594Y3965905D01*
X4995316Y3953713D01*
X5004511Y3942638D01*
X5015026Y3932732D01*
X5026710Y3924300D01*
X5039309Y3917340D01*
X5052720Y3912006D01*
X5066690Y3908450D01*
G37*
G36*
X13804900Y3915003D02*
G01*
X13819073Y3915918D01*
X13833043Y3918661D01*
X13846505Y3923131D01*
X13859306Y3929278D01*
X13871244Y3937050D01*
X13882065Y3946245D01*
X13891615Y3956761D01*
X13899743Y3968394D01*
X13906296Y3980992D01*
X13911224Y3994353D01*
X13914374Y4008221D01*
X13915745Y4022344D01*
X13915288Y4036568D01*
X13913002Y4050588D01*
X13908989Y4064203D01*
X13903198Y4077208D01*
X13895832Y4089349D01*
X13886992Y4100474D01*
X13876782Y4110329D01*
X13865402Y4118813D01*
X13853007Y4125823D01*
X13839850Y4131157D01*
X13826083Y4134764D01*
X13812012Y4136542D01*
X13797788Y4136542D01*
X13783716Y4134764D01*
X13769949Y4131157D01*
X13756792Y4125823D01*
X13747394Y4120489D01*
X13745006Y4119524D01*
X13742416Y4119219D01*
X13239546Y4119219D01*
X13235787Y4119930D01*
X13232587Y4121962D01*
X13222173Y4131767D01*
X13210489Y4140200D01*
X13197890Y4147159D01*
X13184479Y4152493D01*
X13170509Y4156049D01*
X13156184Y4157878D01*
X13141807Y4157878D01*
X13127482Y4156049D01*
X13113512Y4152493D01*
X13100100Y4147159D01*
X13087502Y4140200D01*
X13075818Y4131767D01*
X13065302Y4121861D01*
X13056108Y4110786D01*
X13048386Y4098594D01*
X13042290Y4085539D01*
X13037819Y4071823D01*
X13035127Y4057700D01*
X13034213Y4043273D01*
X13035127Y4028897D01*
X13037819Y4014774D01*
X13042290Y4001058D01*
X13048386Y3988003D01*
X13056108Y3975811D01*
X13065302Y3964736D01*
X13075818Y3954830D01*
X13087502Y3946398D01*
X13100100Y3939438D01*
X13113512Y3934104D01*
X13127482Y3930548D01*
X13141807Y3928719D01*
X13156184Y3928719D01*
X13170509Y3930548D01*
X13184479Y3934104D01*
X13197890Y3939438D01*
X13210489Y3946398D01*
X13222173Y3954830D01*
X13232587Y3964635D01*
X13235787Y3966667D01*
X13239546Y3967378D01*
X13705484Y3967378D01*
X13708684Y3966870D01*
X13711580Y3965397D01*
X13713815Y3963060D01*
X13718184Y3956761D01*
X13727734Y3946245D01*
X13738555Y3937050D01*
X13750493Y3929278D01*
X13763294Y3923131D01*
X13776756Y3918661D01*
X13790726Y3915918D01*
G37*
G36*
X11617807Y3928719D02*
G01*
X11632184Y3928719D01*
X11646509Y3930548D01*
X11660479Y3934104D01*
X11673890Y3939438D01*
X11686489Y3946398D01*
X11698173Y3954830D01*
X11708688Y3964736D01*
X11717883Y3975811D01*
X11725605Y3988003D01*
X11731701Y4001058D01*
X11736171Y4014774D01*
X11738864Y4028897D01*
X11739778Y4043273D01*
X11738864Y4057700D01*
X11736171Y4071823D01*
X11731701Y4085539D01*
X11725605Y4098594D01*
X11717883Y4110786D01*
X11708688Y4121861D01*
X11698173Y4131767D01*
X11686489Y4140200D01*
X11673890Y4147159D01*
X11660479Y4152493D01*
X11646509Y4156049D01*
X11632184Y4157878D01*
X11617807Y4157878D01*
X11603482Y4156049D01*
X11589512Y4152493D01*
X11576100Y4147159D01*
X11563502Y4140200D01*
X11551818Y4131767D01*
X11541302Y4121861D01*
X11535460Y4114800D01*
X11531955Y4112056D01*
X11527637Y4111091D01*
X9901986Y4111091D01*
X9898532Y4111701D01*
X9895433Y4113529D01*
X9890861Y4117390D01*
X9879380Y4124706D01*
X9866985Y4130446D01*
X9853980Y4134510D01*
X9840518Y4136796D01*
X9826904Y4137202D01*
X9813340Y4135882D01*
X9800031Y4132681D01*
X9787331Y4127804D01*
X9775393Y4121251D01*
X9764369Y4113174D01*
X9754565Y4103674D01*
X9746132Y4092956D01*
X9739172Y4081221D01*
X9733838Y4068673D01*
X9730282Y4055516D01*
X9728454Y4042003D01*
X9728454Y4028389D01*
X9730282Y4014876D01*
X9733838Y4001719D01*
X9739172Y3989171D01*
X9746132Y3977436D01*
X9754565Y3966718D01*
X9764369Y3957218D01*
X9775393Y3949141D01*
X9787331Y3942587D01*
X9800031Y3937711D01*
X9813340Y3934510D01*
X9826904Y3933190D01*
X9840518Y3933647D01*
X9853980Y3935882D01*
X9866985Y3939946D01*
X9879380Y3945686D01*
X9890861Y3953001D01*
X9895433Y3956862D01*
X9898481Y3958691D01*
X9901986Y3959301D01*
X11543080Y3959301D01*
X11546840Y3958590D01*
X11550040Y3956558D01*
X11551818Y3954830D01*
X11563502Y3946398D01*
X11576100Y3939438D01*
X11589512Y3934104D01*
X11603482Y3930548D01*
G37*
G36*
X3557015Y4160621D02*
G01*
X3571392Y4160621D01*
X3585718Y4162450D01*
X3599687Y4166006D01*
X3613099Y4171340D01*
X3625697Y4178300D01*
X3637381Y4186732D01*
X3647897Y4196638D01*
X3657092Y4207713D01*
X3664813Y4219905D01*
X3670909Y4232960D01*
X3675379Y4246676D01*
X3678072Y4260799D01*
X3678986Y4275175D01*
X3678072Y4289602D01*
X3675379Y4303725D01*
X3670909Y4317441D01*
X3664813Y4330496D01*
X3657092Y4342688D01*
X3647897Y4353763D01*
X3637381Y4363669D01*
X3625697Y4372102D01*
X3613099Y4379061D01*
X3599687Y4384395D01*
X3585718Y4387951D01*
X3571392Y4389780D01*
X3557015Y4389780D01*
X3542690Y4387951D01*
X3528720Y4384395D01*
X3515309Y4379061D01*
X3502710Y4372102D01*
X3491026Y4363669D01*
X3485642Y4358538D01*
X3482390Y4356506D01*
X3478682Y4355795D01*
X2510739Y4355795D01*
X2506624Y4356658D01*
X2502865Y4359554D01*
X2492044Y4368749D01*
X2480106Y4376521D01*
X2467305Y4382668D01*
X2453843Y4387138D01*
X2439873Y4389882D01*
X2425700Y4390796D01*
X2411526Y4389882D01*
X2397556Y4387138D01*
X2384094Y4382668D01*
X2371293Y4376521D01*
X2359355Y4368749D01*
X2348534Y4359554D01*
X2338984Y4349038D01*
X2330856Y4337405D01*
X2324303Y4324807D01*
X2319375Y4311446D01*
X2316226Y4297578D01*
X2314854Y4283456D01*
X2315311Y4269232D01*
X2317597Y4255211D01*
X2321661Y4241596D01*
X2327402Y4228592D01*
X2334768Y4216450D01*
X2343607Y4205325D01*
X2353818Y4195470D01*
X2365197Y4186986D01*
X2377592Y4179976D01*
X2390749Y4174642D01*
X2404516Y4171035D01*
X2418588Y4169257D01*
X2432812Y4169257D01*
X2446883Y4171035D01*
X2460650Y4174642D01*
X2473807Y4179976D01*
X2486202Y4186986D01*
X2497582Y4195470D01*
X2503424Y4201109D01*
X2506675Y4203242D01*
X2510485Y4204004D01*
X3469640Y4204004D01*
X3473958Y4203039D01*
X3477463Y4200296D01*
X3480511Y4196638D01*
X3491026Y4186732D01*
X3502710Y4178300D01*
X3515309Y4171340D01*
X3528720Y4166006D01*
X3542690Y4162450D01*
G37*
G36*
X5081016Y4160621D02*
G01*
X5095392Y4160621D01*
X5109718Y4162450D01*
X5123688Y4166006D01*
X5137099Y4171340D01*
X5149697Y4178300D01*
X5161381Y4186732D01*
X5171795Y4196537D01*
X5174996Y4198569D01*
X5178755Y4199280D01*
X7399883Y4199280D01*
X7403693Y4198569D01*
X7406944Y4196435D01*
X7414412Y4189222D01*
X7425385Y4181144D01*
X7437323Y4174591D01*
X7450074Y4169714D01*
X7463332Y4166514D01*
X7476896Y4165193D01*
X7490510Y4165650D01*
X7503972Y4167886D01*
X7516977Y4171950D01*
X7529372Y4177690D01*
X7540853Y4185005D01*
X7551267Y4193794D01*
X7560411Y4203954D01*
X7568133Y4215180D01*
X7574280Y4227322D01*
X7578750Y4240225D01*
X7581493Y4253585D01*
X7582408Y4267200D01*
X7581493Y4280814D01*
X7578750Y4294174D01*
X7574280Y4307078D01*
X7568133Y4319219D01*
X7560411Y4330446D01*
X7551267Y4340606D01*
X7540853Y4349394D01*
X7529372Y4356709D01*
X7516977Y4362450D01*
X7503972Y4366514D01*
X7490510Y4368749D01*
X7476896Y4369206D01*
X7463332Y4367885D01*
X7450074Y4364685D01*
X7437323Y4359808D01*
X7422286Y4351629D01*
X7419136Y4351121D01*
X5178755Y4351121D01*
X5174996Y4351832D01*
X5171795Y4353864D01*
X5161381Y4363669D01*
X5149697Y4372102D01*
X5137099Y4379061D01*
X5123688Y4384395D01*
X5109718Y4387951D01*
X5095392Y4389780D01*
X5081016Y4389780D01*
X5066690Y4387951D01*
X5052720Y4384395D01*
X5039309Y4379061D01*
X5026710Y4372102D01*
X5015026Y4363669D01*
X5004511Y4353763D01*
X4995316Y4342688D01*
X4987594Y4330496D01*
X4981498Y4317441D01*
X4977028Y4303725D01*
X4974336Y4289602D01*
X4973421Y4275175D01*
X4974336Y4260799D01*
X4977028Y4246676D01*
X4981498Y4232960D01*
X4987594Y4219905D01*
X4995316Y4207713D01*
X5004511Y4196638D01*
X5015026Y4186732D01*
X5026710Y4178300D01*
X5039309Y4171340D01*
X5052720Y4166006D01*
X5066690Y4162450D01*
G37*
G36*
X13726718Y4169003D02*
G01*
X13883081Y4169003D01*
X13889380Y4169714D01*
X13894866Y4171594D01*
X13899743Y4174693D01*
X13903858Y4178808D01*
X13906906Y4183684D01*
X13908836Y4189171D01*
X13909548Y4195470D01*
X13909548Y4364329D01*
X13908836Y4370628D01*
X13906906Y4376115D01*
X13903858Y4380992D01*
X13899743Y4385106D01*
X13894866Y4388205D01*
X13889380Y4390085D01*
X13883081Y4390796D01*
X13726718Y4390796D01*
X13720419Y4390085D01*
X13714933Y4388205D01*
X13710056Y4385106D01*
X13705941Y4380992D01*
X13702893Y4376115D01*
X13700963Y4370628D01*
X13700302Y4364837D01*
X13699236Y4361281D01*
X13697000Y4358386D01*
X13693851Y4356455D01*
X13690193Y4355795D01*
X13253110Y4355795D01*
X13249808Y4356354D01*
X13246811Y4358030D01*
X13244576Y4360519D01*
X13241883Y4364786D01*
X13232688Y4375861D01*
X13222173Y4385767D01*
X13210489Y4394200D01*
X13197890Y4401159D01*
X13184479Y4406493D01*
X13170509Y4410049D01*
X13156184Y4411878D01*
X13141807Y4411878D01*
X13127482Y4410049D01*
X13113512Y4406493D01*
X13100100Y4401159D01*
X13087502Y4394200D01*
X13075818Y4385767D01*
X13065302Y4375861D01*
X13056108Y4364786D01*
X13048386Y4352594D01*
X13042290Y4339539D01*
X13037819Y4325823D01*
X13035127Y4311700D01*
X13034213Y4297273D01*
X13035127Y4282897D01*
X13037819Y4268774D01*
X13042290Y4255058D01*
X13048386Y4242003D01*
X13056108Y4229811D01*
X13065302Y4218736D01*
X13075818Y4208830D01*
X13087502Y4200398D01*
X13100100Y4193438D01*
X13113512Y4188104D01*
X13127482Y4184548D01*
X13141807Y4182719D01*
X13156184Y4182719D01*
X13170509Y4184548D01*
X13184479Y4188104D01*
X13197890Y4193438D01*
X13210489Y4200398D01*
X13212826Y4202074D01*
X13215619Y4203496D01*
X13218769Y4204004D01*
X13690193Y4204004D01*
X13693851Y4203344D01*
X13697000Y4201414D01*
X13699236Y4198518D01*
X13700302Y4194962D01*
X13700963Y4189171D01*
X13702893Y4183684D01*
X13705941Y4178808D01*
X13710056Y4174693D01*
X13714933Y4171594D01*
X13720419Y4169714D01*
G37*
G36*
X11617807Y4182719D02*
G01*
X11632184Y4182719D01*
X11646509Y4184548D01*
X11660479Y4188104D01*
X11673890Y4193438D01*
X11686489Y4200398D01*
X11698173Y4208830D01*
X11708688Y4218736D01*
X11717883Y4229811D01*
X11725605Y4242003D01*
X11731701Y4255058D01*
X11736171Y4268774D01*
X11738864Y4282897D01*
X11739778Y4297273D01*
X11738864Y4311700D01*
X11736171Y4325823D01*
X11731701Y4339539D01*
X11725605Y4352594D01*
X11717883Y4364786D01*
X11708688Y4375861D01*
X11698173Y4385767D01*
X11686489Y4394200D01*
X11673890Y4401159D01*
X11660479Y4406493D01*
X11646509Y4410049D01*
X11632184Y4411878D01*
X11617807Y4411878D01*
X11603482Y4410049D01*
X11589512Y4406493D01*
X11576100Y4401159D01*
X11563502Y4394200D01*
X11551818Y4385767D01*
X11541302Y4375861D01*
X11535460Y4368800D01*
X11531955Y4366056D01*
X11527637Y4365091D01*
X9901986Y4365091D01*
X9898532Y4365701D01*
X9895433Y4367530D01*
X9890861Y4371390D01*
X9879380Y4378706D01*
X9866985Y4384446D01*
X9853980Y4388510D01*
X9840518Y4390796D01*
X9826904Y4391202D01*
X9813340Y4389882D01*
X9800031Y4386681D01*
X9787331Y4381804D01*
X9775393Y4375251D01*
X9764369Y4367174D01*
X9754565Y4357674D01*
X9746132Y4346956D01*
X9739172Y4335221D01*
X9733838Y4322673D01*
X9730282Y4309516D01*
X9728454Y4296003D01*
X9728454Y4282389D01*
X9730282Y4268876D01*
X9733838Y4255719D01*
X9739172Y4243171D01*
X9746132Y4231436D01*
X9754565Y4220718D01*
X9764369Y4211218D01*
X9775393Y4203141D01*
X9787331Y4196588D01*
X9800031Y4191711D01*
X9813340Y4188510D01*
X9826904Y4187190D01*
X9840518Y4187647D01*
X9853980Y4189882D01*
X9866985Y4193946D01*
X9879380Y4199686D01*
X9890861Y4207002D01*
X9895433Y4210862D01*
X9898481Y4212691D01*
X9901986Y4213301D01*
X11543080Y4213301D01*
X11546840Y4212590D01*
X11550040Y4210558D01*
X11551818Y4208830D01*
X11563502Y4200398D01*
X11576100Y4193438D01*
X11589512Y4188104D01*
X11603482Y4184548D01*
G37*
G36*
X5081016Y4414621D02*
G01*
X5095392Y4414621D01*
X5109718Y4416450D01*
X5123688Y4420006D01*
X5137099Y4425340D01*
X5149697Y4432300D01*
X5161381Y4440732D01*
X5171795Y4450537D01*
X5174996Y4452569D01*
X5178755Y4453280D01*
X7399883Y4453280D01*
X7403693Y4452569D01*
X7406944Y4450435D01*
X7414412Y4443222D01*
X7425385Y4435144D01*
X7437323Y4428591D01*
X7450074Y4423714D01*
X7463332Y4420514D01*
X7476896Y4419193D01*
X7490510Y4419650D01*
X7503972Y4421886D01*
X7516977Y4425950D01*
X7529372Y4431690D01*
X7540853Y4439005D01*
X7551267Y4447794D01*
X7560411Y4457954D01*
X7568133Y4469180D01*
X7574280Y4481322D01*
X7578750Y4494225D01*
X7581493Y4507585D01*
X7582408Y4521200D01*
X7581493Y4534814D01*
X7578750Y4548174D01*
X7574280Y4561078D01*
X7568133Y4573219D01*
X7560411Y4584446D01*
X7551267Y4594606D01*
X7540853Y4603394D01*
X7529372Y4610709D01*
X7516977Y4616450D01*
X7503972Y4620514D01*
X7490510Y4622749D01*
X7476896Y4623206D01*
X7463332Y4621885D01*
X7450074Y4618685D01*
X7437323Y4613808D01*
X7422286Y4605629D01*
X7419136Y4605121D01*
X5178755Y4605121D01*
X5174996Y4605832D01*
X5171795Y4607864D01*
X5161381Y4617669D01*
X5149697Y4626102D01*
X5137099Y4633061D01*
X5123688Y4638395D01*
X5109718Y4641951D01*
X5095392Y4643780D01*
X5081016Y4643780D01*
X5066690Y4641951D01*
X5052720Y4638395D01*
X5039309Y4633061D01*
X5026710Y4626102D01*
X5015026Y4617669D01*
X5004511Y4607763D01*
X4995316Y4596688D01*
X4987594Y4584496D01*
X4981498Y4571441D01*
X4977028Y4557725D01*
X4974336Y4543602D01*
X4973421Y4529175D01*
X4974336Y4514799D01*
X4977028Y4500676D01*
X4981498Y4486960D01*
X4987594Y4473905D01*
X4995316Y4461713D01*
X5004511Y4450638D01*
X5015026Y4440732D01*
X5026710Y4432300D01*
X5039309Y4425340D01*
X5052720Y4420006D01*
X5066690Y4416450D01*
G37*
G36*
X13804900Y4435703D02*
G01*
X13819073Y4436618D01*
X13833043Y4439361D01*
X13846505Y4443831D01*
X13859306Y4449978D01*
X13871244Y4457750D01*
X13882065Y4466945D01*
X13891615Y4477461D01*
X13899743Y4489094D01*
X13906296Y4501692D01*
X13911224Y4515053D01*
X13914374Y4528921D01*
X13915745Y4543044D01*
X13915288Y4557268D01*
X13913002Y4571288D01*
X13908989Y4584903D01*
X13903198Y4597908D01*
X13895832Y4610049D01*
X13886992Y4621174D01*
X13876782Y4631029D01*
X13865402Y4639513D01*
X13853007Y4646523D01*
X13839850Y4651857D01*
X13826083Y4655464D01*
X13812012Y4657242D01*
X13797788Y4657242D01*
X13783716Y4655464D01*
X13769949Y4651857D01*
X13756792Y4646523D01*
X13744397Y4639513D01*
X13728750Y4627930D01*
X13724940Y4627219D01*
X13239546Y4627219D01*
X13235787Y4627930D01*
X13232587Y4629962D01*
X13222173Y4639767D01*
X13210489Y4648200D01*
X13197890Y4655159D01*
X13184479Y4660493D01*
X13170509Y4664049D01*
X13156184Y4665878D01*
X13141807Y4665878D01*
X13127482Y4664049D01*
X13113512Y4660493D01*
X13100100Y4655159D01*
X13087502Y4648200D01*
X13075818Y4639767D01*
X13065302Y4629861D01*
X13056108Y4618786D01*
X13048386Y4606594D01*
X13042290Y4593539D01*
X13037819Y4579823D01*
X13035127Y4565700D01*
X13034213Y4551273D01*
X13035127Y4536897D01*
X13037819Y4522774D01*
X13042290Y4509058D01*
X13048386Y4496003D01*
X13056108Y4483811D01*
X13065302Y4472736D01*
X13075818Y4462830D01*
X13087502Y4454398D01*
X13100100Y4447438D01*
X13113512Y4442104D01*
X13127482Y4438548D01*
X13141807Y4436719D01*
X13156184Y4436719D01*
X13170509Y4438548D01*
X13184479Y4442104D01*
X13197890Y4447438D01*
X13210489Y4454398D01*
X13222173Y4462830D01*
X13232587Y4472635D01*
X13235787Y4474667D01*
X13239546Y4475378D01*
X13715593Y4475378D01*
X13719708Y4474514D01*
X13723112Y4472076D01*
X13727734Y4466945D01*
X13738555Y4457750D01*
X13750493Y4449978D01*
X13763294Y4443831D01*
X13776756Y4439361D01*
X13790726Y4436618D01*
G37*
G36*
X11617807Y4436719D02*
G01*
X11632184Y4436719D01*
X11646509Y4438548D01*
X11660479Y4442104D01*
X11673890Y4447438D01*
X11686489Y4454398D01*
X11698173Y4462830D01*
X11708688Y4472736D01*
X11717883Y4483811D01*
X11725605Y4496003D01*
X11731701Y4509058D01*
X11736171Y4522774D01*
X11738864Y4536897D01*
X11739778Y4551273D01*
X11738864Y4565700D01*
X11736171Y4579823D01*
X11731701Y4593539D01*
X11725605Y4606594D01*
X11717883Y4618786D01*
X11708688Y4629861D01*
X11698173Y4639767D01*
X11686489Y4648200D01*
X11673890Y4655159D01*
X11660479Y4660493D01*
X11646509Y4664049D01*
X11632184Y4665878D01*
X11617807Y4665878D01*
X11603482Y4664049D01*
X11589512Y4660493D01*
X11576100Y4655159D01*
X11563502Y4648200D01*
X11551818Y4639767D01*
X11541302Y4629861D01*
X11535460Y4622800D01*
X11531955Y4620056D01*
X11527637Y4619091D01*
X9901986Y4619091D01*
X9898532Y4619701D01*
X9895433Y4621530D01*
X9890861Y4625390D01*
X9879380Y4632706D01*
X9866985Y4638446D01*
X9853980Y4642510D01*
X9840518Y4644796D01*
X9826904Y4645202D01*
X9813340Y4643882D01*
X9800031Y4640681D01*
X9787331Y4635804D01*
X9775393Y4629251D01*
X9764369Y4621174D01*
X9754565Y4611674D01*
X9746132Y4600956D01*
X9739172Y4589221D01*
X9733838Y4576673D01*
X9730282Y4563516D01*
X9728454Y4550003D01*
X9728454Y4536389D01*
X9730282Y4522876D01*
X9733838Y4509719D01*
X9739172Y4497171D01*
X9746132Y4485436D01*
X9754565Y4474718D01*
X9764369Y4465218D01*
X9775393Y4457141D01*
X9787331Y4450588D01*
X9800031Y4445711D01*
X9813340Y4442510D01*
X9826904Y4441190D01*
X9840518Y4441647D01*
X9853980Y4443882D01*
X9866985Y4447946D01*
X9879380Y4453686D01*
X9890861Y4461002D01*
X9895433Y4464862D01*
X9898481Y4466691D01*
X9901986Y4467301D01*
X11543080Y4467301D01*
X11546840Y4466590D01*
X11550040Y4464558D01*
X11551818Y4462830D01*
X11563502Y4454398D01*
X11576100Y4447438D01*
X11589512Y4442104D01*
X11603482Y4438548D01*
G37*
G36*
X5081016Y4668621D02*
G01*
X5095392Y4668621D01*
X5109718Y4670450D01*
X5123688Y4674006D01*
X5137099Y4679340D01*
X5149697Y4686300D01*
X5161381Y4694732D01*
X5171795Y4704537D01*
X5174996Y4706569D01*
X5178755Y4707280D01*
X7399883Y4707280D01*
X7403693Y4706569D01*
X7406944Y4704435D01*
X7414412Y4697222D01*
X7425385Y4689144D01*
X7437323Y4682591D01*
X7450074Y4677714D01*
X7463332Y4674514D01*
X7476896Y4673193D01*
X7490510Y4673650D01*
X7503972Y4675886D01*
X7516977Y4679950D01*
X7529372Y4685690D01*
X7540853Y4693005D01*
X7551267Y4701794D01*
X7560411Y4711954D01*
X7568133Y4723180D01*
X7574280Y4735322D01*
X7578750Y4748225D01*
X7581493Y4761585D01*
X7582408Y4775200D01*
X7581493Y4788814D01*
X7578750Y4802174D01*
X7574280Y4815078D01*
X7568133Y4827219D01*
X7560411Y4838446D01*
X7551267Y4848606D01*
X7540853Y4857394D01*
X7529372Y4864709D01*
X7516977Y4870450D01*
X7503972Y4874514D01*
X7490510Y4876749D01*
X7476896Y4877206D01*
X7463332Y4875885D01*
X7450074Y4872685D01*
X7437323Y4867808D01*
X7422286Y4859629D01*
X7419136Y4859121D01*
X5178755Y4859121D01*
X5174996Y4859832D01*
X5171795Y4861864D01*
X5161381Y4871669D01*
X5149697Y4880102D01*
X5137099Y4887061D01*
X5123688Y4892395D01*
X5109718Y4895951D01*
X5095392Y4897780D01*
X5081016Y4897780D01*
X5066690Y4895951D01*
X5052720Y4892395D01*
X5039309Y4887061D01*
X5026710Y4880102D01*
X5015026Y4871669D01*
X5004511Y4861763D01*
X4995316Y4850688D01*
X4987594Y4838496D01*
X4981498Y4825441D01*
X4977028Y4811725D01*
X4974336Y4797602D01*
X4973421Y4783175D01*
X4974336Y4768799D01*
X4977028Y4754676D01*
X4981498Y4740960D01*
X4987594Y4727905D01*
X4995316Y4715713D01*
X5004511Y4704638D01*
X5015026Y4694732D01*
X5026710Y4686300D01*
X5039309Y4679340D01*
X5052720Y4674006D01*
X5066690Y4670450D01*
G37*
G36*
X13726718Y4689703D02*
G01*
X13883081Y4689703D01*
X13889380Y4690414D01*
X13894866Y4692294D01*
X13899743Y4695393D01*
X13903858Y4699508D01*
X13906906Y4704384D01*
X13908836Y4709871D01*
X13909548Y4716170D01*
X13909548Y4885029D01*
X13908836Y4891328D01*
X13906906Y4896815D01*
X13903858Y4901692D01*
X13899743Y4905806D01*
X13894866Y4908905D01*
X13889380Y4910785D01*
X13883081Y4911496D01*
X13726718Y4911496D01*
X13720419Y4910785D01*
X13714933Y4908905D01*
X13710056Y4905806D01*
X13705941Y4901692D01*
X13702893Y4896815D01*
X13700963Y4891328D01*
X13700302Y4885537D01*
X13699236Y4881981D01*
X13697000Y4879086D01*
X13693851Y4877155D01*
X13690193Y4876495D01*
X13243560Y4876495D01*
X13239242Y4877460D01*
X13235736Y4880203D01*
X13232688Y4883861D01*
X13222173Y4893767D01*
X13210489Y4902200D01*
X13197890Y4909159D01*
X13184479Y4914493D01*
X13170509Y4918049D01*
X13156184Y4919878D01*
X13141807Y4919878D01*
X13127482Y4918049D01*
X13113512Y4914493D01*
X13100100Y4909159D01*
X13087502Y4902200D01*
X13075818Y4893767D01*
X13065302Y4883861D01*
X13056108Y4872786D01*
X13048386Y4860594D01*
X13042290Y4847539D01*
X13037819Y4833823D01*
X13035127Y4819700D01*
X13034213Y4805273D01*
X13035127Y4790897D01*
X13037819Y4776774D01*
X13042290Y4763058D01*
X13048386Y4750003D01*
X13056108Y4737811D01*
X13065302Y4726736D01*
X13075818Y4716830D01*
X13087502Y4708398D01*
X13100100Y4701438D01*
X13113512Y4696104D01*
X13127482Y4692548D01*
X13141807Y4690719D01*
X13156184Y4690719D01*
X13170509Y4692548D01*
X13184479Y4696104D01*
X13197890Y4701438D01*
X13210489Y4708398D01*
X13222173Y4716830D01*
X13227557Y4721961D01*
X13230809Y4723993D01*
X13234517Y4724704D01*
X13690193Y4724704D01*
X13693851Y4724044D01*
X13697000Y4722114D01*
X13699236Y4719218D01*
X13700302Y4715662D01*
X13700963Y4709871D01*
X13702893Y4704384D01*
X13705941Y4699508D01*
X13710056Y4695393D01*
X13714933Y4692294D01*
X13720419Y4690414D01*
G37*
G36*
X11617807Y4690719D02*
G01*
X11632184Y4690719D01*
X11646509Y4692548D01*
X11660479Y4696104D01*
X11673890Y4701438D01*
X11686489Y4708398D01*
X11698173Y4716830D01*
X11708688Y4726736D01*
X11717883Y4737811D01*
X11725605Y4750003D01*
X11731701Y4763058D01*
X11736171Y4776774D01*
X11738864Y4790897D01*
X11739778Y4805273D01*
X11738864Y4819700D01*
X11736171Y4833823D01*
X11731701Y4847539D01*
X11725605Y4860594D01*
X11717883Y4872786D01*
X11708688Y4883861D01*
X11698173Y4893767D01*
X11686489Y4902200D01*
X11673890Y4909159D01*
X11660479Y4914493D01*
X11646509Y4918049D01*
X11632184Y4919878D01*
X11617807Y4919878D01*
X11603482Y4918049D01*
X11589512Y4914493D01*
X11576100Y4909159D01*
X11563502Y4902200D01*
X11551818Y4893767D01*
X11541302Y4883861D01*
X11535460Y4876800D01*
X11531955Y4874056D01*
X11527637Y4873091D01*
X9901986Y4873091D01*
X9898532Y4873701D01*
X9895433Y4875530D01*
X9890861Y4879390D01*
X9879380Y4886706D01*
X9866985Y4892446D01*
X9853980Y4896510D01*
X9840518Y4898796D01*
X9826904Y4899202D01*
X9813340Y4897882D01*
X9800031Y4894681D01*
X9787331Y4889804D01*
X9775393Y4883251D01*
X9764369Y4875174D01*
X9754565Y4865674D01*
X9746132Y4854956D01*
X9739172Y4843221D01*
X9733838Y4830673D01*
X9730282Y4817516D01*
X9728454Y4804003D01*
X9728454Y4790389D01*
X9730282Y4776876D01*
X9733838Y4763719D01*
X9739172Y4751171D01*
X9746132Y4739436D01*
X9754565Y4728718D01*
X9764369Y4719218D01*
X9775393Y4711141D01*
X9787331Y4704588D01*
X9800031Y4699711D01*
X9813340Y4696510D01*
X9826904Y4695190D01*
X9840518Y4695647D01*
X9853980Y4697882D01*
X9866985Y4701946D01*
X9879380Y4707686D01*
X9890861Y4715002D01*
X9895433Y4718862D01*
X9898481Y4720691D01*
X9901986Y4721301D01*
X11543080Y4721301D01*
X11546840Y4720590D01*
X11550040Y4718558D01*
X11551818Y4716830D01*
X11563502Y4708398D01*
X11576100Y4701438D01*
X11589512Y4696104D01*
X11603482Y4692548D01*
G37*
G36*
X5081016Y4922621D02*
G01*
X5095392Y4922621D01*
X5109718Y4924450D01*
X5123688Y4928006D01*
X5137099Y4933340D01*
X5149697Y4940300D01*
X5161381Y4948732D01*
X5171795Y4958537D01*
X5174996Y4960569D01*
X5178755Y4961280D01*
X7399883Y4961280D01*
X7403693Y4960569D01*
X7406944Y4958435D01*
X7414412Y4951222D01*
X7425385Y4943144D01*
X7437323Y4936591D01*
X7450074Y4931714D01*
X7463332Y4928514D01*
X7476896Y4927193D01*
X7490510Y4927650D01*
X7503972Y4929886D01*
X7516977Y4933950D01*
X7529372Y4939690D01*
X7540853Y4947005D01*
X7551267Y4955794D01*
X7560411Y4965954D01*
X7568133Y4977180D01*
X7574280Y4989322D01*
X7578750Y5002225D01*
X7581493Y5015585D01*
X7582408Y5029200D01*
X7581493Y5042814D01*
X7578750Y5056174D01*
X7574280Y5069078D01*
X7568133Y5081219D01*
X7560411Y5092446D01*
X7551267Y5102606D01*
X7540853Y5111394D01*
X7529372Y5118709D01*
X7516977Y5124450D01*
X7503972Y5128514D01*
X7490510Y5130749D01*
X7476896Y5131206D01*
X7463332Y5129885D01*
X7450074Y5126685D01*
X7437323Y5121808D01*
X7422286Y5113629D01*
X7419136Y5113121D01*
X5178755Y5113121D01*
X5174996Y5113832D01*
X5171795Y5115864D01*
X5161381Y5125669D01*
X5149697Y5134102D01*
X5137099Y5141061D01*
X5123688Y5146395D01*
X5109718Y5149951D01*
X5095392Y5151780D01*
X5081016Y5151780D01*
X5066690Y5149951D01*
X5052720Y5146395D01*
X5039309Y5141061D01*
X5026710Y5134102D01*
X5015026Y5125669D01*
X5004511Y5115763D01*
X4995316Y5104688D01*
X4987594Y5092496D01*
X4981498Y5079441D01*
X4977028Y5065725D01*
X4974336Y5051602D01*
X4973421Y5037175D01*
X4974336Y5022799D01*
X4977028Y5008676D01*
X4981498Y4994960D01*
X4987594Y4981905D01*
X4995316Y4969713D01*
X5004511Y4958638D01*
X5015026Y4948732D01*
X5026710Y4940300D01*
X5039309Y4933340D01*
X5052720Y4928006D01*
X5066690Y4924450D01*
G37*
G36*
X7476896Y5181193D02*
G01*
X7490510Y5181650D01*
X7503972Y5183886D01*
X7516977Y5187950D01*
X7529372Y5193690D01*
X7540853Y5201005D01*
X7551267Y5209794D01*
X7560411Y5219954D01*
X7568133Y5231180D01*
X7574280Y5243322D01*
X7578750Y5256225D01*
X7581493Y5269585D01*
X7582408Y5283200D01*
X7581493Y5296814D01*
X7578750Y5310174D01*
X7574280Y5323078D01*
X7568133Y5335219D01*
X7560411Y5346446D01*
X7551267Y5356606D01*
X7540853Y5365394D01*
X7529372Y5372709D01*
X7516977Y5378450D01*
X7503972Y5382514D01*
X7490510Y5384749D01*
X7476896Y5385206D01*
X7463332Y5383885D01*
X7450074Y5380685D01*
X7437323Y5375808D01*
X7425385Y5369255D01*
X7414310Y5361076D01*
X7411466Y5359603D01*
X7408265Y5359095D01*
X5953861Y5359095D01*
X5949950Y5359857D01*
X5946648Y5362092D01*
X2885592Y8423148D01*
X2883357Y8426450D01*
X2882595Y8430361D01*
X2882595Y10479938D01*
X2883357Y10483850D01*
X2885592Y10487152D01*
X3101848Y10703407D01*
X3105150Y10705642D01*
X3109061Y10706404D01*
X5514238Y10706404D01*
X5518150Y10705642D01*
X5521452Y10703407D01*
X5610707Y10614152D01*
X5612942Y10610850D01*
X5613704Y10606938D01*
X5613704Y10515295D01*
X5612841Y10511180D01*
X5610352Y10507776D01*
X5606694Y10505643D01*
X5599582Y10503255D01*
X5594756Y10500258D01*
X5590641Y10496143D01*
X5587593Y10491266D01*
X5585663Y10485780D01*
X5584952Y10479481D01*
X5584952Y10323118D01*
X5585663Y10316819D01*
X5587593Y10311333D01*
X5590641Y10306456D01*
X5594756Y10302341D01*
X5599633Y10299293D01*
X5605119Y10297363D01*
X5611418Y10296652D01*
X5767781Y10296652D01*
X5774080Y10297363D01*
X5779566Y10299293D01*
X5784443Y10302341D01*
X5788558Y10306456D01*
X5791606Y10311333D01*
X5793536Y10316819D01*
X5794248Y10323118D01*
X5794248Y10479481D01*
X5793536Y10485780D01*
X5791606Y10491266D01*
X5788558Y10496143D01*
X5784443Y10500258D01*
X5779617Y10503255D01*
X5772505Y10505643D01*
X5768848Y10507776D01*
X5766358Y10511180D01*
X5765495Y10515295D01*
X5765444Y10645241D01*
X5764631Y10654080D01*
X5764225Y10656519D01*
X5762091Y10665155D01*
X5761329Y10667492D01*
X5757926Y10675721D01*
X5756808Y10677906D01*
X5752185Y10685526D01*
X5745124Y10694365D01*
X5601665Y10837824D01*
X5592826Y10844885D01*
X5585206Y10849508D01*
X5583021Y10850626D01*
X5574792Y10854029D01*
X5572455Y10854791D01*
X5563819Y10856925D01*
X5561380Y10857331D01*
X5552541Y10858144D01*
X3070758Y10858144D01*
X3061919Y10857331D01*
X3059480Y10856925D01*
X3050844Y10854791D01*
X3048508Y10854029D01*
X3040278Y10850626D01*
X3038094Y10849508D01*
X3030474Y10844885D01*
X3021634Y10837824D01*
X2751175Y10567365D01*
X2744114Y10558526D01*
X2739491Y10550906D01*
X2738374Y10548721D01*
X2734970Y10540492D01*
X2734208Y10538155D01*
X2732074Y10529519D01*
X2731668Y10527080D01*
X2730855Y10518241D01*
X2730855Y8392058D01*
X2731668Y8383219D01*
X2732074Y8380780D01*
X2734208Y8372144D01*
X2734970Y8369808D01*
X2738374Y8361578D01*
X2739491Y8359394D01*
X2744114Y8351774D01*
X2751175Y8342934D01*
X5866434Y5227675D01*
X5875274Y5220614D01*
X5882894Y5215991D01*
X5885078Y5214874D01*
X5893308Y5211470D01*
X5895644Y5210708D01*
X5904280Y5208574D01*
X5906719Y5208168D01*
X5915558Y5207355D01*
X7408265Y5207304D01*
X7411466Y5206796D01*
X7414310Y5205323D01*
X7425385Y5197144D01*
X7437323Y5190591D01*
X7450074Y5185714D01*
X7463332Y5182514D01*
G37*
G36*
X9826904Y5203190D02*
G01*
X9840518Y5203647D01*
X9853980Y5205882D01*
X9866985Y5209946D01*
X9879380Y5215686D01*
X9890861Y5223002D01*
X9895433Y5226862D01*
X9898481Y5228691D01*
X9901986Y5229301D01*
X10108438Y5229352D01*
X10117277Y5230164D01*
X10119715Y5230571D01*
X10128351Y5232704D01*
X10130688Y5233466D01*
X10138918Y5236870D01*
X10141102Y5237988D01*
X10148722Y5242610D01*
X10157561Y5249672D01*
X10328148Y5420207D01*
X10331450Y5422442D01*
X10335361Y5423204D01*
X10577677Y5423204D01*
X10579658Y5423001D01*
X10590834Y5420766D01*
X10604500Y5419852D01*
X10618165Y5420766D01*
X10631576Y5423458D01*
X10644530Y5427827D01*
X10656824Y5433872D01*
X10668203Y5441492D01*
X10678464Y5450535D01*
X10687507Y5460796D01*
X10695127Y5472176D01*
X10701172Y5484469D01*
X10705541Y5497423D01*
X10708233Y5510834D01*
X10709148Y5524500D01*
X10708233Y5538165D01*
X10705541Y5551576D01*
X10701172Y5564530D01*
X10695127Y5576824D01*
X10687507Y5588203D01*
X10678464Y5598464D01*
X10668203Y5607507D01*
X10656824Y5615127D01*
X10644530Y5621172D01*
X10631576Y5625541D01*
X10618165Y5628233D01*
X10604500Y5629148D01*
X10590834Y5628233D01*
X10577423Y5625541D01*
X10564469Y5621172D01*
X10552176Y5615127D01*
X10540796Y5607507D01*
X10530535Y5598464D01*
X10521492Y5588203D01*
X10515701Y5579516D01*
X10513415Y5577128D01*
X10510520Y5575554D01*
X10507268Y5574995D01*
X10297058Y5574944D01*
X10288219Y5574131D01*
X10285780Y5573725D01*
X10277144Y5571591D01*
X10274808Y5570829D01*
X10266578Y5567426D01*
X10264394Y5566308D01*
X10256774Y5561685D01*
X10247934Y5554624D01*
X10077348Y5384088D01*
X10074046Y5381853D01*
X10070134Y5381091D01*
X9901986Y5381091D01*
X9898532Y5381701D01*
X9895433Y5383530D01*
X9890861Y5387390D01*
X9879380Y5394706D01*
X9866985Y5400446D01*
X9853980Y5404510D01*
X9840518Y5406796D01*
X9826904Y5407202D01*
X9813340Y5405882D01*
X9800031Y5402681D01*
X9787331Y5397804D01*
X9775393Y5391251D01*
X9764369Y5383174D01*
X9754565Y5373674D01*
X9746132Y5362956D01*
X9739172Y5351221D01*
X9733838Y5338673D01*
X9730282Y5325516D01*
X9728454Y5312003D01*
X9728454Y5298389D01*
X9730282Y5284876D01*
X9733838Y5271719D01*
X9739172Y5259171D01*
X9746132Y5247436D01*
X9754565Y5236718D01*
X9764369Y5227218D01*
X9775393Y5219141D01*
X9787331Y5212588D01*
X9800031Y5207711D01*
X9813340Y5204510D01*
G37*
G36*
X6819900Y5432552D02*
G01*
X6833565Y5433466D01*
X6846976Y5436158D01*
X6859930Y5440527D01*
X6872224Y5446572D01*
X6883603Y5454192D01*
X6888835Y5458764D01*
X6891934Y5460644D01*
X6895490Y5461304D01*
X7408265Y5461304D01*
X7411466Y5460796D01*
X7414310Y5459323D01*
X7425385Y5451144D01*
X7437323Y5444591D01*
X7450074Y5439714D01*
X7463332Y5436514D01*
X7476896Y5435193D01*
X7490510Y5435650D01*
X7503972Y5437886D01*
X7516977Y5441950D01*
X7529372Y5447690D01*
X7540853Y5455005D01*
X7551267Y5463794D01*
X7560411Y5473954D01*
X7568133Y5485180D01*
X7574280Y5497322D01*
X7578750Y5510225D01*
X7581493Y5523585D01*
X7582408Y5537200D01*
X7581493Y5550814D01*
X7578750Y5564174D01*
X7574280Y5577078D01*
X7568133Y5589219D01*
X7560411Y5600446D01*
X7551267Y5610606D01*
X7540853Y5619394D01*
X7529372Y5626709D01*
X7516977Y5632450D01*
X7503972Y5636514D01*
X7490510Y5638749D01*
X7476896Y5639206D01*
X7463332Y5637885D01*
X7450074Y5634685D01*
X7437323Y5629808D01*
X7425385Y5623255D01*
X7414310Y5615076D01*
X7411466Y5613603D01*
X7408265Y5613095D01*
X6895490Y5613095D01*
X6891934Y5613755D01*
X6888835Y5615635D01*
X6883603Y5620207D01*
X6872224Y5627827D01*
X6859930Y5633872D01*
X6846976Y5638241D01*
X6833565Y5640933D01*
X6819900Y5641848D01*
X6806234Y5640933D01*
X6792823Y5638241D01*
X6779869Y5633872D01*
X6767575Y5627827D01*
X6756196Y5620207D01*
X6745935Y5611164D01*
X6736892Y5600903D01*
X6729272Y5589524D01*
X6723227Y5577230D01*
X6718858Y5564276D01*
X6716166Y5550865D01*
X6715252Y5537200D01*
X6716166Y5523534D01*
X6718858Y5510123D01*
X6723227Y5497169D01*
X6729272Y5484876D01*
X6736892Y5473496D01*
X6745935Y5463235D01*
X6756196Y5454192D01*
X6767575Y5446572D01*
X6779869Y5440527D01*
X6792823Y5436158D01*
X6806234Y5433466D01*
G37*
G36*
X9826904Y5457190D02*
G01*
X9840518Y5457647D01*
X9853980Y5459882D01*
X9866985Y5463946D01*
X9879380Y5469686D01*
X9890861Y5477002D01*
X9901275Y5485841D01*
X9910419Y5495950D01*
X9918141Y5507177D01*
X9924288Y5519369D01*
X9928758Y5532221D01*
X9931450Y5545582D01*
X9932365Y5559196D01*
X9931450Y5572810D01*
X9928758Y5586171D01*
X9924288Y5599074D01*
X9918141Y5611215D01*
X9910419Y5622442D01*
X9901275Y5632602D01*
X9890861Y5641390D01*
X9879380Y5648706D01*
X9866985Y5654446D01*
X9853980Y5658510D01*
X9840518Y5660796D01*
X9826904Y5661202D01*
X9813340Y5659882D01*
X9800031Y5656681D01*
X9787331Y5651804D01*
X9775393Y5645251D01*
X9764369Y5637174D01*
X9754565Y5627674D01*
X9746132Y5616956D01*
X9739172Y5605221D01*
X9733838Y5592673D01*
X9730282Y5579516D01*
X9728454Y5566003D01*
X9728454Y5552389D01*
X9730282Y5538876D01*
X9733838Y5525719D01*
X9739172Y5513171D01*
X9746132Y5501436D01*
X9754565Y5490718D01*
X9764369Y5481218D01*
X9775393Y5473141D01*
X9787331Y5466588D01*
X9800031Y5461711D01*
X9813340Y5458510D01*
G37*
G36*
X10604500Y5673852D02*
G01*
X10618165Y5674766D01*
X10631576Y5677458D01*
X10644530Y5681827D01*
X10656824Y5687872D01*
X10668203Y5695492D01*
X10678464Y5704535D01*
X10687507Y5714796D01*
X10695127Y5726176D01*
X10701172Y5738469D01*
X10705541Y5751423D01*
X10708233Y5764834D01*
X10709148Y5778500D01*
X10708233Y5792165D01*
X10705541Y5805576D01*
X10701172Y5818530D01*
X10695127Y5830824D01*
X10687507Y5842203D01*
X10678464Y5852464D01*
X10668203Y5861507D01*
X10656824Y5869127D01*
X10644530Y5875172D01*
X10631576Y5879541D01*
X10618165Y5882233D01*
X10604500Y5883148D01*
X10590834Y5882233D01*
X10577423Y5879541D01*
X10564469Y5875172D01*
X10552176Y5869127D01*
X10540796Y5861507D01*
X10535564Y5856935D01*
X10532465Y5855055D01*
X10528909Y5854395D01*
X10208361Y5854395D01*
X10204450Y5855157D01*
X10201148Y5857392D01*
X9935768Y6122720D01*
X9926929Y6129782D01*
X9919309Y6134404D01*
X9917125Y6135522D01*
X9909149Y6138824D01*
X9902799Y6140551D01*
X9898938Y6142583D01*
X9890861Y6149390D01*
X9879380Y6156706D01*
X9866985Y6162446D01*
X9853980Y6166510D01*
X9840518Y6168796D01*
X9826904Y6169202D01*
X9813340Y6167882D01*
X9800031Y6164681D01*
X9787331Y6159804D01*
X9775393Y6153251D01*
X9764369Y6145174D01*
X9754565Y6135674D01*
X9746132Y6124956D01*
X9739172Y6113221D01*
X9733838Y6100673D01*
X9730282Y6087516D01*
X9728454Y6074003D01*
X9728454Y6060389D01*
X9730282Y6046876D01*
X9733838Y6033719D01*
X9739172Y6021171D01*
X9746132Y6009436D01*
X9754565Y5998718D01*
X9764369Y5989218D01*
X9775393Y5981141D01*
X9787331Y5974588D01*
X9800031Y5969711D01*
X9813340Y5966510D01*
X9826904Y5965190D01*
X9840518Y5965647D01*
X9853980Y5967882D01*
X9864902Y5971286D01*
X9868509Y5971743D01*
X9872065Y5970828D01*
X9875062Y5968746D01*
X10120934Y5722975D01*
X10129774Y5715914D01*
X10137394Y5711291D01*
X10139578Y5710174D01*
X10147808Y5706770D01*
X10150144Y5706008D01*
X10158780Y5703874D01*
X10161219Y5703468D01*
X10170058Y5702655D01*
X10528909Y5702604D01*
X10532465Y5701944D01*
X10535564Y5700064D01*
X10540796Y5695492D01*
X10552176Y5687872D01*
X10564469Y5681827D01*
X10577423Y5677458D01*
X10590834Y5674766D01*
G37*
G36*
X9826904Y5711190D02*
G01*
X9840518Y5711647D01*
X9853980Y5713882D01*
X9866985Y5717946D01*
X9879380Y5723686D01*
X9890861Y5731002D01*
X9901275Y5739841D01*
X9910419Y5749950D01*
X9918141Y5761177D01*
X9924288Y5773369D01*
X9928758Y5786221D01*
X9931450Y5799582D01*
X9932365Y5813196D01*
X9931450Y5826810D01*
X9928758Y5840171D01*
X9924288Y5853074D01*
X9918141Y5865215D01*
X9910419Y5876442D01*
X9901275Y5886602D01*
X9890861Y5895390D01*
X9879380Y5902706D01*
X9866985Y5908446D01*
X9853980Y5912510D01*
X9840518Y5914796D01*
X9826904Y5915202D01*
X9813340Y5913882D01*
X9800031Y5910681D01*
X9787331Y5905804D01*
X9775393Y5899251D01*
X9764369Y5891174D01*
X9754565Y5881674D01*
X9746132Y5870956D01*
X9739172Y5859221D01*
X9733838Y5846673D01*
X9730282Y5833516D01*
X9728454Y5820003D01*
X9728454Y5806389D01*
X9730282Y5792876D01*
X9733838Y5779719D01*
X9739172Y5767171D01*
X9746132Y5755436D01*
X9754565Y5744718D01*
X9764369Y5735218D01*
X9775393Y5727141D01*
X9787331Y5720588D01*
X9800031Y5715711D01*
X9813340Y5712510D01*
G37*
G36*
X7476896Y5943193D02*
G01*
X7490510Y5943650D01*
X7503972Y5945886D01*
X7516977Y5949950D01*
X7529372Y5955690D01*
X7540853Y5963005D01*
X7551267Y5971794D01*
X7560411Y5981954D01*
X7568133Y5993180D01*
X7574280Y6005322D01*
X7578750Y6018225D01*
X7581493Y6031585D01*
X7582408Y6045200D01*
X7581493Y6058814D01*
X7578750Y6072174D01*
X7574280Y6085078D01*
X7568133Y6097219D01*
X7560411Y6108446D01*
X7551267Y6118606D01*
X7540853Y6127394D01*
X7529372Y6134709D01*
X7516977Y6140450D01*
X7503972Y6144514D01*
X7490510Y6146749D01*
X7476896Y6147206D01*
X7463332Y6145885D01*
X7450074Y6142685D01*
X7437323Y6137808D01*
X7425385Y6131255D01*
X7414412Y6123178D01*
X7404608Y6113678D01*
X7396124Y6102959D01*
X7389164Y6091224D01*
X7383881Y6078677D01*
X7380274Y6065520D01*
X7378446Y6052007D01*
X7378446Y6038392D01*
X7380274Y6024880D01*
X7383881Y6011722D01*
X7389164Y5999175D01*
X7396124Y5987440D01*
X7404608Y5976721D01*
X7414412Y5967222D01*
X7425385Y5959144D01*
X7437323Y5952591D01*
X7450074Y5947714D01*
X7463332Y5944514D01*
G37*
G36*
X7476896Y6197193D02*
G01*
X7490510Y6197650D01*
X7503972Y6199886D01*
X7516977Y6203950D01*
X7529372Y6209690D01*
X7540853Y6217005D01*
X7551267Y6225794D01*
X7560411Y6235954D01*
X7568133Y6247180D01*
X7574280Y6259322D01*
X7578750Y6272225D01*
X7581493Y6285585D01*
X7582408Y6299200D01*
X7581493Y6312814D01*
X7578750Y6326174D01*
X7574280Y6339078D01*
X7568133Y6351219D01*
X7560411Y6362446D01*
X7551267Y6372606D01*
X7540853Y6381394D01*
X7529372Y6388709D01*
X7516977Y6394450D01*
X7503972Y6398514D01*
X7490510Y6400749D01*
X7476896Y6401206D01*
X7463332Y6399885D01*
X7450074Y6396685D01*
X7437323Y6391808D01*
X7425385Y6385255D01*
X7414412Y6377178D01*
X7404608Y6367678D01*
X7396124Y6356959D01*
X7389164Y6345224D01*
X7383881Y6332677D01*
X7380274Y6319520D01*
X7378446Y6306007D01*
X7378446Y6292392D01*
X7380274Y6278880D01*
X7383881Y6265722D01*
X7389164Y6253175D01*
X7396124Y6241440D01*
X7404608Y6230721D01*
X7414412Y6221222D01*
X7425385Y6213144D01*
X7437323Y6206591D01*
X7450074Y6201714D01*
X7463332Y6198514D01*
G37*
G36*
X9826904Y6219190D02*
G01*
X9840518Y6219647D01*
X9853980Y6221882D01*
X9866985Y6225946D01*
X9879380Y6231686D01*
X9890861Y6239002D01*
X9901275Y6247841D01*
X9910419Y6257950D01*
X9918141Y6269177D01*
X9924288Y6281369D01*
X9928758Y6294221D01*
X9931450Y6307582D01*
X9932365Y6321196D01*
X9931450Y6334810D01*
X9928758Y6348171D01*
X9924288Y6361074D01*
X9918141Y6373215D01*
X9910419Y6384442D01*
X9901275Y6394602D01*
X9890861Y6403390D01*
X9879380Y6410706D01*
X9866985Y6416446D01*
X9853980Y6420510D01*
X9840518Y6422796D01*
X9826904Y6423202D01*
X9813340Y6421882D01*
X9800031Y6418681D01*
X9787331Y6413804D01*
X9775393Y6407251D01*
X9764369Y6399174D01*
X9754565Y6389674D01*
X9746132Y6378956D01*
X9739172Y6367221D01*
X9733838Y6354673D01*
X9730282Y6341516D01*
X9728454Y6328003D01*
X9728454Y6314389D01*
X9730282Y6300876D01*
X9733838Y6287719D01*
X9739172Y6275171D01*
X9746132Y6263436D01*
X9754565Y6252718D01*
X9764369Y6243218D01*
X9775393Y6235141D01*
X9787331Y6228588D01*
X9800031Y6223711D01*
X9813340Y6220510D01*
G37*
G36*
X1008634Y7544968D02*
G01*
X1026718Y7546340D01*
X1044498Y7549591D01*
X1061923Y7554671D01*
X1078687Y7561478D01*
X1094638Y7570012D01*
X1109675Y7580122D01*
X1123594Y7591704D01*
X1136243Y7604658D01*
X1147470Y7618882D01*
X1157173Y7634173D01*
X1165301Y7650327D01*
X1171651Y7667294D01*
X1176274Y7684820D01*
X1179068Y7702702D01*
X1179982Y7720787D01*
X1179068Y7738872D01*
X1176274Y7756753D01*
X1171651Y7774279D01*
X1165301Y7791246D01*
X1157173Y7807401D01*
X1147470Y7822692D01*
X1136243Y7836916D01*
X1123594Y7849870D01*
X1109675Y7861452D01*
X1094638Y7871561D01*
X1078687Y7880096D01*
X1061923Y7886903D01*
X1044498Y7891983D01*
X1026718Y7895234D01*
X1008634Y7896606D01*
X990549Y7896148D01*
X972566Y7893812D01*
X954938Y7889697D01*
X937869Y7883702D01*
X921461Y7876031D01*
X905916Y7866735D01*
X891438Y7855864D01*
X878128Y7843570D01*
X866190Y7829956D01*
X855675Y7815173D01*
X846785Y7799425D01*
X839520Y7782814D01*
X834034Y7765592D01*
X830326Y7747863D01*
X828446Y7729829D01*
X828446Y7711744D01*
X830326Y7693710D01*
X834034Y7675981D01*
X839520Y7658760D01*
X846785Y7642148D01*
X855675Y7626400D01*
X866190Y7611618D01*
X878128Y7598003D01*
X891438Y7585709D01*
X905916Y7574838D01*
X921461Y7565542D01*
X937869Y7557871D01*
X954938Y7551877D01*
X972566Y7547762D01*
X990549Y7545425D01*
G37*
G36*
X14443659Y7544968D02*
G01*
X14461693Y7546340D01*
X14479524Y7549591D01*
X14496897Y7554671D01*
X14513661Y7561478D01*
X14529663Y7570012D01*
X14544700Y7580122D01*
X14558568Y7591704D01*
X14571218Y7604658D01*
X14582495Y7618882D01*
X14592198Y7634173D01*
X14600275Y7650327D01*
X14606676Y7667294D01*
X14611299Y7684820D01*
X14614093Y7702702D01*
X14615007Y7720787D01*
X14614093Y7738872D01*
X14611299Y7756753D01*
X14606676Y7774279D01*
X14600275Y7791246D01*
X14592198Y7807401D01*
X14582495Y7822692D01*
X14571218Y7836916D01*
X14558568Y7849870D01*
X14544700Y7861452D01*
X14529663Y7871561D01*
X14513661Y7880096D01*
X14496897Y7886903D01*
X14479524Y7891983D01*
X14461693Y7895234D01*
X14443659Y7896606D01*
X14425523Y7896148D01*
X14407591Y7893812D01*
X14389963Y7889697D01*
X14372844Y7883702D01*
X14356435Y7876031D01*
X14340941Y7866735D01*
X14326412Y7855864D01*
X14313154Y7843570D01*
X14301165Y7829956D01*
X14290700Y7815173D01*
X14281759Y7799425D01*
X14274546Y7782814D01*
X14269008Y7765592D01*
X14265300Y7747863D01*
X14263471Y7729829D01*
X14263471Y7711744D01*
X14265300Y7693710D01*
X14269008Y7675981D01*
X14274546Y7658760D01*
X14281759Y7642148D01*
X14290700Y7626400D01*
X14301165Y7611618D01*
X14313154Y7598003D01*
X14326412Y7585709D01*
X14340941Y7574838D01*
X14356435Y7565542D01*
X14372844Y7557871D01*
X14389963Y7551877D01*
X14407591Y7547762D01*
X14425523Y7545425D01*
G37*
G36*
X5204663Y7593685D02*
G01*
X5453532Y7593685D01*
X5459882Y7594396D01*
X5465318Y7596327D01*
X5470245Y7599375D01*
X5474309Y7603490D01*
X5477408Y7608366D01*
X5479288Y7613853D01*
X5479999Y7620152D01*
X5479999Y7869021D01*
X5479288Y7875371D01*
X5477408Y7880807D01*
X5474309Y7885734D01*
X5470245Y7889798D01*
X5465318Y7892897D01*
X5459882Y7894777D01*
X5453532Y7895488D01*
X5204663Y7895488D01*
X5198364Y7894777D01*
X5192877Y7892897D01*
X5188000Y7889798D01*
X5183886Y7885734D01*
X5180838Y7880807D01*
X5178907Y7875371D01*
X5178196Y7869021D01*
X5178196Y7830667D01*
X5177434Y7826806D01*
X5175250Y7823504D01*
X5171948Y7821269D01*
X5168036Y7820507D01*
X4279849Y7820507D01*
X4275937Y7821269D01*
X4272635Y7823504D01*
X3469792Y8626348D01*
X3467557Y8629650D01*
X3466795Y8633561D01*
X3466795Y8911844D01*
X3467100Y8914333D01*
X3468725Y8917940D01*
X3472992Y8929370D01*
X3475583Y8941308D01*
X3476447Y8953500D01*
X3475583Y8965692D01*
X3472992Y8977630D01*
X3468725Y8989060D01*
X3462883Y8999778D01*
X3456127Y9008770D01*
X3454603Y9011666D01*
X3454095Y9014866D01*
X3454095Y9463887D01*
X3454857Y9467799D01*
X3457092Y9471101D01*
X3460394Y9473285D01*
X3464255Y9474047D01*
X3514140Y9474047D01*
X3520490Y9474809D01*
X3525926Y9476689D01*
X3530854Y9479788D01*
X3534918Y9483852D01*
X3538016Y9488779D01*
X3539540Y9493097D01*
X3541674Y9496653D01*
X3545027Y9499041D01*
X3549091Y9499904D01*
X4396841Y9499955D01*
X4405680Y9500768D01*
X4408119Y9501174D01*
X4416755Y9503308D01*
X4419092Y9504070D01*
X4427321Y9507474D01*
X4429506Y9508591D01*
X4437126Y9513214D01*
X4445965Y9520275D01*
X4968748Y10043007D01*
X4972050Y10045242D01*
X4975961Y10046004D01*
X5831941Y10046055D01*
X5840780Y10046868D01*
X5843219Y10047274D01*
X5851855Y10049408D01*
X5854192Y10050170D01*
X5862421Y10053574D01*
X5864606Y10054691D01*
X5872226Y10059314D01*
X5881065Y10066375D01*
X5986424Y10171734D01*
X5993485Y10180574D01*
X5998108Y10188194D01*
X5999226Y10190378D01*
X6002629Y10198608D01*
X6003391Y10200944D01*
X6005525Y10209580D01*
X6005931Y10212019D01*
X6006744Y10220858D01*
X6006795Y10313263D01*
X6007709Y10317480D01*
X6010249Y10320883D01*
X6017564Y10327335D01*
X6026607Y10337596D01*
X6034227Y10348976D01*
X6040272Y10361269D01*
X6044641Y10374223D01*
X6047333Y10387634D01*
X6048248Y10401300D01*
X6047333Y10414965D01*
X6044641Y10428376D01*
X6040272Y10441330D01*
X6034227Y10453624D01*
X6026607Y10465003D01*
X6022035Y10470235D01*
X6020155Y10473334D01*
X6019495Y10476890D01*
X6019495Y10492638D01*
X6020257Y10496550D01*
X6022492Y10499852D01*
X6111748Y10589107D01*
X6115050Y10591342D01*
X6118961Y10592104D01*
X7063638Y10592104D01*
X7067550Y10591342D01*
X7070852Y10589107D01*
X7134707Y10525252D01*
X7136942Y10521950D01*
X7137704Y10518038D01*
X7137704Y10476890D01*
X7137044Y10473334D01*
X7135164Y10470235D01*
X7130592Y10465003D01*
X7122972Y10453624D01*
X7116927Y10441330D01*
X7112558Y10428376D01*
X7109866Y10414965D01*
X7108952Y10401300D01*
X7109866Y10387634D01*
X7112558Y10374223D01*
X7116927Y10361269D01*
X7122972Y10348976D01*
X7130592Y10337596D01*
X7139635Y10327335D01*
X7149896Y10318292D01*
X7161275Y10310672D01*
X7173569Y10304627D01*
X7186523Y10300258D01*
X7199934Y10297566D01*
X7213600Y10296652D01*
X7227265Y10297566D01*
X7240676Y10300258D01*
X7253630Y10304627D01*
X7265924Y10310672D01*
X7277303Y10318292D01*
X7287564Y10327335D01*
X7296607Y10337596D01*
X7304227Y10348976D01*
X7310272Y10361269D01*
X7314641Y10374223D01*
X7317333Y10387634D01*
X7318248Y10401300D01*
X7317333Y10414965D01*
X7314641Y10428376D01*
X7310272Y10441330D01*
X7304227Y10453624D01*
X7296607Y10465003D01*
X7292035Y10470235D01*
X7290155Y10473334D01*
X7289495Y10476890D01*
X7289444Y10556341D01*
X7288631Y10565180D01*
X7288225Y10567619D01*
X7286091Y10576255D01*
X7285329Y10578592D01*
X7281925Y10586821D01*
X7280808Y10589006D01*
X7276185Y10596626D01*
X7269124Y10605465D01*
X7151065Y10723524D01*
X7142225Y10730585D01*
X7134606Y10735208D01*
X7132421Y10736326D01*
X7124192Y10739729D01*
X7121855Y10740491D01*
X7113219Y10742625D01*
X7110780Y10743031D01*
X7101941Y10743844D01*
X6080658Y10743844D01*
X6071819Y10743031D01*
X6069380Y10742625D01*
X6060744Y10740491D01*
X6058408Y10739729D01*
X6050178Y10736326D01*
X6047994Y10735208D01*
X6040374Y10730585D01*
X6031534Y10723524D01*
X5888075Y10580065D01*
X5881014Y10571226D01*
X5876391Y10563606D01*
X5875274Y10561421D01*
X5871870Y10553192D01*
X5871108Y10550855D01*
X5868974Y10542219D01*
X5868568Y10539780D01*
X5867755Y10530941D01*
X5867704Y10476890D01*
X5867044Y10473334D01*
X5865164Y10470235D01*
X5860592Y10465003D01*
X5852972Y10453624D01*
X5846927Y10441330D01*
X5842558Y10428376D01*
X5839866Y10414965D01*
X5838952Y10401300D01*
X5839866Y10387634D01*
X5842558Y10374223D01*
X5846927Y10361269D01*
X5854547Y10345877D01*
X5855004Y10342930D01*
X5855004Y10259161D01*
X5854242Y10255250D01*
X5852007Y10251948D01*
X5800852Y10200792D01*
X5797550Y10198557D01*
X5793638Y10197795D01*
X4937658Y10197744D01*
X4928819Y10196931D01*
X4926380Y10196525D01*
X4917744Y10194391D01*
X4915408Y10193629D01*
X4907178Y10190226D01*
X4904994Y10189108D01*
X4897374Y10184485D01*
X4888534Y10177424D01*
X4365752Y9654692D01*
X4362450Y9652457D01*
X4358538Y9651695D01*
X3549091Y9651695D01*
X3545027Y9652558D01*
X3541674Y9654946D01*
X3539540Y9658502D01*
X3538016Y9662820D01*
X3534918Y9667748D01*
X3530854Y9671812D01*
X3525926Y9674910D01*
X3520490Y9676790D01*
X3514140Y9677501D01*
X3242259Y9677501D01*
X3235909Y9676790D01*
X3230473Y9674910D01*
X3225546Y9671812D01*
X3221482Y9667748D01*
X3218383Y9662820D01*
X3216503Y9657384D01*
X3215792Y9651034D01*
X3215792Y9500565D01*
X3216503Y9494215D01*
X3218383Y9488779D01*
X3221482Y9483852D01*
X3225546Y9479788D01*
X3230473Y9476689D01*
X3235909Y9474809D01*
X3242259Y9474047D01*
X3292144Y9474047D01*
X3296005Y9473285D01*
X3299307Y9471101D01*
X3301542Y9467799D01*
X3302304Y9463887D01*
X3302355Y8963558D01*
X3303168Y8954922D01*
X3308807Y8929420D01*
X3313074Y8917940D01*
X3314700Y8914333D01*
X3315004Y8911844D01*
X3315055Y8595258D01*
X3315868Y8586419D01*
X3316274Y8583980D01*
X3318408Y8575344D01*
X3319170Y8573008D01*
X3322574Y8564778D01*
X3323691Y8562594D01*
X3328314Y8554974D01*
X3335375Y8546134D01*
X4192422Y7689088D01*
X4201261Y7682026D01*
X4208881Y7677403D01*
X4211066Y7676286D01*
X4219295Y7672882D01*
X4221632Y7672120D01*
X4230268Y7669987D01*
X4232706Y7669580D01*
X4241546Y7668768D01*
X5168036Y7668717D01*
X5171948Y7667955D01*
X5175250Y7665720D01*
X5177434Y7662418D01*
X5178196Y7658557D01*
X5178196Y7620152D01*
X5178907Y7613853D01*
X5180838Y7608366D01*
X5183886Y7603490D01*
X5188000Y7599375D01*
X5192877Y7596327D01*
X5198364Y7594396D01*
G37*
G36*
X9633610Y7668768D02*
G01*
X9651695Y7670190D01*
X9669475Y7673441D01*
X9686899Y7678470D01*
X9703663Y7685328D01*
X9719614Y7693812D01*
X9734651Y7703921D01*
X9748570Y7715503D01*
X9761220Y7728508D01*
X9772446Y7742681D01*
X9782149Y7757972D01*
X9790277Y7774178D01*
X9796627Y7791145D01*
X9801250Y7808620D01*
X9804044Y7826502D01*
X9804958Y7844586D01*
X9804044Y7862722D01*
X9801250Y7880603D01*
X9796627Y7898079D01*
X9790277Y7915046D01*
X9782149Y7931251D01*
X9772446Y7946542D01*
X9761220Y7960715D01*
X9748570Y7973720D01*
X9734651Y7985302D01*
X9719614Y7995412D01*
X9703663Y8003895D01*
X9686899Y8010753D01*
X9669475Y8015782D01*
X9651695Y8019034D01*
X9633610Y8020456D01*
X9615525Y8019999D01*
X9597542Y8017662D01*
X9579914Y8013496D01*
X9562846Y8007553D01*
X9546437Y7999882D01*
X9530892Y7990535D01*
X9516414Y7979664D01*
X9503105Y7967370D01*
X9491167Y7953756D01*
X9480651Y7939024D01*
X9471761Y7923275D01*
X9464497Y7906664D01*
X9459010Y7889392D01*
X9455302Y7871663D01*
X9453422Y7853680D01*
X9453422Y7835544D01*
X9455302Y7817561D01*
X9459010Y7799831D01*
X9464497Y7782559D01*
X9471761Y7765948D01*
X9480651Y7750200D01*
X9491167Y7735468D01*
X9503105Y7721853D01*
X9516414Y7709560D01*
X9530892Y7698689D01*
X9546437Y7689342D01*
X9562846Y7681671D01*
X9579914Y7675727D01*
X9597542Y7671562D01*
X9615525Y7669225D01*
G37*
G36*
X12649708Y8821064D02*
G01*
X12667792Y8821978D01*
X12685674Y8824772D01*
X12703200Y8829395D01*
X12720167Y8835745D01*
X12736322Y8843873D01*
X12751612Y8853576D01*
X12765836Y8864803D01*
X12778790Y8877452D01*
X12790373Y8891371D01*
X12800482Y8906408D01*
X12809016Y8922359D01*
X12815824Y8939123D01*
X12820904Y8956548D01*
X12824155Y8974328D01*
X12825526Y8992412D01*
X12825069Y9010497D01*
X12822732Y9028480D01*
X12818618Y9046108D01*
X12812623Y9063177D01*
X12804952Y9079585D01*
X12795656Y9095130D01*
X12784785Y9109608D01*
X12772491Y9122918D01*
X12758877Y9134856D01*
X12744094Y9145371D01*
X12728346Y9154261D01*
X12711734Y9161526D01*
X12694513Y9167012D01*
X12676784Y9170720D01*
X12658750Y9172600D01*
X12640665Y9172600D01*
X12622631Y9170720D01*
X12604902Y9167012D01*
X12587681Y9161526D01*
X12571069Y9154261D01*
X12555321Y9145371D01*
X12540538Y9134856D01*
X12526924Y9122918D01*
X12514630Y9109608D01*
X12503759Y9095130D01*
X12494463Y9079585D01*
X12486792Y9063177D01*
X12480798Y9046108D01*
X12476683Y9028480D01*
X12474346Y9010497D01*
X12473889Y8992412D01*
X12475260Y8974328D01*
X12478512Y8956548D01*
X12483592Y8939123D01*
X12490399Y8922359D01*
X12498933Y8906408D01*
X12509042Y8891371D01*
X12520625Y8877452D01*
X12533579Y8864803D01*
X12547803Y8853576D01*
X12563094Y8843873D01*
X12579248Y8835745D01*
X12596215Y8829395D01*
X12613741Y8824772D01*
X12631623Y8821978D01*
G37*
G36*
X13921232Y9087358D02*
G01*
X13938097Y9088272D01*
X13954760Y9091117D01*
X13971066Y9095790D01*
X13986662Y9102293D01*
X14001496Y9110472D01*
X14015262Y9120276D01*
X14027912Y9131554D01*
X14039189Y9144152D01*
X14048994Y9157970D01*
X14057172Y9172752D01*
X14063624Y9188399D01*
X14068298Y9204655D01*
X14071142Y9221317D01*
X14072107Y9238234D01*
X14071142Y9255150D01*
X14068298Y9271812D01*
X14063624Y9288068D01*
X14057172Y9303715D01*
X14048994Y9318498D01*
X14039189Y9332315D01*
X14027912Y9344914D01*
X14015262Y9356191D01*
X14001496Y9365996D01*
X13986662Y9374174D01*
X13971066Y9380677D01*
X13954760Y9385350D01*
X13938097Y9388195D01*
X13921232Y9389110D01*
X13904315Y9388195D01*
X13887653Y9385350D01*
X13871346Y9380677D01*
X13855750Y9374174D01*
X13840917Y9365996D01*
X13827150Y9356191D01*
X13814501Y9344914D01*
X13803223Y9332315D01*
X13793419Y9318498D01*
X13785240Y9303715D01*
X13778788Y9288068D01*
X13774115Y9271812D01*
X13771270Y9255150D01*
X13770305Y9238234D01*
X13771270Y9221317D01*
X13774115Y9204655D01*
X13778788Y9188399D01*
X13785240Y9172752D01*
X13793419Y9157970D01*
X13803223Y9144152D01*
X13814501Y9131554D01*
X13827150Y9120276D01*
X13840917Y9110472D01*
X13855750Y9102293D01*
X13871346Y9095790D01*
X13887653Y9091117D01*
X13904315Y9088272D01*
G37*
G36*
X12649708Y9290964D02*
G01*
X12667792Y9291878D01*
X12685674Y9294672D01*
X12703200Y9299295D01*
X12720167Y9305645D01*
X12736322Y9313773D01*
X12751612Y9323476D01*
X12765836Y9334703D01*
X12778790Y9347352D01*
X12790373Y9361271D01*
X12800482Y9376308D01*
X12809016Y9392259D01*
X12815824Y9409023D01*
X12820904Y9426448D01*
X12824155Y9444228D01*
X12825526Y9462312D01*
X12825069Y9480397D01*
X12822732Y9498380D01*
X12818618Y9516008D01*
X12812623Y9533077D01*
X12804952Y9549485D01*
X12795656Y9565030D01*
X12784785Y9579508D01*
X12772491Y9592818D01*
X12758877Y9604756D01*
X12744094Y9615271D01*
X12728346Y9624161D01*
X12711734Y9631426D01*
X12694513Y9636912D01*
X12676784Y9640620D01*
X12658750Y9642500D01*
X12640665Y9642500D01*
X12622631Y9640620D01*
X12604902Y9636912D01*
X12587681Y9631426D01*
X12571069Y9624161D01*
X12551714Y9613290D01*
X12548616Y9612782D01*
X12299137Y9612782D01*
X12295276Y9613595D01*
X12291974Y9615779D01*
X12092279Y9815474D01*
X12090095Y9818776D01*
X12089333Y9822637D01*
X12089333Y9840976D01*
X12090298Y9845344D01*
X12093092Y9848850D01*
X12105538Y9858959D01*
X12120016Y9873081D01*
X12133122Y9888524D01*
X12144705Y9905136D01*
X12154712Y9922713D01*
X12162993Y9941204D01*
X12169495Y9960356D01*
X12174220Y9980015D01*
X12177064Y10000081D01*
X12177979Y10020300D01*
X12177064Y10040518D01*
X12174220Y10060533D01*
X12169495Y10080244D01*
X12162993Y10099395D01*
X12154712Y10117836D01*
X12144705Y10135463D01*
X12133122Y10152075D01*
X12120016Y10167467D01*
X12105538Y10181640D01*
X12089841Y10194340D01*
X12072975Y10205567D01*
X12055144Y10215118D01*
X12036450Y10222992D01*
X12017146Y10229037D01*
X11997385Y10233304D01*
X11977268Y10235641D01*
X11957050Y10236149D01*
X11936831Y10234726D01*
X11916867Y10231424D01*
X11897309Y10226243D01*
X11878310Y10219283D01*
X11860072Y10210546D01*
X11842699Y10200132D01*
X11826341Y10188194D01*
X11811254Y10174732D01*
X11797436Y10159949D01*
X11785092Y10143896D01*
X11774271Y10126776D01*
X11765127Y10108742D01*
X11757710Y10089896D01*
X11752122Y10070439D01*
X11748363Y10050576D01*
X11746433Y10030409D01*
X11746433Y10010190D01*
X11748363Y9990023D01*
X11752122Y9970160D01*
X11757710Y9950704D01*
X11765127Y9931857D01*
X11774271Y9913823D01*
X11785092Y9896703D01*
X11797436Y9880650D01*
X11811254Y9865868D01*
X11826341Y9852406D01*
X11833352Y9847275D01*
X11835587Y9845040D01*
X11837009Y9842195D01*
X11837466Y9839096D01*
X11837466Y9766452D01*
X11837720Y9758680D01*
X11838432Y9751110D01*
X11839549Y9743592D01*
X11841175Y9736175D01*
X11843207Y9728860D01*
X11845696Y9721646D01*
X11848592Y9714636D01*
X11851894Y9707778D01*
X11855653Y9701174D01*
X11859768Y9694773D01*
X11864289Y9688677D01*
X11869166Y9682835D01*
X11874500Y9677146D01*
X12153646Y9398000D01*
X12159335Y9392666D01*
X12165177Y9387789D01*
X12171273Y9383268D01*
X12177674Y9379153D01*
X12184278Y9375394D01*
X12191136Y9372092D01*
X12198146Y9369196D01*
X12205360Y9366707D01*
X12212675Y9364675D01*
X12220092Y9363049D01*
X12227610Y9361932D01*
X12235180Y9361220D01*
X12242952Y9360966D01*
X12504470Y9360966D01*
X12508788Y9360052D01*
X12512294Y9357360D01*
X12520625Y9347352D01*
X12533579Y9334703D01*
X12547803Y9323476D01*
X12563094Y9313773D01*
X12579248Y9305645D01*
X12596215Y9299295D01*
X12613741Y9294672D01*
X12631623Y9291878D01*
G37*
G36*
X13921232Y9565640D02*
G01*
X13938148Y9566554D01*
X13954810Y9569399D01*
X13971066Y9574072D01*
X13986713Y9580575D01*
X14001496Y9588754D01*
X14015313Y9598558D01*
X14027912Y9609836D01*
X14039189Y9622434D01*
X14048994Y9636252D01*
X14057172Y9651034D01*
X14063675Y9666681D01*
X14068348Y9682937D01*
X14071193Y9699599D01*
X14072107Y9716516D01*
X14071193Y9733432D01*
X14068348Y9750094D01*
X14063675Y9766350D01*
X14057172Y9781997D01*
X14048994Y9796780D01*
X14039189Y9810597D01*
X14027912Y9823196D01*
X14015313Y9834473D01*
X14001496Y9844278D01*
X13986713Y9852456D01*
X13971066Y9858959D01*
X13954810Y9863632D01*
X13938148Y9866477D01*
X13921232Y9867392D01*
X13904315Y9866477D01*
X13887653Y9863632D01*
X13871397Y9858959D01*
X13855750Y9852456D01*
X13840968Y9844278D01*
X13827150Y9834473D01*
X13814551Y9823196D01*
X13803274Y9810597D01*
X13793469Y9796780D01*
X13785291Y9781997D01*
X13778788Y9766350D01*
X13774115Y9750094D01*
X13771270Y9733432D01*
X13770356Y9716516D01*
X13771270Y9699599D01*
X13774115Y9682937D01*
X13778788Y9666681D01*
X13785291Y9651034D01*
X13793469Y9636252D01*
X13803274Y9622434D01*
X13814551Y9609836D01*
X13827150Y9598558D01*
X13840968Y9588754D01*
X13855750Y9580575D01*
X13871397Y9574072D01*
X13887653Y9569399D01*
X13904315Y9566554D01*
G37*
G36*
X6133642Y9568789D02*
G01*
X6151676Y9570161D01*
X6169507Y9573412D01*
X6186881Y9578492D01*
X6203645Y9585299D01*
X6219647Y9593834D01*
X6234684Y9603943D01*
X6248552Y9615525D01*
X6261201Y9628479D01*
X6272479Y9642703D01*
X6282182Y9657994D01*
X6290259Y9674148D01*
X6296660Y9691116D01*
X6301282Y9708642D01*
X6304076Y9726523D01*
X6304991Y9744608D01*
X6304076Y9762693D01*
X6301282Y9780574D01*
X6296660Y9798100D01*
X6290259Y9815068D01*
X6282182Y9831222D01*
X6272479Y9846513D01*
X6261201Y9860737D01*
X6248552Y9873691D01*
X6234684Y9885273D01*
X6219647Y9895382D01*
X6203645Y9903917D01*
X6186881Y9910724D01*
X6169507Y9915804D01*
X6151676Y9919055D01*
X6133642Y9920427D01*
X6115507Y9919970D01*
X6097574Y9917633D01*
X6079947Y9913518D01*
X6062827Y9907524D01*
X6046419Y9899853D01*
X6030925Y9890556D01*
X6016396Y9879685D01*
X6003137Y9867392D01*
X5991148Y9853777D01*
X5980684Y9838994D01*
X5971743Y9823246D01*
X5964529Y9806635D01*
X5958992Y9789414D01*
X5955284Y9771684D01*
X5953455Y9753650D01*
X5953455Y9735566D01*
X5955284Y9717532D01*
X5958992Y9699802D01*
X5964529Y9682581D01*
X5971743Y9665970D01*
X5980684Y9650222D01*
X5991148Y9635439D01*
X6003137Y9621824D01*
X6016396Y9609531D01*
X6030925Y9598660D01*
X6046419Y9589363D01*
X6062827Y9581692D01*
X6079947Y9575698D01*
X6097574Y9571583D01*
X6115507Y9569246D01*
G37*

%LPD*%
D10*
X3390900Y8597900D02*
G01*
X4244187Y7744612D01*
X5329097Y7744612D01*
X7152894Y5791200D02*
G01*
X7213600Y5791200D01*
X7213600Y9474200D01*
X7848600Y10109200D01*
X7848600Y10464800D01*
X8051800Y10668000D01*
X8829294Y10668000D01*
X3378200Y9575800D02*
G01*
X4394200Y9575800D01*
X4940300Y10121900D01*
X5829300Y10121900D01*
X5930900Y10223500D01*
X5930900Y10388600D01*
X5943600Y10401300D01*
X9753600Y10401300D02*
G01*
X9753600Y10541000D01*
X9626600Y10668000D01*
X8610600Y10668000D01*
X8483600Y10541000D01*
X8483600Y10401300D01*
X10604500Y6032500D02*
G01*
X10604500Y6845300D01*
X10045700Y7404100D01*
X10045700Y9804400D01*
X9753600Y10096500D01*
X9753600Y10401300D01*
X9499600Y10401300D02*
G01*
X9499600Y10236200D01*
X8966200Y9702800D01*
X8966200Y3238500D01*
X9182100Y3022600D01*
X9826904Y3022600D01*
X9830308Y3019196D01*
X8229600Y10401300D02*
G01*
X8686800Y9944100D01*
X8686800Y2997200D01*
X8915400Y2768600D01*
X9826904Y2768600D01*
X9830308Y2765196D01*
D11*
X12649708Y9936734D02*
G01*
X13050265Y9936734D01*
X13182600Y9804400D01*
X13182600Y9334500D01*
D10*
X7480300Y5283200D02*
G01*
X5918200Y5283200D01*
X2806700Y8394700D01*
X2806700Y10515600D01*
X3073400Y10782300D01*
X5549900Y10782300D01*
X5689600Y10642600D01*
X5689600Y10401300D01*
X3162300Y9867900D02*
G01*
X3098800Y9867900D01*
X3098800Y8585200D01*
X5892800Y5791200D01*
X7480300Y5791200D01*
X5943600Y10401300D02*
G01*
X5943600Y10528300D01*
X6083300Y10668000D01*
X7099300Y10668000D01*
X7213600Y10553700D01*
X7213600Y10401300D01*
X3378200Y10083800D02*
G01*
X3162300Y9867900D01*
X3378200Y10083800D02*
G01*
X3378200Y10502900D01*
X3390900Y8953500D02*
G01*
X3378200Y8966200D01*
X3378200Y9575800D01*
X3390900Y8953500D02*
G01*
X3390900Y8597900D01*
X7480300Y5537200D02*
G01*
X6819900Y5537200D01*
X6959600Y10401300D02*
G01*
X6959600Y6096000D01*
X6819900Y5956300D01*
D11*
X3564381Y5037328D02*
G01*
X3564381Y5909818D01*
X2336800Y7137400D01*
X2336800Y7721600D01*
D10*
X7480300Y6553200D02*
G01*
X7988300Y6553200D01*
X8445500Y6096000D01*
X8445500Y1701800D01*
X3564128Y4783073D02*
G01*
X3979926Y4783073D01*
X4279900Y4483100D01*
X4279900Y2590800D01*
X5168900Y1701800D01*
X11023600Y1701800D01*
X12446000Y3124200D01*
X12446000Y5727700D01*
X13148995Y3535298D02*
G01*
X14025499Y3535298D01*
X14211300Y3721100D01*
X14211300Y5422900D01*
X13906500Y5727700D01*
X13144500Y5727700D01*
D11*
X13148818Y3281171D02*
G01*
X11239245Y1371600D01*
X3873500Y1371600D01*
X1676400Y3568700D01*
X1676400Y4610100D01*
X2108200Y5041900D01*
X3559555Y5041900D01*
X3564381Y5037328D01*
X13182600Y9334500D02*
G01*
X13182600Y6553200D01*
X12814300Y6184900D01*
X12814300Y3517900D01*
X13051027Y3281171D01*
X13148818Y3281171D01*
X12814300Y5473700D02*
G01*
X12814300Y6184900D01*
X11254587Y7744612D01*
X10429113Y7744612D01*
D10*
X10604500Y6032500D02*
G01*
X10985500Y6032500D01*
X11112500Y5905500D01*
X11112500Y5765800D01*
X9830308Y6067196D02*
G01*
X9884003Y6067196D01*
X10172700Y5778500D01*
X10604500Y5778500D01*
X9830308Y5305196D02*
G01*
X10105796Y5305196D01*
X10299700Y5499100D01*
X10579100Y5499100D01*
X10604500Y5524500D01*
X13140893Y5051196D02*
G01*
X13148995Y5059298D01*
X13148995Y4043298D02*
G01*
X13787500Y4043298D01*
X13804900Y4025900D01*
X13148995Y4297298D02*
G01*
X13166394Y4279900D01*
X13804900Y4279900D01*
X13148995Y4551298D02*
G01*
X13800200Y4551298D01*
X13804900Y4546600D01*
X13148995Y4805298D02*
G01*
X13153694Y4800600D01*
X13804900Y4800600D01*
X2425700Y3505200D02*
G01*
X3556203Y3505200D01*
X3564204Y3513201D01*
X2425700Y3759200D02*
G01*
X3556203Y3759200D01*
X3564204Y3767201D01*
X2425700Y4025900D02*
G01*
X3559505Y4025900D01*
X3564204Y4021201D01*
X2425700Y4279900D02*
G01*
X3559505Y4279900D01*
X3564204Y4275201D01*
X9830308Y3273196D02*
G01*
X11616885Y3273196D01*
X11624990Y3281301D01*
X9830308Y3527196D02*
G01*
X11616885Y3527196D01*
X11624990Y3535301D01*
X9830308Y3781196D02*
G01*
X11616885Y3781196D01*
X11624990Y3789301D01*
X9830308Y4035196D02*
G01*
X11616885Y4035196D01*
X11624990Y4043301D01*
X9830308Y4289196D02*
G01*
X11616885Y4289196D01*
X11624990Y4297301D01*
X9830308Y4543196D02*
G01*
X11616885Y4543196D01*
X11624990Y4551301D01*
X9830308Y4797196D02*
G01*
X11616885Y4797196D01*
X11624990Y4805301D01*
X5088204Y5037198D02*
G01*
X7472301Y5037198D01*
X7480300Y5029200D01*
X5088204Y4783198D02*
G01*
X7472301Y4783198D01*
X7480300Y4775200D01*
X5088204Y4529198D02*
G01*
X7472301Y4529198D01*
X7480300Y4521200D01*
X5088204Y4275198D02*
G01*
X7472301Y4275198D01*
X7480300Y4267200D01*
X5088204Y4021198D02*
G01*
X7472301Y4021198D01*
X7480300Y4013200D01*
X5088204Y3767198D02*
G01*
X7472301Y3767198D01*
X7480300Y3759200D01*
X5088204Y3513198D02*
G01*
X7472301Y3513198D01*
X7480300Y3505200D01*
D11*
X11963400Y10034295D02*
G01*
X11963400Y9766300D01*
X12242800Y9486900D01*
X12629641Y9486900D01*
X12649708Y9466834D01*
D12*
G01*
X10604500Y5270500D03*
D13*
G01*
X10604500Y5524500D03*
G01*
X10604500Y5778500D03*
G01*
X10604500Y6032500D03*
D12*
G01*
X11112500Y5765800D03*
D13*
G01*
X11112500Y5511800D03*
D14*
G01*
X11482095Y10020300D03*
G01*
X11962104Y10020300D03*
D15*
G01*
X3644900Y8953500D03*
G01*
X3390900Y8953500D03*
G01*
X3632200Y10502900D03*
G01*
X3378200Y10502900D03*
D12*
G01*
X5689600Y10401300D03*
D13*
G01*
X5943600Y10401300D03*
G01*
X6197600Y10401300D03*
D12*
G01*
X6959600Y10401300D03*
D13*
G01*
X7213600Y10401300D03*
G01*
X7467600Y10401300D03*
D12*
G01*
X8229600Y10401300D03*
D13*
G01*
X8483600Y10401300D03*
G01*
X8737600Y10401300D03*
D12*
G01*
X9499600Y10401300D03*
D13*
G01*
X9753600Y10401300D03*
G01*
X10007600Y10401300D03*
D16*
G01*
X7480300Y6553200D03*
G01*
X7480300Y6299200D03*
G01*
X7480300Y6045200D03*
G01*
X7480300Y5791200D03*
G01*
X7480300Y5537200D03*
G01*
X7480300Y5283200D03*
G01*
X7480300Y5029200D03*
G01*
X7480300Y4775200D03*
G01*
X7480300Y4521200D03*
G01*
X7480300Y4267200D03*
G01*
X7480300Y4013200D03*
G01*
X7480300Y3759200D03*
G01*
X7480300Y3505200D03*
G01*
X7480300Y3251200D03*
G01*
X7480300Y2997200D03*
G01*
X7480300Y2743200D03*
G01*
X7480300Y2489200D03*
G01*
X7480300Y2235200D03*
G01*
X7480300Y1981200D03*
G01*
X9830308Y6575196D03*
G01*
X9830308Y6321196D03*
G01*
X9830308Y6067196D03*
G01*
X9830308Y5813196D03*
G01*
X9830308Y5559196D03*
G01*
X9830308Y5305196D03*
G01*
X9830308Y5051196D03*
G01*
X9830308Y4797196D03*
G01*
X9830308Y4543196D03*
G01*
X9830308Y4289196D03*
G01*
X9830308Y4035196D03*
G01*
X9830308Y3781196D03*
G01*
X9830308Y3527196D03*
G01*
X9830308Y3273196D03*
G01*
X9830308Y3019196D03*
G01*
X9830308Y2765196D03*
G01*
X9830308Y2511196D03*
G01*
X9830308Y2257196D03*
G01*
X9830308Y2003196D03*
D17*
G01*
X13804900Y4279900D03*
D18*
G01*
X13804900Y4025900D03*
D17*
G01*
X13804900Y4800600D03*
D18*
G01*
X13804900Y4546600D03*
D17*
G01*
X2425700Y4025900D03*
D18*
G01*
X2425700Y4279900D03*
D17*
G01*
X2425700Y3505200D03*
D18*
G01*
X2425700Y3759200D03*
D19*
G01*
X13148919Y3281222D03*
G01*
X13148995Y3535298D03*
G01*
X13148995Y3789298D03*
G01*
X13148995Y4043298D03*
G01*
X13148995Y4297298D03*
G01*
X13148995Y4551298D03*
G01*
X13148995Y4805298D03*
G01*
X13148995Y5059298D03*
G01*
X11624995Y5059298D03*
G01*
X11624995Y4805298D03*
G01*
X11624995Y4551298D03*
G01*
X11624995Y4297298D03*
G01*
X11624995Y4043298D03*
G01*
X11624995Y3789298D03*
G01*
X11624995Y3535298D03*
G01*
X11624995Y3281298D03*
G01*
X3564280Y5037277D03*
G01*
X3564204Y4783201D03*
G01*
X3564204Y4529201D03*
G01*
X3564204Y4275201D03*
G01*
X3564204Y4021201D03*
G01*
X3564204Y3767201D03*
G01*
X3564204Y3513201D03*
G01*
X3564204Y3259201D03*
G01*
X5088204Y3259201D03*
G01*
X5088204Y3513201D03*
G01*
X5088204Y3767201D03*
G01*
X5088204Y4021201D03*
G01*
X5088204Y4275201D03*
G01*
X5088204Y4529201D03*
G01*
X5088204Y4783201D03*
G01*
X5088204Y5037201D03*
D20*
G01*
X12649708Y9936734D03*
G01*
X12649708Y9466834D03*
G01*
X12649708Y8996934D03*
D21*
G01*
X13921231Y9716515D03*
G01*
X13921206Y9238234D03*
D22*
G01*
X3378200Y9575800D03*
G01*
X3683000Y9829800D03*
G01*
X3378200Y10083800D03*
D23*
G01*
X5329123Y7744612D03*
G01*
X10429113Y7744612D03*
G01*
X10429113Y9844608D03*
G01*
X5329123Y9844608D03*
D24*
G01*
X13182600Y7708900D03*
G01*
X12674600Y7708900D03*
G01*
X2336800Y7721600D03*
G01*
X2844800Y7721600D03*
D16*
G01*
X12446000Y5727700D03*
G01*
X13144500Y5727700D03*
D13*
G01*
X6819900Y5956300D03*
G01*
X6819900Y5537200D03*
M02*
