G04 Layer: TopLayer*
G04 Panelize: , Column: 1, Row: 1, Board Size: 30mm x 15mm, Panelized Board Size: 30mm x 15mm*
G04 EasyEDA v6.5.39, 2025-05-21 18:04:40*
G04 ad319511b08b4bf7b3d5d7d4c81c1c8d,953214928e7c43af8b9c7e5a0e4489c6,10*
G04 Gerber Generator version 0.2*
G04 Scale: 100 percent, Rotated: No, Reflected: No *
G04 Dimensions in millimeters *
G04 leading zeros omitted , absolute positions ,4 integer and 5 decimal *
%FSLAX45Y45*%
%MOMM*%

%ADD10C,1.0000*%
%ADD11C,1.5748*%
%ADD12R,1.5748X1.5748*%
%ADD13C,1.8796*%
%ADD14C,1.5240*%
%ADD15C,0.0193*%

%LPD*%
G36*
X85496Y50596D02*
G01*
X81584Y51358D01*
X78282Y53593D01*
X76098Y56896D01*
X75336Y60756D01*
X75336Y1488643D01*
X76098Y1492504D01*
X78282Y1495806D01*
X81584Y1498041D01*
X85496Y1498803D01*
X3013354Y1498803D01*
X3017215Y1498041D01*
X3020517Y1495806D01*
X3022701Y1492504D01*
X3023514Y1488643D01*
X3023514Y60756D01*
X3022701Y56896D01*
X3020517Y53593D01*
X3017215Y51358D01*
X3013354Y50596D01*
G37*

%LPC*%
G36*
X1134008Y108762D02*
G01*
X1148689Y110134D01*
X1163116Y113283D01*
X1177036Y118211D01*
X1190244Y124815D01*
X1202537Y132943D01*
X1213764Y142544D01*
X1223670Y153466D01*
X1232204Y165506D01*
X1239215Y178511D01*
X1244549Y192278D01*
X1248105Y206552D01*
X1249934Y221234D01*
X1249934Y235966D01*
X1248105Y250647D01*
X1244549Y264922D01*
X1239215Y278688D01*
X1232204Y291693D01*
X1223670Y303733D01*
X1213764Y314655D01*
X1202537Y324256D01*
X1190244Y332384D01*
X1177036Y338988D01*
X1163116Y343916D01*
X1148689Y347065D01*
X1134008Y348386D01*
X1119225Y347980D01*
X1104646Y345694D01*
X1090472Y341630D01*
X1076858Y335889D01*
X1064107Y328523D01*
X1052322Y319633D01*
X1041704Y309372D01*
X1040841Y308305D01*
X1037336Y305511D01*
X1032967Y304495D01*
X810361Y304495D01*
X806450Y305257D01*
X803148Y307492D01*
X739292Y371348D01*
X737057Y374650D01*
X736295Y378561D01*
X736295Y402590D01*
X736904Y406095D01*
X738733Y409143D01*
X742594Y413766D01*
X749909Y425246D01*
X755650Y437591D01*
X759714Y450646D01*
X761949Y464058D01*
X762406Y477723D01*
X761085Y491286D01*
X757885Y504545D01*
X753008Y517245D01*
X746455Y529234D01*
X738378Y540207D01*
X728878Y550011D01*
X718159Y558444D01*
X706424Y565404D01*
X693877Y570738D01*
X680720Y574344D01*
X667207Y576173D01*
X653592Y576173D01*
X640080Y574344D01*
X626922Y570738D01*
X614375Y565404D01*
X602640Y558444D01*
X591921Y550011D01*
X582422Y540207D01*
X574344Y529234D01*
X567791Y517245D01*
X562914Y504545D01*
X559714Y491286D01*
X558393Y477723D01*
X558850Y464058D01*
X561086Y450646D01*
X565150Y437591D01*
X570890Y425246D01*
X578205Y413766D01*
X582066Y409143D01*
X583895Y406095D01*
X584504Y402590D01*
X584555Y340258D01*
X585368Y331419D01*
X585774Y328980D01*
X587908Y320344D01*
X588670Y318008D01*
X592074Y309778D01*
X593191Y307594D01*
X597814Y299974D01*
X604875Y291134D01*
X722934Y173075D01*
X731774Y166014D01*
X739394Y161391D01*
X741578Y160274D01*
X749808Y156870D01*
X752144Y156108D01*
X760780Y153974D01*
X763219Y153568D01*
X772058Y152755D01*
X1032967Y152704D01*
X1037336Y151688D01*
X1040841Y148894D01*
X1041704Y147828D01*
X1052322Y137566D01*
X1064107Y128676D01*
X1076858Y121310D01*
X1090472Y115570D01*
X1104646Y111506D01*
X1119225Y109220D01*
G37*
G36*
X2150008Y108762D02*
G01*
X2164689Y110134D01*
X2179116Y113283D01*
X2193036Y118211D01*
X2206244Y124815D01*
X2218537Y132943D01*
X2229764Y142544D01*
X2239670Y153466D01*
X2248204Y165506D01*
X2255215Y178511D01*
X2260549Y192278D01*
X2264105Y206552D01*
X2265934Y221234D01*
X2265934Y235966D01*
X2264105Y250647D01*
X2260549Y264922D01*
X2255215Y278688D01*
X2248204Y291693D01*
X2239670Y303733D01*
X2229764Y314655D01*
X2218537Y324256D01*
X2206244Y332384D01*
X2193036Y338988D01*
X2179116Y343916D01*
X2164689Y347065D01*
X2150008Y348386D01*
X2138730Y348081D01*
X2134666Y348792D01*
X2131212Y351028D01*
X2070354Y411937D01*
X2068118Y415188D01*
X2067356Y419100D01*
X2068118Y423011D01*
X2070354Y426262D01*
X2327148Y683107D01*
X2330450Y685342D01*
X2334361Y686104D01*
X2693009Y686104D01*
X2696565Y685444D01*
X2699664Y683564D01*
X2704896Y678992D01*
X2716276Y671372D01*
X2728569Y665327D01*
X2741523Y660958D01*
X2754934Y658266D01*
X2768600Y657352D01*
X2782265Y658266D01*
X2795676Y660958D01*
X2808630Y665327D01*
X2820924Y671372D01*
X2832303Y678992D01*
X2842564Y688035D01*
X2851607Y698296D01*
X2859227Y709676D01*
X2865272Y721969D01*
X2869641Y734923D01*
X2872333Y748334D01*
X2873248Y762000D01*
X2872333Y775665D01*
X2869641Y789076D01*
X2865272Y802030D01*
X2859227Y814324D01*
X2851607Y825703D01*
X2842564Y835964D01*
X2832303Y845007D01*
X2820924Y852627D01*
X2808630Y858672D01*
X2795676Y863041D01*
X2782265Y865733D01*
X2768600Y866648D01*
X2754934Y865733D01*
X2741523Y863041D01*
X2728569Y858672D01*
X2716276Y852627D01*
X2704896Y845007D01*
X2699664Y840435D01*
X2696565Y838555D01*
X2693009Y837895D01*
X2296058Y837844D01*
X2287219Y837031D01*
X2284780Y836625D01*
X2276144Y834491D01*
X2273808Y833729D01*
X2265578Y830326D01*
X2263394Y829208D01*
X2255774Y824585D01*
X2246934Y817524D01*
X1927352Y497992D01*
X1924050Y495757D01*
X1920138Y494995D01*
X1356461Y494995D01*
X1352550Y495757D01*
X1349248Y497992D01*
X1221892Y625348D01*
X1219657Y628650D01*
X1218895Y632561D01*
X1218844Y790041D01*
X1218031Y798880D01*
X1217625Y801319D01*
X1215491Y809955D01*
X1214729Y812292D01*
X1211326Y820521D01*
X1210208Y822706D01*
X1205585Y830326D01*
X1198524Y839165D01*
X957884Y1079804D01*
X951026Y1085494D01*
X948994Y1086916D01*
X941374Y1091488D01*
X939190Y1092606D01*
X930960Y1096010D01*
X928624Y1096772D01*
X920038Y1098905D01*
X917600Y1099312D01*
X908761Y1100175D01*
X732129Y1100226D01*
X728827Y1100785D01*
X725830Y1102410D01*
X718159Y1108456D01*
X706424Y1115415D01*
X693877Y1120749D01*
X680720Y1124356D01*
X667207Y1126134D01*
X653592Y1126134D01*
X640080Y1124356D01*
X626922Y1120749D01*
X614375Y1115415D01*
X602640Y1108456D01*
X591921Y1100023D01*
X582422Y1090218D01*
X574344Y1079246D01*
X567791Y1067257D01*
X562914Y1054557D01*
X559714Y1041298D01*
X558393Y1027684D01*
X558850Y1014069D01*
X561086Y1000607D01*
X565150Y987602D01*
X570890Y975258D01*
X578205Y963726D01*
X586994Y953312D01*
X597154Y944168D01*
X608380Y936447D01*
X620522Y930300D01*
X633425Y925830D01*
X646785Y923137D01*
X660400Y922223D01*
X674014Y923137D01*
X687374Y925830D01*
X700278Y930300D01*
X712419Y936447D01*
X723646Y944168D01*
X725424Y945794D01*
X728573Y947724D01*
X732231Y948385D01*
X870458Y948385D01*
X874318Y947623D01*
X877620Y945438D01*
X1064107Y758952D01*
X1066342Y755650D01*
X1067104Y751738D01*
X1067155Y594258D01*
X1067968Y585419D01*
X1068374Y582980D01*
X1070508Y574344D01*
X1071270Y572008D01*
X1074674Y563778D01*
X1075791Y561594D01*
X1080414Y553974D01*
X1087475Y545134D01*
X1269034Y363575D01*
X1277874Y356514D01*
X1285494Y351891D01*
X1287678Y350774D01*
X1295908Y347370D01*
X1298244Y346608D01*
X1306880Y344474D01*
X1309319Y344068D01*
X1318158Y343255D01*
X1920138Y343204D01*
X1924050Y342442D01*
X1927352Y340207D01*
X2023922Y243636D01*
X2026259Y240029D01*
X2026869Y235813D01*
X2026412Y228600D01*
X2027326Y213867D01*
X2030069Y199339D01*
X2034539Y185318D01*
X2040686Y171907D01*
X2048459Y159359D01*
X2057704Y147828D01*
X2068322Y137566D01*
X2080107Y128676D01*
X2092858Y121310D01*
X2106472Y115570D01*
X2120646Y111506D01*
X2135225Y109220D01*
G37*
G36*
X723392Y598424D02*
G01*
X740308Y599338D01*
X756970Y602183D01*
X773226Y606856D01*
X788873Y613359D01*
X803656Y621538D01*
X817473Y631342D01*
X830071Y642620D01*
X841349Y655218D01*
X851153Y669036D01*
X859332Y683818D01*
X865835Y699465D01*
X870508Y715721D01*
X873353Y732383D01*
X874268Y749300D01*
X873353Y766216D01*
X870508Y782878D01*
X865835Y799134D01*
X859332Y814781D01*
X851153Y829564D01*
X841349Y843381D01*
X830071Y855980D01*
X817473Y867257D01*
X803656Y877062D01*
X788873Y885240D01*
X773226Y891743D01*
X756970Y896416D01*
X740308Y899261D01*
X723392Y900176D01*
X706475Y899261D01*
X689813Y896416D01*
X673557Y891743D01*
X657910Y885240D01*
X643128Y877062D01*
X629310Y867257D01*
X616712Y855980D01*
X605434Y843381D01*
X595630Y829564D01*
X587451Y814781D01*
X580948Y799134D01*
X576275Y782878D01*
X573430Y766216D01*
X572516Y749300D01*
X573430Y732383D01*
X576275Y715721D01*
X580948Y699465D01*
X587451Y683818D01*
X595630Y669036D01*
X605434Y655218D01*
X616712Y642620D01*
X629310Y631342D01*
X643128Y621538D01*
X657910Y613359D01*
X673557Y606856D01*
X689813Y602183D01*
X706475Y599338D01*
G37*
G36*
X343408Y598424D02*
G01*
X360324Y599338D01*
X376986Y602183D01*
X393242Y606856D01*
X408889Y613359D01*
X423672Y621538D01*
X437489Y631342D01*
X450088Y642620D01*
X461365Y655218D01*
X471170Y669036D01*
X479348Y683818D01*
X485851Y699465D01*
X490524Y715721D01*
X493369Y732383D01*
X494284Y749300D01*
X493369Y766216D01*
X490524Y782878D01*
X485851Y799134D01*
X479348Y814781D01*
X471170Y829564D01*
X461365Y843381D01*
X450088Y855980D01*
X437489Y867257D01*
X423672Y877062D01*
X408889Y885240D01*
X393242Y891743D01*
X376986Y896416D01*
X360324Y899261D01*
X343408Y900176D01*
X326491Y899261D01*
X309829Y896416D01*
X293573Y891743D01*
X277926Y885240D01*
X263144Y877062D01*
X249326Y867257D01*
X236728Y855980D01*
X225450Y843381D01*
X215646Y829564D01*
X207467Y814781D01*
X200964Y799134D01*
X196291Y782878D01*
X193446Y766216D01*
X192532Y749300D01*
X193446Y732383D01*
X196291Y715721D01*
X200964Y699465D01*
X207467Y683818D01*
X215646Y669036D01*
X225450Y655218D01*
X236728Y642620D01*
X249326Y631342D01*
X263144Y621538D01*
X277926Y613359D01*
X293573Y606856D01*
X309829Y602183D01*
X326491Y599338D01*
G37*
G36*
X1553921Y598881D02*
G01*
X1572006Y600252D01*
X1589786Y603504D01*
X1607210Y608584D01*
X1623974Y615391D01*
X1639925Y623925D01*
X1654962Y634034D01*
X1668881Y645617D01*
X1681530Y658571D01*
X1692757Y672795D01*
X1702460Y688086D01*
X1710588Y704240D01*
X1716938Y721207D01*
X1721561Y738733D01*
X1724355Y756615D01*
X1725269Y774700D01*
X1724355Y792784D01*
X1721561Y810666D01*
X1716938Y828192D01*
X1710588Y845159D01*
X1702460Y861314D01*
X1692757Y876604D01*
X1681530Y890828D01*
X1668881Y903782D01*
X1654962Y915365D01*
X1639925Y925474D01*
X1623974Y934008D01*
X1607210Y940816D01*
X1589786Y945896D01*
X1572006Y949147D01*
X1553921Y950518D01*
X1535836Y950061D01*
X1517853Y947724D01*
X1500225Y943610D01*
X1483156Y937615D01*
X1466748Y929944D01*
X1451203Y920648D01*
X1436725Y909777D01*
X1423416Y897483D01*
X1411478Y883869D01*
X1400962Y869086D01*
X1392072Y853338D01*
X1384808Y836726D01*
X1379321Y819505D01*
X1375613Y801776D01*
X1373733Y783742D01*
X1373733Y765657D01*
X1375613Y747623D01*
X1379321Y729894D01*
X1384808Y712673D01*
X1392072Y696061D01*
X1400962Y680313D01*
X1411478Y665530D01*
X1423416Y651916D01*
X1436725Y639622D01*
X1451203Y628751D01*
X1466748Y619455D01*
X1483156Y611784D01*
X1500225Y605790D01*
X1517853Y601675D01*
X1535836Y599338D01*
G37*
G36*
X2690418Y911352D02*
G01*
X2846781Y911352D01*
X2853080Y912063D01*
X2858566Y913993D01*
X2863443Y917041D01*
X2867558Y921156D01*
X2870606Y926033D01*
X2872536Y931519D01*
X2873248Y937818D01*
X2873248Y1094181D01*
X2872536Y1100480D01*
X2870606Y1105966D01*
X2867558Y1110843D01*
X2863443Y1114958D01*
X2858566Y1118006D01*
X2853080Y1119936D01*
X2846781Y1120648D01*
X2690418Y1120648D01*
X2684119Y1119936D01*
X2678633Y1118006D01*
X2673756Y1114958D01*
X2669641Y1110843D01*
X2666644Y1106017D01*
X2664256Y1098905D01*
X2662123Y1095248D01*
X2658719Y1092758D01*
X2654604Y1091895D01*
X2042261Y1091895D01*
X2038350Y1092657D01*
X2035048Y1094892D01*
X1778965Y1350924D01*
X1770125Y1357985D01*
X1762506Y1362608D01*
X1760321Y1363726D01*
X1752092Y1367129D01*
X1749755Y1367891D01*
X1741119Y1370025D01*
X1738680Y1370431D01*
X1729841Y1371244D01*
X1240332Y1371295D01*
X1235964Y1372311D01*
X1232458Y1375105D01*
X1231595Y1376172D01*
X1220978Y1386433D01*
X1209192Y1395323D01*
X1196441Y1402689D01*
X1182827Y1408430D01*
X1168654Y1412494D01*
X1154074Y1414780D01*
X1139291Y1415186D01*
X1124610Y1413865D01*
X1110183Y1410716D01*
X1096264Y1405788D01*
X1083056Y1399184D01*
X1070762Y1391056D01*
X1065377Y1386433D01*
X1062278Y1384655D01*
X1058773Y1383995D01*
X594258Y1383944D01*
X585419Y1383131D01*
X582980Y1382725D01*
X574344Y1380591D01*
X572008Y1379829D01*
X563778Y1376426D01*
X561594Y1375308D01*
X553974Y1370685D01*
X545134Y1363624D01*
X381050Y1199642D01*
X377647Y1197356D01*
X373634Y1196644D01*
X369620Y1197559D01*
X366318Y1199997D01*
X364286Y1203502D01*
X363778Y1207566D01*
X364286Y1214272D01*
X363372Y1225905D01*
X360730Y1237183D01*
X356412Y1247952D01*
X350469Y1257960D01*
X343052Y1266901D01*
X334365Y1274622D01*
X324662Y1280972D01*
X314045Y1285697D01*
X302818Y1288796D01*
X291287Y1290116D01*
X279704Y1289659D01*
X268274Y1287475D01*
X257352Y1283512D01*
X247142Y1277975D01*
X237896Y1270965D01*
X229870Y1262583D01*
X223164Y1253083D01*
X218033Y1242669D01*
X214528Y1231595D01*
X212750Y1220114D01*
X212750Y1208481D01*
X214528Y1197000D01*
X218033Y1185926D01*
X223164Y1175512D01*
X229870Y1166012D01*
X237896Y1157630D01*
X247142Y1150620D01*
X257352Y1145082D01*
X268274Y1141120D01*
X279704Y1138936D01*
X291287Y1138478D01*
X302818Y1139799D01*
X314045Y1142898D01*
X318160Y1144727D01*
X322478Y1145590D01*
X326745Y1144574D01*
X330200Y1141831D01*
X332181Y1137869D01*
X332232Y1133449D01*
X331368Y1128979D01*
X330555Y1120343D01*
X330504Y1096314D01*
X329996Y1093165D01*
X328523Y1090320D01*
X320344Y1079246D01*
X313791Y1067257D01*
X308914Y1054557D01*
X305714Y1041298D01*
X304393Y1027684D01*
X304850Y1014069D01*
X307086Y1000607D01*
X311150Y987602D01*
X316890Y975258D01*
X324205Y963726D01*
X332994Y953312D01*
X343154Y944168D01*
X354380Y936447D01*
X366522Y930300D01*
X379425Y925830D01*
X392785Y923137D01*
X406400Y922223D01*
X420014Y923137D01*
X433374Y925830D01*
X446278Y930300D01*
X458419Y936447D01*
X469646Y944168D01*
X479806Y953312D01*
X488594Y963726D01*
X495909Y975258D01*
X501650Y987602D01*
X505714Y1000607D01*
X507949Y1014069D01*
X508406Y1027684D01*
X507085Y1041298D01*
X503885Y1054557D01*
X499008Y1067257D01*
X492455Y1079246D01*
X490372Y1082040D01*
X488797Y1085240D01*
X488442Y1088796D01*
X489356Y1092301D01*
X491388Y1095248D01*
X625348Y1229207D01*
X628650Y1231442D01*
X632561Y1232204D01*
X1035913Y1232204D01*
X1039063Y1231696D01*
X1041958Y1230223D01*
X1044194Y1227886D01*
X1049629Y1220266D01*
X1059535Y1209344D01*
X1070762Y1199743D01*
X1083056Y1191615D01*
X1096264Y1185011D01*
X1110183Y1180084D01*
X1124610Y1176934D01*
X1139291Y1175562D01*
X1154074Y1176020D01*
X1168654Y1178306D01*
X1182827Y1182370D01*
X1196441Y1188110D01*
X1209192Y1195476D01*
X1220978Y1204366D01*
X1231595Y1214628D01*
X1232458Y1215694D01*
X1235964Y1218488D01*
X1240332Y1219504D01*
X1691538Y1219504D01*
X1695450Y1218742D01*
X1698752Y1216507D01*
X1954834Y960475D01*
X1963674Y953414D01*
X1971293Y948791D01*
X1973478Y947674D01*
X1981707Y944270D01*
X1984044Y943508D01*
X1992680Y941374D01*
X1995119Y940968D01*
X2003958Y940155D01*
X2654604Y940104D01*
X2658719Y939241D01*
X2662123Y936752D01*
X2664256Y933094D01*
X2666644Y925982D01*
X2669641Y921156D01*
X2673756Y917041D01*
X2678633Y913993D01*
X2684119Y912063D01*
G37*

%LPD*%
D10*
X406400Y1024381D02*
G01*
X406400Y1117600D01*
X596900Y1308100D01*
X1130300Y1308100D01*
X1143000Y1295400D01*
X1143000Y1295400D02*
G01*
X1727200Y1295400D01*
X2006600Y1016000D01*
X2768600Y1016000D01*
X2768600Y762000D02*
G01*
X2298700Y762000D01*
X1955800Y419100D01*
X660400Y1024305D02*
G01*
X906094Y1024305D01*
X1143000Y787400D01*
X1143000Y596900D01*
X1320800Y419100D01*
X1955800Y419100D01*
X2146300Y228600D01*
X660400Y474294D02*
G01*
X660400Y342900D01*
X774700Y228600D01*
X1130300Y228600D01*
D11*
G01*
X2768600Y508000D03*
G01*
X2768600Y762000D03*
D12*
G01*
X2768600Y1016000D03*
D13*
G01*
X2146300Y228600D03*
G01*
X1130300Y228600D03*
G01*
X1143000Y1295400D03*
G01*
X2159000Y1295400D03*
D14*
G01*
X660400Y474294D03*
G01*
X406400Y474294D03*
G01*
X660400Y1024305D03*
G01*
X406400Y1024305D03*
M02*
